<svg xmlns="http://www.w3.org/2000/svg">
<defs>
<font id="BarberryLetters" horiz-adv-x="546" >
  <font-face 
    font-family="Barberry Letters"
    font-weight="400"
    font-stretch="normal"
    units-per-em="2048"
    panose-1="3 6 5 6 0 0 0 2 0 3"
    ascent="1585"
    descent="-463"
    x-height="702"
    cap-height="1554"
    bbox="-937.998 -942.002 3697 2300.23"
    underline-thickness="102"
    underline-position="-205"
    unicode-range="U+0020-U+FB00"
  />
<missing-glyph horiz-adv-x="1261" 
d="M197 725l10.002 13.9941c-68.667 0 -103 13 -103 39c0 22 41.667 37 125 45s125 16.333 125 25c-2.66699 2.66699 -4 6.66699 -4 12c0 12.667 5.5 34.667 16.5 66s16.5 49 16.5 53c-2.66699 10.667 -4 30.334 -4 59.001c0 73.333 24.167 133.333 72.5 180
s109.5 70 183.5 70c45.333 0 84.666 -15 117.999 -45s50 -64 50 -102c0 -18 -10.667 -38.333 -32 -61s-46.333 -43.334 -75 -62.001c-39.333 -23.333 -124 -47.333 -254 -72c-24 -17.333 -36 -46.666 -36 -87.999c0 -2.66699 1.33301 -4 4 -4c68 23.333 111 39 129 47
c14 7.33301 46 19.666 96 36.999c51.333 20 90.333 39 117 57c2 0.666992 4.5 2 7.5 4l14.5 9.5c6.66699 4.33301 13 8.16602 19 11.499c47.333 29.333 74.333 51 81 65c0 2.66699 -0.666992 7.33398 -2 14.001s-2 11 -2 13c0 6 4.83301 18.667 14.5 38s14.5 32 14.5 38
c2 102.667 6 166.667 12 192c0 0.666992 0.666992 2.83398 2 6.50098s2 5.83398 2 6.50098l-2 2v4c0 4 1.66699 6 5 6c6.66699 0 10 -24.667 10 -74c0 -4.66699 -0.666992 -17.334 -2 -38.001s-2 -36.667 -2 -48c0 -25.333 3.5 -48 10.5 -68s14.833 -30 23.5 -30
c6 0 24 13 54 39s47.667 39 53 39c4 0 6 -4.33301 6 -13c0 -2 -0.666992 -6.83301 -2 -14.5s-2 -12.834 -2 -15.501l90 53c1.33301 0 2 -4.66699 2 -14c0 -18.667 -15 -40 -45 -64l-110 -82c-52.667 -38 -83.667 -61.667 -93 -71c-7.33301 -6.66699 -13.333 -11 -18 -13
c-1.33301 0 -2 -1.33301 -2 -4c4 -8 3.33301 -20.333 -2 -37c0 -11.333 41 -35.666 123 -72.999l39 -17l6 -4l10 -8l6 -4c-1.33301 -1.33301 -6.66602 -2 -15.999 -2c-18 0 -48.667 8.66699 -92 26l-54 27l-39 20l-24 -6c-6 -2 -11.333 -3.66699 -16 -5

<glyph glyph-name="f_f" unicode="ff" horiz-adv-x="722" 
d="M653 115c11.333 -46.667 17.0059 -88.9961 17.0059 -126.996c0 -43.333 -8.16699 -82.833 -24.5 -118.5s-36.833 -53.5 -61.5 -53.5c-0.666992 0 -2.83398 0.333008 -6.50098 1s-5.83398 1 -6.50098 1l-8 -4c-20.667 0 -41 28.667 -61 86
c-19.333 59.333 -29 123.333 -29 192c0 6 0.666992 26.167 2 60.5s2 61.166 2 80.499c-43.333 6 -65 24.667 -65 56c0 17.333 6.66699 33 20 47s30.333 23.667 51 29v159c-70 -78 -145.667 -132.667 -227 -164c0.666992 -4.66699 8.66699 -22 24 -52
s25.666 -53.333 30.999 -70c12 -37.333 25 -118 39 -242c0 -60.667 -12.333 -116 -37 -166c-22.667 -50.667 -48.334 -76 -77.001 -76c-0.666992 0 -2.83398 0.333008 -6.50098 1s-5.83398 1 -6.50098 1l-8 -4c-24 0 -45 43.667 -63 131c-18 88 -27 164.667 -27 230v88
c1.33301 31.333 2 67.333 2 108c-65.333 22.667 -98 55.667 -98 99c0 20 7.16699 36.5 21.5 49.5s33.833 19.5 58.5 19.5c13.333 0 22 -0.666992 26 -2c0 0.666992 -0.333008 9.33398 -1 26.001s-1 28.667 -1 36s2 35.333 6 84c5.33301 43.333 8 78 8 104
c0 2 -0.333008 5.33301 -1 10s-1 7.33398 -1 8.00098c1.33301 30 9 101 23 213l8 68l17 129l18 125c8 50.667 17 91.667 27 123c40 133.333 86.333 196 139 188c34.667 0 66.167 -26 94.5 -78s42.5 -116 42.5 -192c0 -66.667 -11.667 -134.334 -35 -203.001
c-20 -61.333 -42.167 -110.833 -66.5 -148.5s-43.166 -56.5 -56.499 -56.5c-4.66699 0 -9.5 2.83301 -14.5 8.5s-7.5 11.167 -7.5 16.5c6.66699 15.333 15 36.333 25 63s23.333 75.667 40 147s25 136.333 25 195c0 25.333 -3.83301 51.166 -11.5 77.499
s-16.167 42.166 -25.5 47.499c-24 -30 -48.667 -108.333 -74 -235c-24.667 -122.667 -43 -271 -55 -445c0 -41.333 -2.66699 -92.333 -8 -153c-5.33301 -58.667 -8 -99.667 -8 -123c0 -11.333 0.666992 -21.666 2 -30.999l2 -20c88 23.333 170 82.666 246 177.999
c0 2.66699 2 19.667 6 51s6 52 6 62c5.33301 103.333 21 206.333 47 309l43 145l39 129c23.333 80.667 58 125 104 133c29.333 0 54.5 -12.833 75.5 -38.5s31.5 -61.834 31.5 -108.501c0 -74 -8.33301 -143.667 -25 -209c-15.333 -60.667 -44 -137 -86 -229
c-55.333 -120.667 -102.333 -206.667 -141 -258c0 -148 2.66699 -234 8 -258c49.333 0 106 12.667 170 38c28 22 50.667 33 68 33c8 0 12 -6 12 -18c0 -14.667 -29.333 -41.334 -88 -80.001c-55.333 -38 -110 -63.333 -164 -76c17.333 -27.333 35.666 -76.333 54.999 -147z
M606.006 848.004c0 -5.33301 -0.664062 -8.66602 -1.99707 -9.99902c0 -2 0.333008 -6.5 1 -13.5s1 -11.5 1 -13.5c7.33301 0 23.666 26.667 48.999 80c25.333 52 50 118.333 74 199c23.333 79.333 35 144 35 194c0 22.667 -3.33301 41.667 -10 57
c-10.667 -2 -24.334 -17.667 -41.001 -47c-20.667 -34.667 -41.834 -93.334 -63.501 -176.001s-36.167 -172.667 -43.5 -270zM223.009 236.004c-2.66699 -8 -4 -48.999 -4 -122.999c0 -146 8.33301 -219 25 -219c7.33301 0 15.333 10.167 24 30.5s13 40.833 13 61.5
c0 31.333 -7.66699 80.333 -23 147c-14 63.333 -25.667 97.666 -35 102.999zM571.009 156.005c-2.66699 -8 -4 -29.334 -4 -64.001c0 -109.333 9 -164 27 -164c9.33301 0 14 33 14 99c0 20.667 -4 45.334 -12 74.001s-16.333 47 -25 55z" />
    <glyph glyph-name="T_h" unicode="Th" horiz-adv-x="1392" 
d="M631 289c0 -35.333 2 -72.8301 6 -112.497s10.667 -81.5 20 -125.5s23.666 -80.167 42.999 -108.5s42 -42.5 68 -42.5c16 0 35.667 4.66699 59 14s38.333 14 45 14c11.333 0 17 -4 17 -12c0 -22 -25.333 -47.333 -76 -76c-49.333 -30 -84.666 -45 -105.999 -45
c-62 0 -111.333 18.333 -148 55c-20.667 14.667 -35 53 -43 115c-19.333 138.667 -29 238.334 -29 299.001c0 307.333 28 633 84 977l-96 -53l-108 -60c-74 -39.333 -132 -59 -174 -59c-18.667 -1.33301 -40.667 7.5 -66 26.5s-46 38.333 -62 58s-22.667 29.834 -20 30.501
c0 14.667 7.66699 22 23 22c2 0 7 -0.333008 15 -1s13 -1 15 -1c56 0 153 27.333 291 82c292 112 477 170 555 174c16 35.333 40 66 72 92s59.333 39 82 39c24 0 45.333 -12.833 64 -38.5s28 -51.5 28 -77.5c0 -37.333 -44.333 -69.666 -133 -96.999
c-14 -140 -25 -323 -33 -549c-9.33301 -186 -14 -299.333 -14 -340l61 138c68.667 132 122 198 160 198c48 0 72 -14.333 72 -43c0 -6.66699 -5 -38.667 -15 -96c-5.33301 -30.667 -14.666 -101 -27.999 -211c-8.66699 -91.333 -13 -171 -13 -239
c0 -2.66699 0.333008 -11.334 1 -26.001s1 -25.334 1 -32.001c27.333 29.333 66.333 74.333 117 135l109 129c6 10 14.667 15 26 15c10 0 15 -7 15 -21c0 -8.66699 -54.667 -103.334 -164 -284.001c-2 -6 -15.667 -29.333 -41 -70c-4 -4.66699 -9.5 -11.5 -16.5 -20.5
l-16.5 -21c-4 -5 -8.5 -9.66699 -13.5 -14s-9.5 -6.5 -13.5 -6.5c-28 0 -54.333 12.5 -79 37.5s-37 57.833 -37 98.5c0 53.333 2 136.666 6 249.999c5.33301 100.667 8 166.667 8 198c0 5.33301 -2 8 -6 8c-9.33301 0 -28.666 -28.667 -57.999 -86
c-27.333 -53.333 -46.333 -99 -57 -137c-10.667 -46 -16 -83.667 -16 -113c0 -26.667 1.16699 -53.667 3.5 -81s4.66602 -49.333 6.99902 -66s3.5 -26.334 3.5 -29.001c0 -27.333 -17.667 -41 -53 -41c-53.333 0 -80 33.667 -80 101c0 45.333 2 112 6 200s6 159 6 213
c0 228.667 7 491.667 21 789c-2.66699 0 -6.33398 -0.333008 -11.001 -1s-7.33398 -1 -8.00098 -1c-25.333 -4.66699 -56.166 -12.5 -92.499 -23.5s-66.833 -21.333 -91.5 -31s-36.334 -15.5 -35.001 -17.5c4 -10 6 -16 6 -18c0 -12.667 -4.66699 -37.334 -14 -74.001
c-9.33301 -45.333 -14.666 -76 -15.999 -92c-22 -182 -33 -453.667 -33 -815z" />
    <glyph glyph-name="t_t" unicode="tt" horiz-adv-x="587" 
d="M256 8l45.0049 119.002c14 44 25.667 66 35 66s14 -7 14 -21c0 -60 -17.667 -134.333 -53 -223c-16.667 -38 -35.5 -69.333 -56.5 -94s-41.167 -37 -60.5 -37c-30.667 0 -56.667 17.667 -78 53s-32 83 -32 143c0 254.667 10.667 478 32 670
c0 16.667 6.33301 95.334 19 236.001c-77.333 -7.33301 -125.333 -11 -144 -11c-34.667 0 -63.334 8.5 -86.001 25.5s-34 35.167 -34 54.5c0 10 2.66699 15 8 15c4.66699 0 17.667 -1.83301 39 -5.5s37.666 -5.5 48.999 -5.5c41.333 0 100 4.33301 176 13l8 59.5
c2.66699 20.333 4.5 34.666 5.5 42.999s1.83301 13.5 2.5 15.5l13 95c10.667 106 25 159 43 159c20 0 39.667 -13 59 -39c20.667 -28 31 -50.333 31 -67c0 -5.33301 -3.33301 -25.333 -10 -60c-2.66699 -12.667 -6.33398 -33.667 -11.001 -63l-12 -129c42 4 98 13 168 27
c3.33301 25.333 6.66602 70.333 9.99902 135l19 198c6 58.667 14 88 24 88c20 2 43.333 -9.33301 70 -34c28 -24 43 -45.333 45 -64c2 -8.66699 -4.33301 -58.334 -19 -149.001c-13.333 -84 -20 -134.667 -20 -152c138.667 22 251.334 33 338.001 33
c36.667 0 70.667 -11.5 102 -34.5s47 -45.833 47 -68.5c0 -10.667 -9.33301 -16 -28 -16c-0.666992 0 -2.83398 0.333008 -6.50098 1s-9.66699 1.83398 -18 3.50098l-26.5 5.5c-38 7.33301 -66.667 11 -86 11c-142.667 0 -253.334 -7.66699 -332.001 -23
c-8.66699 -70.667 -19 -221 -31 -451c0 -11.333 -2.66699 -48 -8 -110c-5.33301 -60.667 -8 -100.334 -8 -119.001c0.666992 -2 1 -8.16699 1 -18.5s-0.333008 -21.5 -1 -33.5v-18c-0.666992 -3.33301 -2 -68 -4 -194c0 -116.667 0.666992 -181.667 2 -195
c0 -22.667 4 -52.667 12 -90c3.33301 -16.667 7.66602 -33.667 12.999 -51l13 -41c3.33301 -10 5 -15.333 5 -16c-2 -19.333 -11 -29 -27 -29c-9.33301 -2 -20.666 1 -33.999 9s-27.166 21.333 -41.499 40s-27.5 41 -39.5 67s-21.833 58 -29.5 96s-11.5 78 -11.5 120
c0 51.333 2 114 6 188l19 285c9.33301 138 14.666 223.333 15.999 256c0 2.66699 0.5 9.5 1.5 20.5s2.33301 28.167 4 51.5s3.5 47 5.5 71c8 88 12 136 12 144l-170 -25l-39 -391c-8 -66 -12 -126.667 -12 -182c0 -58.667 -0.666992 -115.334 -2 -170.001v-62
c-2.66699 -24 -4 -65 -4 -123c0 -22 4.66699 -39.667 14 -53c18 6 34.333 23 49 51z" />
    <glyph glyph-name="t_h" unicode="th" horiz-adv-x="884" 
d="M967 442c6 10 14.668 14.9971 26.001 14.9971c10 0 15 -7 15 -21c0 -8.66699 -54.667 -103.334 -164 -284.001c-2 -6 -15.667 -29.333 -41 -70c-4 -4.66699 -9.5 -11.5 -16.5 -20.5l-16.5 -21c-4 -5 -8.5 -9.66699 -13.5 -14s-9.5 -6.5 -13.5 -6.5
c-14.667 0 -31 9.66699 -49 29c-39.333 52.667 -59 174.334 -59 365.001c0 18.667 1 51 3 97s3 77 3 93c0 5.33301 -2 8 -6 8c-8 0 -26.333 -34.667 -55 -104c-32 -74.667 -52 -128 -60 -160c-10.667 -46 -16 -104 -16 -174c0 -46 2 -95.667 6 -149
c5.33301 -45.333 8 -74.666 8 -87.999c0 -27.333 -17.667 -41 -53 -41c-20 0 -36.333 15.667 -49 47s-19 68 -19 110c0 14 -1.33301 35.5 -4 64.5s-4 47.167 -4 54.5c0 6.66699 0.166992 17.167 0.5 31.5l1.5 61.5c0.666992 26.667 1.33398 51.667 2.00098 75
c2.66699 117.333 4 181.333 4 192c0 60 8.33301 210.333 25 451c-46.667 -50.667 -106.667 -82 -180 -94c-12.667 -84.667 -20.334 -142.667 -23.001 -174c0 -1.33301 -0.166992 -5.66602 -0.5 -12.999l-1.5 -33l-2 -46c-0.666992 -16 -1.33398 -31.167 -2.00098 -45.5
l-1.5 -32.5c-0.333008 -7.33301 -0.5 -11.666 -0.5 -12.999c-10.667 -94 -16 -149.667 -16 -167c1.33301 -4 2 -13 2 -27c-6 -38.667 -9 -98 -9 -178c0 -35.333 5.66699 -82 17 -140c12 -57.333 10.667 -86 -4 -86c-30 0 -60.667 28 -92 84
c-28.667 56.667 -43 130.667 -43 222c0 65.333 4.66699 141 14 227c8.66699 80 15.334 167.333 20.001 262c0 8 2.5 26.333 7.5 55s7.5 50 7.5 64l-4 10c-4 0 -25.333 -3.33301 -64 -10c-31.333 -5.33301 -60 -8 -86 -8c-34 0 -59.833 11.667 -77.5 35s-26.5 49 -26.5 77
c0 7.33301 2.66699 11 8 11c2 0 15.333 -2.5 40 -7.5s45.334 -7.5 62.001 -7.5c57.333 0 112.666 5.66699 165.999 17c2 10.667 6 50 12 118c18 158.667 35.333 238 52 238c19.333 0 37.666 -13 54.999 -39c19.333 -29.333 29 -52 29 -68c0 -3.33301 -4.33301 -44 -13 -122
c-1.33301 -20 -3 -39.667 -5 -59s-3.33301 -33 -4 -41s-1 -13 -1 -15c87.333 24.667 144.666 63.667 171.999 117c8.66699 130 15.667 209 21 237c0 13.333 -0.666992 29 -2 47c-2 26.667 -3 43 -3 49c0 18 16.667 27 50 27c22.667 0 50.667 -9.66699 84 -29
c32 -18.667 49 -35 51 -49c0 -38.667 -7 -83.667 -21 -135c-12.667 -53.333 -27.667 -95 -45 -125c-2 -20 -9.33301 -76.667 -22 -170l-9 -63.5l-8 -55c-2 -13.667 -3.33301 -24.5 -4 -32.5c-13.333 -169.333 -20 -272 -20 -308l61 138c68 133.333 121.333 200 160 200
c48 0 72 -14.333 72 -43c0 -6.66699 -5 -38.667 -15 -96c-5.33301 -30.667 -14.666 -101 -27.999 -211c-8.66699 -91.333 -13 -171 -13 -239c0 -22.667 3.66699 -50.667 11 -84c26.667 31.333 99 128 217 290z" />
    <glyph glyph-name="l_l" unicode="ll" horiz-adv-x="761" 
d="M573 41l200.997 285l35 51c36.667 53.333 59.334 80 68.001 80c8 0 12 -7.66699 12 -23c0 -6 -11 -27.667 -33 -65l-74 -127c-24.667 -40.667 -41 -70.667 -49 -90c0 -0.666992 -26 -48 -78 -142c-22.667 -42 -59.334 -63 -110.001 -63
c-63.333 0 -106.333 57.333 -129 172c-33.333 -98 -65.666 -169 -96.999 -213c-23.333 -27.333 -60.666 -41 -111.999 -41c-53.333 0 -94.333 47.667 -123 143c-28.667 94.667 -43 193.667 -43 297c0 115.333 3.33301 228.666 10 339.999
c14 211.333 47.667 404.666 101 579.999c55.333 174.667 106.333 262 153 262c22.667 0 45.334 -14.333 68.001 -43c23.333 -27.333 37 -52.666 41 -75.999c9.33301 -49.333 14 -106 14 -170c0 -119.333 -46.333 -293.333 -139 -522l-45 -96l-16.5 -37.5
c-6.33301 -14.333 -11.333 -26.166 -15 -35.499l-9.5 -24c-23.333 -72 -35 -148.333 -35 -229c0 -36.667 7.33301 -88 22 -154c11.333 -51.333 26.666 -98.333 45.999 -141c28 14 77.667 95.333 149 244l18 45v57c0 104.667 3.66699 218 11 340
c12 194.667 39.333 364.667 82 510c43.333 147.333 88.333 221 135 221c20 0 39 -12.167 57 -36.5s29.667 -50.166 35 -77.499c9.33301 -49.333 14 -106 14 -170c0 -128 -28.667 -267.333 -86 -418c-1.33301 -6.66699 -10.666 -30.667 -27.999 -72l-31 -78l-23 -65
c-12 -36.667 -19.333 -61.334 -22 -74.001c-11.333 -62 -17 -105.667 -17 -131c0 -87.333 14.333 -158.333 43 -213zM177.997 909c-10.667 -72.667 -15.999 -142.334 -15.999 -209.001l-8 -157v-2v-19c0 0.666992 1.66699 5.66699 5 15l14.5 40l19.5 56
c30 80.667 47.667 130.334 53 149.001c17.333 58 30.333 105.333 39 142c17.333 68 28.666 126 33.999 174c0 1.33301 3 21.666 9 60.999c5.33301 34.667 8 60 8 76c0 83.333 -6.33301 125 -19 125c-13.333 0 -36.333 -54 -69 -162
c-32 -103.333 -55.333 -199.666 -70 -288.999zM540.998 909c-11.333 -77.333 -17.001 -147.001 -17.001 -209.001l-8 -157v-2v-19l23 66l24 69c6 13.333 13 36 21 68c20.667 64 39.667 154 57 270c0 6.66699 2.66699 27.334 8 62.001s8 60 8 76c0 82.667 -6 124 -18 124
c-15.333 0 -31.666 -35.333 -48.999 -106c-20 -77.333 -36.333 -158 -49 -242z" />
    <glyph glyph-name="o_o" unicode="oo" horiz-adv-x="856" 
d="M885 365c12.667 10.667 25.001 23.833 37.001 39.5s21.333 28.334 28 38.001s11.667 14.5 15 14.5c9.33301 0 14 -7.66699 14 -23c0 -16.667 -17.667 -48.667 -53 -96c-34.667 -46.667 -70.334 -70 -107.001 -70c-31.333 0 -60 23.333 -86 70l-8 14
c-39.333 -146 -82.333 -219 -129 -219c-95.333 0 -143 72.333 -143 217c0 51.333 4.66699 97 14 137c-34 -24.667 -66.667 -40.334 -98 -47.001c-28 -116.667 -59.167 -203.834 -93.5 -261.501s-68.166 -86.5 -101.499 -86.5c-29.333 0 -54.333 8.16699 -75 24.5
s-35.667 37.833 -45 64.5s-15.833 52 -19.5 76s-5.5 48.333 -5.5 73c0 63.333 7.33301 128 22 194c14 58.667 35.333 115.334 64 170.001c29.333 56 60.666 84 93.999 84c24 0 43.667 -8.5 59 -25.5s23 -38.5 23 -64.5c29.333 0 50.333 -9.66699 63 -29s21 -48 25 -86
c4 -37.333 6 -56.333 6 -57c26 4 62.333 27.333 109 70c6.66699 28 21.5 58.833 44.5 92.5s48.167 51.834 75.5 54.501c24 0 43.667 -8.5 59 -25.5s23 -38.5 23 -64.5c54.667 0 82 -22.667 82 -68c0 -7.33301 -1.66699 -26.333 -5 -57s-5 -52.334 -5 -65.001
c0 -28 6.66699 -54.5 20 -79.5s26.333 -37.5 39 -37.5c14 0 33.333 9.66699 58 29zM172.001 177.999c20.667 18.667 42.668 53.666 66.001 104.999c24 48.667 36 93 36 133c0 1.33301 -3 6 -9 14s-12 17.833 -18 29.5s-9 22.5 -9 32.5c0 12.667 1.16699 28.5 3.5 47.5
s4.66602 35.833 6.99902 50.5s3.5 22.667 3.5 24c0 15.333 -3.33301 23 -10 23c-2 2 -6.33301 -1.5 -13 -10.5s-14.5 -22.167 -23.5 -39.5s-17.667 -36.666 -26 -57.999s-15.5 -45.5 -21.5 -72.5s-8.66699 -52.833 -8 -77.5v-105c0 -27.333 7.33301 -59.333 22 -96z
M666.002 364.998c6.66699 18 10 34.9971 10 50.9971c0 1.33301 -2 5.33301 -6 12s-7.83301 15 -11.5 25s-5.5 20 -5.5 30c0 9.33301 0.666992 25.5 2 48.5s2 35.5 2 37.5c0 15.333 -3.33301 23 -10 23c-9.33301 0 -19.833 -13.167 -31.5 -39.5s-22 -61.666 -31 -105.999
s-13.5 -88.166 -13.5 -131.499c0 -26 7.66699 -58 23 -96c32 46.667 56 95.334 72 146.001z" />
    <glyph glyph-name="s_s" unicode="ss" horiz-adv-x="720" 
d="M791 420c31.333 39.333 48.666 48.3369 51.999 27.0039l1 -7c0 -24.667 -25.333 -63.334 -76 -116.001c-56 -56 -97 -93.667 -123 -113c0 -4.66699 4.66699 -22.334 14 -53.001c11.333 -35.333 17 -61.333 17 -78c0 -52 -15.667 -94.333 -47 -127
s-69.666 -49 -114.999 -49c-23.333 0 -45.166 10.833 -65.499 32.5s-30.5 48.167 -30.5 79.5c0 49.333 36.667 115.666 110 198.999c-25.333 44.667 -46.333 104 -63 178c-79.333 -100 -134 -163.333 -164 -190c0 -6 2.66699 -24.667 8 -56
c6.66699 -38.667 10 -65.667 10 -81c0 -66 -22.333 -130.333 -67 -193s-91.667 -94 -141 -94c-34.667 0 -69.667 17.667 -105 53s-53 74.333 -53 117c0 28 19.667 63.333 59 106l51 56l66 61l53 47c-50 94 -77.333 152 -82 174c-35.333 -47.333 -55.666 -71 -60.999 -71
c-12.667 0 -19 4.66699 -19 14c0 4.66699 4.16699 13.834 12.5 27.501s18.333 29.167 30 46.5l21.5 32c0 2.66699 -2 17 -6 43s-6 41 -6 45c0 90 16.333 172.667 49 248c35.333 76.667 73.666 115 114.999 115c16 0 33.667 -5.33301 53 -16c28.667 -14 43 -32.667 43 -56
c0.666992 -4 -10 -26 -32 -66s-44.167 -87.333 -66.5 -142s-32.5 -100.667 -30.5 -138c0 -54.667 24.333 -123.667 73 -207c58 41.333 115.667 100.666 173 177.999c-14 61.333 -21 97 -21 107c0 59.333 15 116.666 45 171.999c31.333 57.333 58.666 86 81.999 86
c12.667 0 31 -8.33301 55 -25c23.333 -16 35 -28.667 35 -38c0 -7.33301 -14.333 -35.333 -43 -84c-27.333 -49.333 -41 -98 -41 -146c0 -77.333 20 -158 60 -242c2 0 16.333 9 43 27c54 37.333 96.333 76.333 127 117zM217 55.0039
c0 33.333 -4.66602 66.334 -13.999 99.001c-112 -103.333 -168 -173 -168 -209c0 -16 8.5 -33.667 25.5 -53s32.167 -29 45.5 -29c19.333 0 42.666 21.667 69.999 65s41 85.666 41 126.999zM553.001 131.005c-31.333 -55.333 -46.999 -94.334 -46.999 -117.001
c0 -17.333 6.66699 -26 20 -26c11.333 0 21 8 29 24c9.33301 17.333 14.166 31.833 14.499 43.5s-5.16699 36.834 -16.5 75.501z" />
    <glyph glyph-name="t_r" unicode="tr" horiz-adv-x="735" 
d="M801 457c10.667 0 16.0039 -6.3291 16.0039 -18.9961c0 -9.33301 -33.333 -69.333 -100 -180l-53 -88c-16 -22 -34.833 -42.5 -56.5 -61.5s-41.834 -28.5 -60.501 -28.5c-26 0 -49.333 11.833 -70 35.5s-31 52.167 -31 85.5c0 74.667 13 156.334 39 245.001
c-26 -12.667 -49 -20 -69 -22c-10.667 -36.667 -30 -88 -58 -154c-26.667 -67.333 -54 -125.333 -82 -174c-45.333 -76 -86.666 -114 -123.999 -114c-30 0 -54.667 17.333 -74 52s-29 82.667 -29 144c0 66 4 135.667 12 209c14 101.333 25.667 200.333 35 297l8 64l11 67
c-38.667 -6.66699 -75 -10 -109 -10c-19.333 0 -37.5 7.16699 -54.5 21.5s-25.5 29.5 -25.5 45.5c0 10 2.66699 15 8 15c2.66699 0 14.667 -2.5 36 -7.5s35.333 -7.5 42 -7.5c35.333 0 73 4.33301 113 13c4 16 8 47.333 12 94c11.333 106.667 25.666 160 42.999 160
c20.667 0 40.667 -13 60 -39c20 -26.667 30 -49.334 30 -68.001c0 -4.66699 -3.33301 -24.334 -10 -59.001c-2 -9.33301 -3.66699 -18.333 -5 -27s-2.33301 -16.334 -3 -23.001s-1.33398 -11.334 -2.00098 -14.001c102 16.667 182.667 25 242 25
c30 0 54.5 -6.33301 73.5 -19s28.5 -27.667 28.5 -45c0 -10.667 -9.66699 -16 -29 -16c-25.333 4 -48.333 6 -69 6c-93.333 0 -180 -8 -260 -24c-19.333 -121.333 -29 -222.666 -29 -303.999c0 -1.33301 -4.83301 -27.833 -14.5 -79.5s-14.5 -80.834 -14.5 -87.501
c1.33301 -4 2 -13 2 -27c-10.667 -81.333 -16 -136 -16 -164c0 -32 4.66699 -54.667 14 -68c13.333 4 31.666 22.667 54.999 56c60.667 87.333 108.667 174.666 144 261.999c-34 10 -51 37.333 -51 82c2 46 12.667 94.333 32 145c20 47.333 39.333 74 58 80
c14 0 30.167 -6.33301 48.5 -19s27.5 -25.334 27.5 -38.001c-34.667 -92 -52 -144.667 -52 -158c0 -12 4.33301 -18 13 -18c11.333 0 21.333 2.66699 30 8c23.333 39.333 44 59 62 59c9.33301 0 21.166 -5 35.499 -15s21.5 -19.333 21.5 -28c0 -10 -9 -53 -27 -129
c-16.667 -68.667 -27.334 -123.334 -32.001 -164.001c0 -30 4.66699 -45 14 -45c11.333 0 28.333 10.333 51 31s44.667 45.334 66 74.001c12 15.333 28.833 38.833 50.5 70.5s38.834 55.834 51.501 72.501s21 25 25 25z" />
    <glyph glyph-name="t_r2" unicode="&#x442;&#x440;" horiz-adv-x="1153" 
d="M1004 78c-22 -15.333 -52.3398 -22.998 -91.0068 -22.998c-15.333 0 -30.333 6.66699 -45 20s-22 26.666 -22 39.999c0 24 3.33301 60 10 108c8 44 15.667 67.333 23 70c1.33301 1.33301 3.33301 -2 6 -10c2 -7.33301 5.33301 -24 10 -50c13.333 -74 25 -117.667 35 -131
c22.667 26.667 41 78 55 154c15.333 83.333 23 156.333 23 219c0 97.333 -9 146 -27 146c-17.333 0 -44.666 -42.333 -81.999 -127c-37.333 -90 -62.666 -170.667 -75.999 -242c-24 -118.667 -39 -301.667 -45 -549c0 -3.33301 1.33301 -13 4 -29l4 -24
c0 -10.667 -4.33301 -19.167 -13 -25.5s-18 -9.5 -28 -9.5c-43.333 23.333 -65 72.333 -65 147c0 139.333 9 394.666 27 765.999c12.667 234 21.334 368 26.001 402c-102.667 -76.667 -227 -115 -373 -115c-25.333 0 -47.166 8.33301 -65.499 25s-25.833 35 -22.5 55
c29.333 0 67.666 2 114.999 6c42.667 3.33301 104 15.666 184 36.999c77.333 23.333 134 52 170 86c9.33301 90.667 27.333 172 54 244c26.667 66.667 57.334 100 92.001 100c16 0 33.667 -11 53 -33c22 -19.333 33 -38.333 33 -57c0 -80.667 -39.667 -175 -119 -283
c-15.333 -123.333 -27.666 -266.666 -36.999 -429.999c0 -0.666992 -0.666992 -9.16699 -2 -25.5s-2.66602 -35 -3.99902 -56s-2 -36.833 -2 -47.5l4 -4c21.333 96 48 172.167 80 228.5s64 84.5 96 84.5c30.667 0 61.334 -14.333 92.001 -43
c32.667 -26.667 49 -54.667 49 -84c0 -117.333 -12.667 -229 -38 -335c-24.667 -112.667 -54 -181 -88 -205zM597.993 86.002c0 -9.33301 -4 -14 -12 -14c-29.333 0 -52.333 16.167 -69 48.5s-25 76.833 -25 133.5c0 44.667 3.33301 104.667 10 180c8 68 12 107 12 117
c0 22 -5.33301 33 -16 33c-1.33301 2 -4.66602 -2 -9.99902 -12c-24 -44.667 -48.333 -108.334 -73 -191.001c-14.667 -49.333 -22 -85 -22 -107c-2 -8 -4 -25.667 -6 -53c-3.33301 -27.333 -7.33301 -46.5 -12 -57.5s-12.334 -16.5 -23.001 -16.5
c-22 0 -41.5 8.16699 -58.5 24.5s-25.5 31.5 -25.5 45.5c0 10 3.66699 64 11 162c8 80 12 143.333 12 190c0 36 -5.66699 54 -17 54c-8.66699 0 -24.334 -33.667 -47.001 -101c-21.333 -73.333 -35.666 -136 -42.999 -188c-9.33301 -70.667 -14 -167.667 -14 -291
c0 -11.333 -4 -20.666 -12 -27.999s-16.333 -11 -25 -11c-53.333 0 -80 114.667 -80 344c0 8 1.33301 56 4 144c2.66699 90.667 4 139 4 145c0 10.667 -1 35.167 -3 73.5s-3 63.5 -3 75.5c0 37.333 22 56 66 56c16.667 0 31.667 -5 45 -15l6 -6
c6.66699 -15.333 10 -31.666 10 -48.999c0 -42.667 -4.66699 -130.667 -14 -264c47.333 162.667 88.333 244 123 244c25.333 0 49.666 -6.66699 72.999 -20s35 -28 35 -44c0 -5.33301 -1 -30.833 -3 -76.5s-3 -89.834 -3 -132.501c46.667 153.333 88.334 230 125.001 230
c22 0 46 -7.33301 72 -22s39 -29.334 39 -44.001c0 -23.333 -7 -78 -21 -164c-13.333 -82 -20 -149.667 -20 -203c0 -89.333 3.33301 -152.666 10 -189.999z" />
    <glyph glyph-name="e_yo" unicode="&#x435;&#x451;" horiz-adv-x="794" 
d="M754 264c10 9.33301 26.3359 30.6719 49.0029 64.0049c62 83.333 96.667 125 104 125s11 -5.66699 11 -17c0 -8.66699 -12.333 -33.334 -37 -74.001c-57.333 -100.667 -105.333 -169.334 -144 -206.001c-35.333 -33.333 -73.333 -50 -114 -50
c-36 0 -69.167 11.667 -99.5 35s-53.166 55 -68.499 95c-70.667 -122 -147.334 -183 -230.001 -183c-50 0 -93.167 26.333 -129.5 79s-54.5 118 -54.5 196c1.33301 8 3.66602 26.167 6.99902 54.5s7.5 57.333 12.5 87s11.5 56.167 19.5 79.5
c18 57.333 46.667 112.666 86 165.999s73.333 80 102 80c27.333 0 50.333 -8 69 -24s28 -39 28 -69c0 -1.33301 4.5 -6.5 13.5 -15.5s17.833 -21 26.5 -36s13 -29.833 13 -44.5c0 -43.333 -19.333 -94.333 -58 -153c-40.667 -61.333 -77.334 -109.333 -110.001 -144
c-14.667 -21.333 -38 -33 -70 -35c0 -29.333 7.16699 -55.333 21.5 -78s31.833 -34 52.5 -34c60 0 121.333 47 184 141v31c10 82 20.333 143.333 31 184c18 40.667 44 85.667 78 135c30.667 46.667 60 70 88 70c27.333 0 50.166 -6.66699 68.499 -20s27.5 -32 27.5 -56
c0 -0.666992 3.16699 -4.83398 9.5 -12.501s12.5 -17.667 18.5 -30s9 -24.833 9 -37.5c0 -48.667 -26 -104 -78 -166c-51.333 -59.333 -92.333 -96 -123 -110c0 -24.667 7 -45.834 21 -63.501s31.667 -26.5 53 -26.5c33.333 0 71 21 113 63zM217.003 592.006
c-32.667 -75.333 -49.001 -159.333 -49.001 -252c0 -5.33301 1.33301 -8 4 -8c4.66699 0 18.334 16.333 41.001 49c25.333 36 48.666 81.667 69.999 137c24 56.667 36 114 36 172c0 12.667 -2.66699 19 -8 19c-19.333 0 -50.666 -39 -93.999 -117zM705.002 1065.01
c40.667 0 61 -11 61 -33c-14 -109.333 -30.333 -164 -49 -164c-15.333 0 -26.333 5.66699 -33 17c-4 8.66699 -8.16699 30.167 -12.5 64.5s-7.5 55.833 -9.5 64.5c-3.33301 13.333 -5 27 -5 41c2 6.66699 18 10 48 10zM604.002 555.006v-2.00098
c-32.667 -69.333 -49 -135.666 -49 -198.999c0 -5.33301 0.666992 -8 2 -8c4 0.666992 16.333 19 37 55s41 77.667 61 125c20.667 48.667 31 85.667 31 111c0 9.33301 -2.66699 14 -8 14c-14 0 -38.667 -32 -74 -96zM522.002 864.005c-9.33301 74.667 -14 122 -14 142
c2 10.667 28.667 16 80 16c8 0 12 -9.66699 12 -29c0 -30 -1.66699 -56.5 -5 -79.5s-7.5 -40 -12.5 -51s-10.167 -16.5 -15.5 -16.5c-10 0 -25 6 -45 18z" />
    <glyph glyph-name="e_e" unicode="ee" horiz-adv-x="794" 
d="M754 264c10 9.33301 26.3359 30.6719 49.0029 64.0049c62 83.333 96.667 125 104 125s11 -5.66699 11 -17c0 -8.66699 -12.333 -33.334 -37 -74.001c-57.333 -100.667 -105.333 -169.334 -144 -206.001c-35.333 -33.333 -73.333 -50 -114 -50
c-36 0 -69.167 11.667 -99.5 35s-53.166 55 -68.499 95c-70.667 -122 -147.334 -183 -230.001 -183c-50 0 -93.167 26.333 -129.5 79s-54.5 118 -54.5 196c1.33301 8 3.66602 26.167 6.99902 54.5s7.5 57.333 12.5 87s11.5 56.167 19.5 79.5
c18 57.333 46.667 112.666 86 165.999s73.333 80 102 80c27.333 0 50.333 -8 69 -24s28 -39 28 -69c0 -1.33301 4.5 -6.5 13.5 -15.5s17.833 -21 26.5 -36s13 -29.833 13 -44.5c0 -43.333 -19.333 -94.333 -58 -153c-40.667 -61.333 -77.334 -109.333 -110.001 -144
c-14.667 -21.333 -38 -33 -70 -35c0 -29.333 7.16699 -55.333 21.5 -78s31.833 -34 52.5 -34c60 0 121.333 47 184 141v31c10 82 20.333 143.333 31 184c18 40.667 44 85.667 78 135c30.667 46.667 60 70 88 70c27.333 0 50.166 -6.66699 68.499 -20s27.5 -32 27.5 -56
c0 -0.666992 3.16699 -4.83398 9.5 -12.501s12.5 -17.667 18.5 -30s9 -24.833 9 -37.5c0 -48.667 -26 -104 -78 -166c-51.333 -59.333 -92.333 -96 -123 -110c0 -24.667 7 -45.834 21 -63.501s31.667 -26.5 53 -26.5c33.333 0 71 21 113 63zM217.003 592.006
c-32.667 -75.333 -49.001 -159.333 -49.001 -252c0 -5.33301 1.33301 -8 4 -8c4.66699 0 18.334 16.333 41.001 49c25.333 36 48.666 81.667 69.999 137c24 56.667 36 114 36 172c0 12.667 -2.66699 19 -8 19c-19.333 0 -50.666 -39 -93.999 -117zM604.002 555.006v-2.00098
c-32.667 -69.333 -49 -135.666 -49 -198.999c0 -5.33301 0.666992 -8 2 -8c4 0.666992 16.333 19 37 55s41 77.667 61 125c20.667 48.667 31 85.667 31 111c0 9.33301 -2.66699 14 -8 14c-14 0 -38.667 -32 -74 -96z" />
    <glyph glyph-name="afii10066.swsh_afii10066" unicode="&#x431;&#x431;" horiz-adv-x="929" 
d="M127 1319c-24 0 -44.333 -6.16504 -61 -18.498s-25 -27.5 -25 -45.5c0 -20.667 7.33301 -45 22 -73c11.333 -21.333 35.333 -58.333 72 -111c39.333 -52.667 64.666 -88.667 75.999 -108c50 -78.667 87 -142.334 111 -191.001
c27.333 -50.667 50.166 -112.667 68.499 -186s27.5 -148.666 27.5 -225.999c0 -96 -15 -184.667 -45 -266c-29.333 -84.667 -68.333 -127 -117 -127c-136.667 0 -205 127 -205 381c0 97.333 13 184.666 39 261.999c26.667 82 54.667 123 84 123c26 0 46.667 -8.66699 62 -26
c-18.667 46.667 -57 109.334 -115 188.001l-35.5 48.5l-35.5 48.5l-32 44.5l-30.5 44.5l-25 39c-9.66699 15.333 -17.167 28.166 -22.5 38.499s-10.5 21.5 -15.5 33.5s-8.66699 22.833 -11 32.5s-3.5 18.5 -3.5 26.5c0 62 20.833 111.333 62.5 148s95.834 55 162.501 55
c49.333 0 102.666 -7.33301 159.999 -22c48.667 -12.667 95.667 -29.334 141 -50.001c46.667 -19.333 100 -44.333 160 -75c118.667 76 229.334 114 332.001 114c85.333 0 139.333 -18.333 162 -55c0 -41.333 -24 -92 -72 -152c-47.333 -57.333 -104 -86 -170 -86
c-61.333 0 -139.333 16.667 -234 50c-42.667 -34.667 -79.334 -70.334 -110.001 -107.001l74 -90c3.33301 -4 29 -41 77 -111c42 -58.667 71.333 -108.334 88 -149.001c22 -50 41.167 -108.667 57.5 -176s24.5 -131.666 24.5 -192.999c0 -92 -11.333 -161 -34 -207
c22 12.667 53.333 44.334 94 95.001c42 52.667 76 98.334 102 137.001c28 42 45 63 51 63c11.333 0 17 -5.33301 17 -16c0 -30.667 -50 -118.667 -150 -264c-27.333 -39.333 -62 -81 -104 -125c-43.333 -45.333 -70 -68 -80 -68c-12.667 0 -26.667 7 -42 21
s-23.333 27.667 -24 41c-113.333 0 -170 115.333 -170 346c0 86 13 157.667 39 215s56 86 90 86c5.33301 0 22 -5.66699 50 -17c-25.333 68.667 -63 139 -113 211c-51.333 74 -93.666 125.333 -126.999 154c-49.333 23.333 -74 54.666 -74 93.999
c0 14.667 4.5 27.167 13.5 37.5s21.5 15.5 37.5 15.5c2 0 4.83301 -0.333008 8.5 -1s6.5 -1 8.5 -1l67 58c-91.333 36.667 -159.333 61 -204 73c-45.333 12.667 -96.666 19 -153.999 19zM184 326.002c0 -72 6.33301 -138.999 19 -200.999c14 -60 27.667 -90 41 -90
c10 0 19.167 12 27.5 36s15.333 61.667 21 113s8.5 111.666 8.5 180.999c0 138.667 -15.667 237.667 -47 297c-46.667 -46.667 -70 -158.667 -70 -336zM612 334.003c0 -60 5 -114.67 15 -164.003s22.333 -74 37 -74c8.66699 0 17.167 8.16699 25.5 24.5s16 45.333 23 87
s10.5 91.834 10.5 150.501c0 88.667 -15.667 171.334 -47 248.001c-13.333 -13.333 -24.333 -27.666 -33 -42.999c-20.667 -34.667 -31 -111 -31 -229zM930 1343c-57.333 0 -131.667 -31.334 -223 -94.001c56 -26.667 112.667 -43 170 -49
c66.667 22.667 117.667 68.334 153 137.001c-20 4 -53.333 6 -100 6z" />
    <glyph glyph-name="b_b" unicode="bb" horiz-adv-x="884" 
d="M309 487c35.333 -53.333 56.0088 -104.333 62.0088 -153c30 10.667 63.333 40.667 100 90c4 166 28.667 336.667 74 512c16 63.333 43.333 142.666 82 237.999c36.667 86 70 129 100 129c0.666992 0 3.66699 -0.833008 9 -2.5s9.33301 -2.5 12 -2.5
c3.33301 0 11.166 2.16699 23.499 6.5s20.166 6.5 23.499 6.5c66.667 0 100 -53.333 100 -160c0 -4.66699 -2 -19.667 -6 -45c0 -1.33301 -1.33301 -14 -4 -38s-5.33398 -41.333 -8.00098 -52c-2.66699 -32.667 -21.334 -84.667 -56.001 -156
c-31.333 -65.333 -88 -169 -170 -311l-16 -29l-25 -43c-12 -28 -18 -54.667 -18 -80c0 -68.667 8.66699 -157.334 26 -266.001c30.667 -91.333 50.667 -137 60 -137c23.333 0 35 52 35 156c0 26 -2.66699 51 -8 75c-45.333 53.333 -68 111.333 -68 174c0 34 9 63.333 27 88
s40.333 37 67 37c25.333 0 43 -25 53 -75c10.667 -37.333 18.334 -82 23.001 -134l6 -49c33.333 12 60 32.667 80 62l28.5 40l25.5 36l20 27c6.66699 8.66699 12.334 15.167 17.001 19.5s9 6.5 13 6.5c8.66699 0 13 -6.33301 13 -19l-11 -20
c-52 -123.333 -113.333 -200 -184 -230c2.66699 -24 4 -42.333 4 -55c0 -40 -15.667 -85.667 -47 -137c-31.333 -53.333 -68 -80 -110 -80c-56.667 0 -101.834 36.667 -135.501 110s-52.167 174 -55.5 302c-28.667 -32.667 -61.334 -56.667 -98.001 -72
c16 -100 24 -167 24 -201c0 -10 -6 -26.333 -18 -49c-12.667 -24 -19 -38.333 -19 -43c0 -2 0.333008 -4.66699 1 -8s1 -5.33301 1 -6c-0.666992 -14.667 -7.83398 -28.667 -21.501 -42s-24.834 -20 -33.501 -20c-8 0 -20 -6.5 -36 -19.5s-26.333 -19.5 -31 -19.5
c-70 0 -122.667 48.667 -158 146c-35.333 96.667 -53 219.334 -53 368.001c0 190.667 24.333 382 73 574c1.33301 5.33301 13 39.333 35 102c21.333 54.667 33 94.334 35 119.001c0 0.666992 4.83301 14.334 14.5 41.001s14.5 40.334 14.5 41.001
c0 -0.666992 4.83301 9 14.5 29s19.167 41.333 28.5 64s14 36.667 14 42c0 0.666992 11 15 33 43c17.333 22 31 33 41 33l8 -2c5.33301 -1.33301 9.33301 -2 12 -2c3.33301 0 11.166 2 23.499 6s20.166 6 23.499 6c37.333 0 66.166 -15.667 86.499 -47s30.5 -69 30.5 -113
c0 -8.66699 -4.66699 -28.334 -14 -59.001c-2 -8.66699 -4.16699 -17.167 -6.5 -25.5l-5 -17.5c-1 -3.33301 -1.5 -5.33301 -1.5 -6v2c-14 -91.333 -50.667 -202 -110 -332c-31.333 -65.333 -88 -169 -170 -311l-16 -29l-25 -43c-12 -28 -18 -54.667 -18 -80
c0 -107.333 8 -213 24 -317c16 -102.667 43.333 -154 82 -154c26 0 39 52 39 156c0 13.333 -2 34.166 -6 62.499s-8.66699 57.166 -14 86.499s-8.33301 47.333 -9 54c-1.33301 2.66699 -8 13 -20 31s-21.167 34.333 -27.5 49s-9.5 29 -9.5 43c0 20.667 9 40.834 27 60.501
s35.667 29.5 53 29.5c6 0 12.667 -3.66699 20 -11zM184.009 758c-12 -69.333 -18.666 -113.001 -19.999 -131.001c0 -1.33301 0.666992 -2 2 -2c11.333 0 31.666 30 60.999 90c18 38 43.333 96 76 174c25.333 68.667 47.333 151.334 66 248.001c20 102 30 168 30 198
c0 27.333 -3.33301 41 -10 41c-11.333 4 -28.5 -20.5 -51.5 -73.5s-48.833 -129 -77.5 -228s-54 -204.5 -76 -316.5zM627.01 757.999c-13.333 -75.333 -20.335 -119 -21.002 -131c0 -1.33301 0.666992 -2 2 -2c12.667 0 35.334 33.333 68.001 100c34 66 57 120.667 69 164
c33.333 107.333 50 207 50 299c0 27.333 -3.66699 41 -11 41c-41.333 0 -93.666 -157 -156.999 -471z" />
    <glyph glyph-name="m_m" unicode="mm" horiz-adv-x="1406" 
d="M154 827l5.99902 -5.99902c6.66699 -15.333 10 -31.666 10 -48.999c0 -42.667 -4.66699 -130.667 -14 -264c47.333 162.667 88.333 244 123 244c25.333 0 49.666 -6.66699 72.999 -20s35 -28 35 -44c0 -8.66699 -1 -37.334 -3 -86.001s-3 -89.667 -3 -123
c46.667 153.333 88.334 230 125.001 230c21.333 0 45 -7.33301 71 -22s39 -29.334 39 -44.001c0 -22 -7.33301 -98.333 -22 -229c-15.333 -136.667 -23 -232.334 -23 -287.001c0 -108 36.333 -162 109 -162c34.667 0 74.334 11 119.001 33c46 20 79.333 46.667 100 80l4 4
c4 0 8.83301 -2.5 14.5 -7.5s8.5 -9.5 8.5 -13.5c0 -42 -27.333 -86.333 -82 -133c-55.333 -47.333 -108 -71 -158 -71c-56.667 0 -108 25 -154 75c-44.667 50.667 -67 127.334 -67 230.001c0 67.333 6 147 18 239c12.667 97.333 19 147.333 19 150c0 22 -5.66699 33 -17 33
c-1.33301 2 -4.66602 -2 -9.99902 -12c-23.333 -44.667 -47.333 -108.334 -72 -191.001c-14.667 -49.333 -22 -85 -22 -107c-2 -8 -4 -25.667 -6 -53c-3.33301 -27.333 -7.33301 -46.5 -12 -57.5s-12.334 -16.5 -23.001 -16.5c-22 0 -41.5 8.16699 -58.5 24.5
s-25.5 31.5 -25.5 45.5c0 19.333 3.33301 73.333 10 162c8.66699 86.667 13 150 13 190c0 36 -5.66699 54 -17 54c-8.66699 0 -24.334 -33.667 -47.001 -101c-21.333 -73.333 -35.666 -136 -42.999 -188c-9.33301 -70.667 -14 -167.667 -14 -291
c0 -11.333 -4 -20.666 -12 -27.999s-16.333 -11 -25 -11c-53.333 0 -80 114.667 -80 344c0 8 1.33301 56 4 144c2.66699 90.667 4 139 4 145c0 10.667 -1 35.167 -3 73.5s-3 63.5 -3 75.5c0 37.333 22 56 66 56c16.667 0 31.667 -5 45 -15zM849.999 782.001
l5.99414 -3.99902c6.66699 -15.333 10 -28.333 10 -39s-4.66699 -45.334 -14 -104.001c-10 -63.333 -16 -110.333 -18 -141c50.667 155.333 96.334 233 137.001 233c22 0 43.833 -9.66699 65.5 -29s32.5 -40.333 32.5 -63c0 -18 -2 -47.333 -6 -88
c-0.666992 -10.667 -1.33398 -22.334 -2.00098 -35.001l-1.5 -29c-0.333008 -6.66699 -0.5 -11.334 -0.5 -14.001c46.667 136.667 88.334 205 125.001 205c22.667 0 43.667 -7.83301 63 -23.5s29 -35.167 29 -58.5c0 -40 -4 -98 -12 -174
c-8.66699 -82.667 -13 -132 -13 -148c0 -30 10.333 -45 31 -45c22.667 0 52.667 24.667 90 74l35 51c46.667 71.333 75.334 107 86.001 107s16 -6.33301 16 -19c0 -10.667 -34 -72.667 -102 -186c-26.667 -45.333 -50.667 -76.5 -72 -93.5s-43.666 -25.5 -66.999 -25.5
c-31.333 0 -58 12.833 -80 38.5s-33 60.5 -33 104.5c0 33.333 4 81.333 12 144c8.66699 68 13 105.333 13 112c0 19.333 -5.66699 29 -17 29c-2.66699 3.33301 -12.5 -13 -29.5 -49s-33.667 -77.5 -50 -124.5s-24.5 -81.167 -24.5 -102.5c-2 -6 -4 -21.667 -6 -47
c-3.33301 -26 -7.16602 -43.833 -11.499 -53.5s-12.166 -14.5 -23.499 -14.5c-22 0 -41.5 7 -58.5 21s-25.5 27.333 -25.5 40c0 18.667 3.33301 68 10 148c8 72 12 128.667 12 170c0 44.667 -5.33301 67 -16 67c-19.333 0 -44.666 -66.667 -75.999 -200
c-28.667 -131.333 -43 -227.666 -43 -288.999c0 -10.667 -3.83301 -19.167 -11.5 -25.5s-16.167 -9.5 -25.5 -9.5c-17.333 0 -32.5 10.833 -45.5 32.5s-19.5 49.834 -19.5 84.501c0 257.333 3.33301 421 10 491c8 64.667 33.333 97 76 97c16.667 0 31.667 -5 45 -15z" />
    <glyph glyph-name="n_n" unicode="nn" horiz-adv-x="915" 
d="M760 723c22.667 0 44.334 -7.66895 65.001 -23.002s31 -32.333 31 -51c0 -36.667 -7.33301 -94.667 -22 -174c-14 -76 -21 -141.333 -21 -196c0 -42.667 2 -73 6 -91c20.667 23.333 44.667 55.666 72 96.999c69.333 100.667 111 156.667 125 168c3.33301 2.66699 6 4 8 4
c9.33301 0 14 -6.33301 14 -19c0 -4 -0.666992 -6.66699 -2 -8l-88 -162c-66 -118.667 -109.667 -178 -131 -178c-30 0 -53.167 19.5 -69.5 58.5s-24.5 89.167 -24.5 150.5c0 23.333 2 66.333 6 129c5.33301 56 8 98.333 8 127c0 2.66699 -1.33301 4 -4 4
c-18.667 0 -42.334 -49.667 -71.001 -149c-29.333 -99.333 -44 -185.333 -44 -258c0 -1.33301 0.5 -9.16602 1.5 -23.499s1.5 -24.5 1.5 -30.5c0 -46 -9 -69 -27 -69c-56 0 -84 75.667 -84 227v109c-58.667 -210.667 -112.667 -316 -162 -316c-62.667 0 -94 59.333 -94 178
c0 32.667 2.66699 90 8 172s8 139.333 8 172c0 2.66699 -1.33301 4 -4 4c-16.667 0 -40.334 -62 -71.001 -186c-30 -119.333 -45 -219 -45 -299c0 -2.66699 0.333008 -17.167 1 -43.5s1 -42.5 1 -48.5c0 -48 -9 -72 -27 -72c-56 0 -84 87.333 -84 262
c0 34.667 0.666992 66.334 2 95.001c2.66699 57.333 4 86.666 4 87.999c0 6 -1 21.667 -3 47s-3 41 -3 47c0 40 0.666992 79 2 117c1.33301 39.333 2 78 2 116c-2.66699 38.667 -4 82.334 -4 131.001c0 37.333 9.66699 56 29 56c41.333 0 70.333 -6.33301 87 -19
s25 -33.667 25 -63c0 -19.333 -2 -50.666 -6 -93.999c-2 -42 -6 -94.667 -12 -158l-12 -135c66 225.333 112.333 338 139 338c69.333 0 104 -13.667 104 -41c0 -37.333 -8.66699 -115.333 -26 -234c-16.667 -128 -25 -218.667 -25 -272c0 -22 2 -42 6 -60
c22.667 24.667 52 80 88 166c30.667 74 56.667 148 78 222l14 223c1.33301 21.333 4.5 35.833 9.5 43.5s15.5 11.5 31.5 11.5c49.333 0 74 -30 74 -90c0 -17.333 -3.33301 -61 -10 -131c-1.33301 -15.333 -3.16602 -33.833 -5.49902 -55.5s-4.16602 -39.5 -5.49902 -53.5
s-2.33301 -26.333 -3 -37c55.333 184.667 101.666 277 138.999 277z" />
    <glyph glyph-name="p_p" unicode="pp" horiz-adv-x="1044" 
d="M772 1165c32.667 0 49.0068 -32.668 49.0068 -98.001c0 -3.33301 -2 -30 -6 -80c-1.33301 -16.667 -7.33301 -45.334 -18 -86.001c-0.666992 -5.33301 -2.66699 -14.333 -6 -27s-7.33301 -26.667 -12 -42s-7.66699 -25.666 -9 -30.999
c-1.33301 -7.33301 -7.33301 -27.333 -18 -60l-19 -61c-0.666992 -3.33301 -1.33398 -10.5 -2.00098 -21.5s-1.83398 -28 -3.50098 -51s-3.16699 -45.167 -4.5 -66.5c-4 -80 -6 -125 -6 -135s2 -15 6 -15c47.333 165.333 82 263.666 104 294.999c22.667 34 50.667 51 84 51
c30.667 0 57.167 -11.833 79.5 -35.5s33.5 -54.834 33.5 -93.501c0 -119.333 -31.333 -239.333 -94 -360c27.333 7.33301 52.166 19.666 74.499 36.999s40.5 35.5 54.5 54.5s26.5 37.5 37.5 55.5s21.333 32.833 31 44.5s18.834 17.5 27.501 17.5c8 0 12 -6.33301 12 -19
c0 -5.33301 -26.667 -54.333 -80 -147c-18 -29.333 -44.5 -54.5 -79.5 -75.5s-68.5 -34.167 -100.5 -39.5c-30.667 -46.667 -65.334 -70 -104.001 -70c-48 0 -72 22.667 -72 68c0 19.333 12 36.5 36 51.5s51 23.167 81 24.5c46.667 128 70 237.333 70 328
c0 32.667 -10.333 49 -31 49c-7.33301 0 -21 -21.333 -41 -64c-22 -48 -44.667 -103.333 -68 -166c-24.667 -72 -42.334 -134 -53.001 -186c-19.333 -95.333 -30.333 -187.666 -33 -276.999l-4 -147c0 -70.667 -0.666992 -115 -2 -133c0 -3.33301 0.333008 -8.33301 1 -15
l1 -10c0 -23.333 -11 -35 -33 -35c-36 15.333 -55.667 24.333 -59 27c-6 3.33301 -11.667 10.833 -17 22.5s-8 25.5 -8 41.5c0 3.33301 0.666992 11.333 2 24s2 20.334 2 23.001c0 16 -0.666992 35.667 -2 59s-2 43 -2 59c0 9.33301 2.5 34.333 7.5 75s7.5 71 7.5 91
c0 21.333 2.66699 77.333 8 168c8 134 13.333 214.667 16 242c0 2.66699 0.333008 8.83398 1 18.501s1 15.834 1 18.501c-88 -272 -156 -408 -204 -408c-24 0 -46.5 10.833 -67.5 32.5s-31.5 45.834 -31.5 72.501c0 48.667 12.333 134.667 37 258
c26 120.667 39 194.334 39 221.001c0 31.333 -6 47 -18 47c-16.667 0 -45.334 -57.333 -86.001 -172c-54.667 -152.667 -88.334 -279 -101.001 -379c-13.333 -104 -20 -239 -20 -405c0 -2.66699 0.5 -22.167 1.5 -58.5s1.16699 -60.5 0.5 -72.5
c0 -71.333 -16.333 -107 -49 -107c-32 14.667 -52 44 -60 88c-8 45.333 -12 131.333 -12 258c0 157.333 10.333 353.333 31 588c12 162.667 20.667 292.334 26 389.001c10.667 158 21 288.333 31 391c4 48 21.667 89.667 53 125c30 34 59.333 51 88 51
c31.333 0 47 -8 47 -24c0 -2.66699 -3.16699 -11.5 -9.5 -26.5s-14 -36.667 -23 -65s-16.5 -57.833 -22.5 -88.5c-26.667 -132 -47 -277.667 -61 -437c-15.333 -168.667 -23 -273 -23 -313c0 -9.33301 2 -14 6 -14c47.333 167.333 78 266.333 92 297
c27.333 61.333 63.666 92 108.999 92c28 0 53.833 -13.667 77.5 -41s35.5 -56 35.5 -86c0 -64 -15 -158.333 -45 -283c-31.333 -131.333 -48 -205.666 -50 -222.999c26 20.667 62.333 78.667 109 174c48.667 99.333 85.667 184.666 111 255.999c0 92.667 4 178 12 256
c4.66699 32 8.66699 57.667 12 77s8 42.666 14 69.999s12.167 49.166 18.5 65.499s14 32.666 23 48.999s19.333 28.333 31 36s24.5 11.5 38.5 11.5z" />
    <glyph glyph-name="i_t" unicode="it" horiz-adv-x="618" 
d="M279 991c0 -18.667 -5.66504 -40.999 -16.998 -66.999c56 6 112 21.667 168 47l19 145c16 90 28.333 141.667 37 155c3.33301 4 6.66602 6.33301 9.99902 7c18.667 0 35.667 -13 51 -39c17.333 -26 26 -48.667 26 -68c0 -4.66699 -1.16699 -17.5 -3.5 -38.5l-8 -72
l-6.5 -59.5l68 19l90 24c62.667 18 128 27 196 27c18 0 35.833 -6.33301 53.5 -19s26.5 -23.334 26.5 -32.001c0 -12.667 -8.66699 -19 -26 -19c-78 0 -162.667 -9.33301 -254 -28c-89.333 -18 -147.333 -35 -174 -51c-5.33301 -44 -17.666 -124 -36.999 -240
c-37.333 -238.667 -56 -408 -56 -508c0 -44 5 -72 15 -84c20 18 50.667 57.667 92 119l113 170c36 52 58.333 78 67 78c9.33301 0 14 -7 14 -21c0 -26 -61.333 -133.667 -184 -323c-54.667 -87.333 -93.667 -131 -117 -131c-30 0 -54.5 17.333 -73.5 52
s-28.5 82.667 -28.5 144c0 48.667 1.33301 91 4 127c-80 -144.667 -143.333 -217 -190 -217c-36 0 -63.167 14.167 -81.5 42.5s-27.5 77.833 -27.5 148.5c0 54 9.66699 137 29 249c20 105.333 43.667 158 71 158c48 0 72 -26 72 -78c0 -4.66699 -1.33301 -16.334 -4 -35.001
c-0.666992 -4 -8.33398 -40.667 -23.001 -110c-22.667 -90.667 -34 -169.334 -34 -236.001c0 -27.333 7.33301 -41 22 -41c21.333 0 53.333 33.667 96 101c45.333 68 72.666 124.667 81.999 170c13.333 76.667 23.666 152.334 30.999 227.001c0 0.666992 0.333008 4 1 10
l3.5 30.5l5.5 45.5c7.33301 67.333 11 105 11 113l-5 10c-4 0 -15.167 -2.16699 -33.5 -6.5l-64 -15c-24.333 -5.66699 -43.5 -9.5 -57.5 -11.5c-27.333 -23.333 -43 -35 -47 -35c-15.333 0 -28.166 11.833 -38.499 35.5s-15.5 52.167 -15.5 85.5c0 64 18.667 96 56 96
c18 0 34.5 -4.66699 49.5 -14s23.833 -21.666 26.5 -36.999z" />
    <glyph glyph-name="afii10076_afii10076" unicode="&#x43a;&#x43a;" horiz-adv-x="1093" 
d="M709 319l27.9961 86.998l47 129c17.333 46 35.333 88.5 54 127.5s39.5 73.833 62.5 104.5s43.167 44 60.5 40c32 0 59.667 -10.833 83 -32.5s35 -44.167 35 -67.5c0 -42 -10 -87.333 -30 -136c-18 -48.667 -36 -73 -54 -73c-2.66699 0 -8 26.667 -16 80
c-6 54 -15.667 81 -29 81c-18.667 0 -48.667 -40 -90 -120c-40.667 -79.333 -61 -132 -61 -158c0 -1.33301 2.16699 -3 6.5 -5l17.5 -8.5c7.33301 -3.66699 13.666 -7.5 18.999 -11.5c8.66699 -6.66699 17.334 -18.667 26.001 -36s16.5 -35.833 23.5 -55.5l20.5 -58
c6.66699 -19 13.167 -34.167 19.5 -45.5s12.5 -16 18.5 -14c20 0 64.333 51.333 133 154c70 104 109.667 156 119 156c10 0 15 -6.33301 15 -19c0 -1.33301 -25.333 -47.666 -76 -138.999l-27 -49c-23.333 -42.667 -43.666 -77.667 -60.999 -105
c-48.667 -81.333 -92.334 -123 -131.001 -125c-24.667 0 -46.167 14.333 -64.5 43s-32 60.167 -41 94.5s-19.333 65.833 -31 94.5s-23.5 43 -35.5 43c-18.667 0 -33 -55.333 -43 -166s-23 -166 -39 -166c-56 0 -84 60 -84 180c0 246.667 6.66699 460.334 20 641.001
c-27.333 -12 -84 -72.667 -170 -182s-129 -185 -129 -227l19 -6c15.333 -5.33301 32 -16.5 50 -33.5s32.667 -37.5 44 -61.5l74 -168l55 -131c23.333 -50.667 45.5 -89.167 66.5 -115.5s41.833 -36.833 62.5 -31.5c16 0 37.667 19.667 65 59
c26.667 38.667 43.334 58 50.001 58c12 0 18 -9.66699 18 -29c0 -23.333 -15.667 -56.666 -47 -99.999c-32 -44 -67 -66 -105 -66c-58 0 -106.333 21.333 -145 64c-36 38 -82.333 123.333 -139 256c-35.333 80.667 -65.166 136.667 -89.499 168s-49.166 47 -74.499 47
c-12 0 -19 -58 -21 -174c-2 -114.667 -14 -172 -36 -172c-56 0 -84 60 -84 180c0 254.667 7.33301 491.334 22 710.001c0 27.333 19 41 57 41c17.333 0 36 -9.66699 56 -29s30 -39 30 -59c0 -22 -4.66699 -60.667 -14 -116l-14 -113c-6.66699 -65.333 -10 -118 -10 -158
c0 -28.667 0.666992 -46.334 2 -53.001c43.333 124 103.333 244 180 360c39.333 60.667 81.5 108.667 126.5 144s88.833 53 131.5 53c32 0 59.833 -10.833 83.5 -32.5s35.5 -44.167 35.5 -67.5c0 -24 -5 -57.667 -15 -101l-18 -104
c-5.33301 -40.667 -8.66602 -73.334 -9.99902 -98.001c-1.33301 -45.333 -2 -104.333 -2 -177z" />
    <glyph glyph-name="afii10079_afii10079" unicode="&#x43d;&#x43d;" horiz-adv-x="1073" 
d="M997 223c14.667 0 45.6699 38.333 93.0029 115c49.333 78 80.666 117 93.999 117c8 0 12 -5.66699 12 -17c-14 -31.333 -33 -69.333 -57 -114c-12.667 -28 -31.334 -61.667 -56.001 -101c-19.333 -31.333 -39 -58.166 -59 -80.499s-36.333 -33.5 -49 -33.5
c-31.333 0 -56.833 24 -76.5 72s-31.167 111.333 -34.5 190c-22.667 -36 -56 -63.333 -100 -82c5.33301 -96.667 8 -152 8 -166c0 -20.667 -4 -38.834 -12 -54.501s-18.333 -23.5 -31 -23.5c-22 0 -41.5 6.33301 -58.5 19s-25.5 28.334 -25.5 47.001
c0 1.33301 0.833008 10 2.5 26s3.33398 36 5.00098 60s2.5 47 2.5 69c-24.667 10 -37 25.667 -37 47c0 32.667 12.333 54 37 64c0 48.667 -2 97.667 -6 147c-25.333 -91.333 -58.666 -186 -99.999 -284c-39.333 -90.667 -72 -136 -98 -136c-44 0 -75.167 29.333 -93.5 88
s-27.5 149 -27.5 271c-29.333 -45.333 -64.333 -72 -105 -80l4 -160c2.66699 -104 4 -158.667 4 -164c0 -50 -10 -75 -30 -75c-17.333 0 -37.833 6.5 -61.5 19.5s-35.5 25.5 -35.5 37.5c0 1.33301 0.333008 7.16602 1 17.499s1.5 26.833 2.5 49.5s2.16699 46.667 3.5 72
c5.33301 78 8 141 8 189c-22.667 4 -42 12.5 -58 25.5s-24 27.5 -24 43.5c0 14 4 27.167 12 39.5s17.667 18.5 29 18.5c2.66699 0 9.66699 -2.83301 21 -8.5s18 -8.5 20 -8.5c0 148.667 -9 252.667 -27 312c-2 2 -5.16699 4.83301 -9.5 8.5s-7.5 6.66699 -9.5 9
s-3 5.16602 -3 8.49902c0 26 23.667 39 71 39c21.333 0 41 -7 59 -21s27 -29.667 27 -47c0 -61.333 -0.666992 -118 -2 -170s-2 -97 -2 -135c0 -12 2.66699 -18 8 -18c9.33301 0 24.166 7.16699 44.499 21.5s37.166 29.5 50.499 45.5c0 2 -0.333008 21.833 -1 59.5
s-1 67.834 -1 90.501c0 75.333 17 113 51 113c16 0 34.333 -7 55 -21s31 -27 31 -39c0 -6.66699 -3.33301 -34 -10 -82c-1.33301 -10 -4 -27 -8 -51s-6.33301 -41 -7 -51c-5.33301 -52.667 -8 -127.667 -8 -225c0 -50.667 7.66699 -76 23 -76
c13.333 0 42.666 48.333 87.999 145c44 94 75.333 181.333 94 262c-4 42.667 -6 74.334 -6 95.001c0 12.667 4.83301 23 14.5 31s21.167 12 34.5 12c21.333 0 41 -7 59 -21s27 -29.667 27 -47c0 -64 -0.666992 -124 -2 -180s-2 -104.667 -2 -146c0 -12 2.66699 -18 8 -18
c9.33301 0 24.5 7.5 45.5 22.5s37.167 30.167 48.5 45.5c0 1.33301 -0.333008 18.166 -1 50.499s-1 55.5 -1 69.5c0 128.667 18.333 193 55 193c16 0 34.333 -6.83301 55 -20.5s31 -26.5 31 -38.5c0 -7.33301 -3.5 -30 -10.5 -68s-11.5 -66.667 -13.5 -86
c-8 -88 -12 -147.333 -12 -178c0 -100 10.667 -150 32 -150z" />
    <glyph glyph-name="c_c" unicode="cc" horiz-adv-x="798" 
d="M797 309c66.667 97.333 104.004 146.001 112.004 146.001c8.66699 0 13 -6.33301 13 -19c0 -6.66699 -37 -76.334 -111 -209.001c-58 -107.333 -118.667 -161 -182 -161c-74 0 -126.667 34 -158 102l-18 -59c-18 -48 -42.667 -86.333 -74 -115s-66.333 -43 -105 -43
c-68.667 0 -122.667 25.5 -162 76.5s-59 129.167 -59 234.5c0 82 15 166.667 45 254c30.667 88 65.5 161.167 104.5 219.5s71.167 87.5 96.5 87.5c11.333 0 25.666 -3 42.999 -9s28.333 -13 33 -21c10 52.667 25 79 45 79c16 0 31.5 -3 46.5 -9s22.5 -14.333 22.5 -25
c0 -44 -13.333 -108.333 -40 -193c-27.333 -86 -50.666 -129 -69.999 -129c-11.333 0 -17 78 -17 234c-50.667 -46.667 -95.667 -118.334 -135 -215.001c-38 -93.333 -57 -185.666 -57 -276.999c0 -74 10.333 -131 31 -171s49.334 -60 86.001 -60
c31.333 0 61.666 18 90.999 54s53.666 85.333 72.999 148c-0.666992 6 -1.33398 13.5 -2.00098 22.5s-1.33398 16.5 -2.00098 22.5s-1 11 -1 15c0 132 45.333 272 136 420c6.66699 10.667 16.667 16 30 16c9.33301 0 26.666 -9 51.999 -27c16 53.333 31 80 45 80
c8.66699 0 19 -3.33301 31 -10s18 -12.667 18 -18c0 -33.333 -10.333 -87.333 -31 -162c-18 -71.333 -35 -107 -51 -107c-8 0 -12 55.333 -12 166c-24 -28 -48 -77.667 -72 -149c-24.667 -73.333 -37 -142.333 -37 -207c0 -34 8 -63 24 -87s34.667 -36 56 -36
c42 0 96 47 162 141z" />
    <glyph glyph-name="afii10066_afii10082" unicode="&#x431;&#x440;" horiz-adv-x="950" 
d="M80 1300c-11.333 0 -20.668 -4.50195 -28.001 -13.502s-11 -19.5 -11 -31.5c0 -28 11 -62.667 33 -104l32 -55c10.667 -14.667 26 -38.667 46 -72l47 -72c71.333 -115.333 122.333 -213 153 -293c30 -75.333 45 -174.333 45 -297c0 -96 -11.667 -186.667 -35 -272
c-22.667 -82 -58 -123 -106 -123c-136.667 0 -205 127 -205 381c0 97.333 13 184.666 39 261.999c26.667 82 54.667 123 84 123c26 0 46.667 -8.66699 62 -26c-18.667 50 -71.334 141.333 -158.001 274c-84.667 132 -127 222 -127 270c0 126 35.333 189 106 189
c58.667 0 147 -15.667 265 -47c120 -31.333 195 -47 225 -47c36 0 62 6 78 18c35.333 98 67.333 147 96 147c13.333 0 26.5 -7.66699 39.5 -23s19.5 -32.666 19.5 -51.999c0 -45.333 -34 -86.333 -102 -123c-22 -150.667 -39 -303.667 -51 -459
c-15.333 -199.333 -23 -335.333 -23 -408c0 -9.33301 2 -14 6 -14c21.333 96 48 172.167 80 228.5s64 84.5 96 84.5c31.333 0 62.333 -14.333 93 -43c32.667 -26.667 49 -54.667 49 -84c0 -110 -12.333 -214.333 -37 -313c-22.667 -98 -52 -160 -88 -186
c-22 -15.333 -52 -23 -90 -23c-15.333 0 -29.5 6.16699 -42.5 18.5s-19.5 24.833 -19.5 37.5c0 36.667 2.66699 74 8 112c6 44.667 12.333 68 19 70c1.33301 1.33301 3.33301 -2 6 -10c2 -7.33301 5.33301 -24 10 -50c13.333 -74 25 -117.667 35 -131
c23.333 26.667 41.833 71.167 55.5 133.5s20.5 128.5 20.5 198.5c0 97.333 -9 146 -27 146c-17.333 0 -44.666 -42.333 -81.999 -127c-36.667 -87.333 -61.667 -168 -75 -242c-24.667 -122.667 -40 -305.667 -46 -549c0 -3.33301 1.66699 -13 5 -29l4 -24
c0 -10.667 -4.33301 -19.167 -13 -25.5s-18 -9.5 -28 -9.5c-44 23.333 -66 72.333 -66 147c0 136.667 7 351.334 21 644.001c20 430.667 52 721.334 96 872.001c-27.333 -9.33301 -56.666 -14 -87.999 -14c-38 0 -107 6 -207 18s-173 18 -219 18zM183.998 325.998
c0 -72 6.33301 -138.999 19 -200.999c14 -60 27.667 -90 41 -90c10 0 19.167 12 27.5 36s15.333 61.667 21 113s8.5 111.666 8.5 180.999c0 138.667 -15.667 237.667 -47 297c-46.667 -46.667 -70 -158.667 -70 -336z" />
    <glyph glyph-name="r_r" unicode="rr" horiz-adv-x="811" 
d="M55 385c32 74.667 48.333 112.333 49 113c-22.667 18 -34 43 -34 75c0 61.333 11.333 121 34 179c24.667 58 49.334 90 74.001 96c14 0 28.5 -4.66699 43.5 -14s22.5 -20.333 22.5 -33c-7.33301 -43.333 -25.333 -111.666 -54 -204.999c0 -4 3.66699 -6 11 -6
c11.333 0 26.333 10.333 45 31c16.667 21.333 31 32 43 32c9.33301 0 21.166 -5 35.499 -15s21.5 -19.333 21.5 -28c0 -3.33301 -17.667 -66 -53 -188c-34 -115.333 -51 -196.666 -51 -243.999c0 -24.667 6.66699 -37 20 -37c40 0 111.667 97 215 291
c-23.333 14 -35 38.667 -35 74c2 47.333 15 95.666 39 144.999c24 48.667 46 74 66 76c14 0 28 -4.66699 42 -14s21 -20.333 21 -33c-35.333 -80.667 -53 -135.334 -53 -164.001c0 -12 4 -18 12 -18c19.333 0 37.333 10.667 54 32c18 23.333 31 35 39 35
c9.33301 0 21.166 -5 35.499 -15s21.5 -19.333 21.5 -28c0 -7.33301 -11.667 -49.666 -35 -126.999c-22.667 -75.333 -37 -134 -43 -176v-16c0 -23.333 7 -35 21 -35c22 0 52 24 90 72c31.333 38 66 85.667 104 143c33.333 49.333 54 74 62 74c10.667 0 16 -6.33301 16 -19
c0 -9.33301 -33.333 -69.333 -100 -180c-74 -122.667 -139 -184 -195 -184c-29.333 0 -53 11.167 -71 33.5s-27 51.5 -27 87.5c0 38 22.333 124 67 258c-28 -18.667 -56.667 -29 -86 -31c-46.667 -108.667 -89 -194.667 -127 -258c-52 -94 -103 -141 -153 -141
c-26.667 0 -50.167 13 -70.5 39s-30.5 59.333 -30.5 100c0 83.333 29.333 207.666 88 372.999c-32.667 -26.667 -57.667 -41 -75 -43c-43.333 -84.667 -68.666 -127 -75.999 -127c-13.333 0 -21 6.66699 -23 20z" />
    <glyph glyph-name=".notdef" horiz-adv-x="1261" 
d="M197 725l10.002 13.9941c-68.667 0 -103 13 -103 39c0 22 41.667 37 125 45s125 16.333 125 25c-2.66699 2.66699 -4 6.66699 -4 12c0 12.667 5.5 34.667 16.5 66s16.5 49 16.5 53c-2.66699 10.667 -4 30.334 -4 59.001c0 73.333 24.167 133.333 72.5 180
s109.5 70 183.5 70c45.333 0 84.666 -15 117.999 -45s50 -64 50 -102c0 -18 -10.667 -38.333 -32 -61s-46.333 -43.334 -75 -62.001c-39.333 -23.333 -124 -47.333 -254 -72c-24 -17.333 -36 -46.666 -36 -87.999c0 -2.66699 1.33301 -4 4 -4c68 23.333 111 39 129 47
c14 7.33301 46 19.666 96 36.999c51.333 20 90.333 39 117 57c2 0.666992 4.5 2 7.5 4l14.5 9.5c6.66699 4.33301 13 8.16602 19 11.499c47.333 29.333 74.333 51 81 65c0 2.66699 -0.666992 7.33398 -2 14.001s-2 11 -2 13c0 6 4.83301 18.667 14.5 38s14.5 32 14.5 38
c2 102.667 6 166.667 12 192c0 0.666992 0.666992 2.83398 2 6.50098s2 5.83398 2 6.50098l-2 2v4c0 4 1.66699 6 5 6c6.66699 0 10 -24.667 10 -74c0 -4.66699 -0.666992 -17.334 -2 -38.001s-2 -36.667 -2 -48c0 -25.333 3.5 -48 10.5 -68s14.833 -30 23.5 -30
c6 0 24 13 54 39s47.667 39 53 39c4 0 6 -4.33301 6 -13c0 -2 -0.666992 -6.83301 -2 -14.5s-2 -12.834 -2 -15.501l90 53c1.33301 0 2 -4.66699 2 -14c0 -18.667 -15 -40 -45 -64l-110 -82c-52.667 -38 -83.667 -61.667 -93 -71c-7.33301 -6.66699 -13.333 -11 -18 -13
c-1.33301 0 -2 -1.33301 -2 -4c4 -8 3.33301 -20.333 -2 -37c0 -11.333 41 -35.666 123 -72.999l39 -17l6 -4l10 -8l6 -4c-1.33301 -1.33301 -6.66602 -2 -15.999 -2c-18 0 -48.667 8.66699 -92 26l-54 27l-39 20l-24 -6c-6 -2 -11.333 -3.66699 -16 -5
s-9.83398 -3 -15.501 -5l-14 -5c-3.66699 -1.33301 -7.33398 -2.5 -11.001 -3.5s-6.16699 -1.83301 -7.5 -2.5l-2 -1c-2.66699 0 -6.83398 0.333008 -12.501 1s-9.5 1 -11.5 1c-9.33301 0 -17.5 -3.5 -24.5 -10.5s-10.5 -15.167 -10.5 -24.5
c0 -43.333 6.33301 -73.333 19 -90s37 -25 73 -25c55.333 0 118.333 -40.333 189 -121c69.333 -79.333 104 -154.333 104 -225c0 -30.667 -6 -66 -18 -106l-3 -11c0 -3.33301 8.66699 -7.33301 26 -12l26 -6c0 -9.33301 -8.33301 -14 -25 -14
c-9.33301 0 -21.666 3.33301 -36.999 10c-8 0 -12 -3.33301 -12 -10c0 -2 6.33301 -9.33301 19 -22c8.66699 -10.667 6.33398 -16.334 -6.99902 -17.001c-6.66699 0 -13.834 1.33301 -21.501 4s-13.834 5.33398 -18.501 8.00098l-7 4h-6c-9.33301 -2 -14 -6 -14 -12
c0 -10.667 6 -21 18 -31c0 -6.66699 -3.33301 -10 -10 -10c-14.667 0 -29.334 7.16699 -44.001 21.5s-24 21.5 -28 21.5c-53.333 0 -100.333 25.333 -141 76c-38 48 -65.667 98.5 -83 151.5s-26 100.833 -26 143.5c0 43.333 11.667 89 35 137
c0 2.66699 0.666992 4.66699 2 6c0 14.667 -7.5 29.334 -22.5 44.001s-30.5 26.667 -46.5 36l-7 4l-2 2l-4 4l-10 -20c-6.66699 -15.333 -17 -23 -31 -23c-13.333 -6.66699 -29 -53 -47 -139c0 -12 5.66699 -23.667 17 -35c21.333 -23.333 32 -59.666 32 -108.999
c0 -76.667 -10.667 -146.667 -32 -210c-20 -68 -56.333 -114 -109 -138c-25.333 -6 -39 -12.667 -41 -20c-2.66699 -8 -4 -15.667 -4 -23c0 -5.33301 -2 -8 -6 -8s-8.66699 2.66699 -14 8l-13 11l-9 -21c-6 -14.667 -11 -22 -15 -22c-7.33301 0 -13.333 4.66699 -18 14
s-7 17.333 -7 24l3 6c2 4 3 7 3 9c0 5.33301 -1.33301 8 -4 8c-1.33301 0 -8 -9.16699 -20 -27.5s-22.333 -27.5 -31 -27.5c-12.667 0 -19 6.66699 -19 20c0 2.66699 1.83301 8.33398 5.5 17.001s5.5 14.667 5.5 18c0 0.666992 -0.333008 2.33398 -1 5.00098
s-1 4.33398 -1 5.00098c0 4 2.16699 7.83301 6.5 11.5s8.83301 6.16699 13.5 7.5l6 2c0 4 -6.66699 17 -20 39c-12.667 24 -19 43.667 -19 59c0 90.667 30 176.667 90 258c60.667 82 108 123 142 123c2.66699 0 6.66699 -1 12 -3l8 -3l8 28
c2.66699 10 6.33398 22.167 11.001 36.5l11.5 35c3 9 4.5 13.833 4.5 14.5c8 16 12 29 12 39c0 8.66699 -2.66699 13 -8 13c-2.66699 0 -10 -3.66699 -22 -11c-48 -22.667 -124.667 -50.667 -230 -84c-2 0 -5 -1 -9 -3s-6.33301 -3 -7 -3c-1.33301 1.33301 -3.33301 2 -6 2
c-17.333 -13.333 -44.666 -20 -81.999 -20c-6.66699 0 -10.667 0.666992 -12 2c0 2.66699 3.66699 9.66699 11 21s11 17.333 11 18l-10 2c-6.66699 2 -10 3.33301 -10 4zM1044 394.994c0 66 -27.002 134.334 -81.002 205.001c-53.333 72.667 -105.333 109 -156 109
c-45.333 0 -68 -37.667 -68 -113c0 -82 26.667 -161.333 80 -238c54.667 -73.333 110 -110 166 -110c20.667 0 33 9.33301 37 28c-3.33301 0.666992 -9.16602 1.16699 -17.499 1.5s-16 0.833008 -23 1.5s-11.833 2 -14.5 4c-52.667 14 -93.667 47.333 -123 100
c-10.667 21.333 -19 47.333 -25 78c-6.66699 42 -10 93 -10 153c0 2.66699 0.666992 4 2 4c10.667 0 20.334 -10.167 29.001 -30.5s16.334 -45.833 23.001 -76.5s10.334 -47.334 11.001 -50.001c12 -42 28.5 -75.833 49.5 -101.5s51.167 -46.5 90.5 -62.5
c10.667 0 19.167 6.33301 25.5 19s9.5 27.334 9.5 44.001c0 2 -0.333008 4.66699 -1 8s-1.33398 7.66602 -2.00098 12.999s-1.33398 10 -2.00098 14zM412 1010c1.33301 0 20.999 17 58.999 51l64 57c46 36.667 100.333 70.334 163 101.001l2 -2
c-8.66699 -17.333 -53.667 -56.333 -135 -117c-1.33301 -0.666992 -5.5 -3.5 -12.5 -8.5l-24.5 -18c-9.33301 -7 -17.333 -12.5 -24 -16.5c-46.667 -34.667 -70 -58.667 -70 -72l2 -4c40.667 0 102.334 17.667 185.001 53c81.333 36.667 122 77.667 122 123
c0 17.333 -6.33301 34 -19 50s-28.667 24 -48 24c-4.66699 0 -16.167 3 -34.5 9s-33.5 9 -45.5 9c-45.333 0 -83 -15 -113 -45c-47.333 -48.667 -71 -113.334 -71 -194.001zM546.999 431.995l2.00098 6.00195c0 1.33301 2 10.666 6 27.999s6 33.333 6 48
c0 52 -12.333 78 -37 78c-42.667 0 -87.667 -40.333 -135 -121c-46.667 -79.333 -70 -157 -70 -233c0 -30 9 -45 27 -45c34.667 0 73 39.333 115 118c44.667 79.333 67 128.666 67 147.999v2c8.66699 0 13.667 -4.83301 15 -14.5s2.66602 -14.5 3.99902 -14.5zM360 153.997
l23 -8.99902c56 29.333 102.333 91.666 139 186.999c0 4 -1.33301 6 -4 6c-48.667 -97.333 -91 -153.333 -127 -168c-20.667 -6 -31 -11.333 -31 -16z" />
    <glyph glyph-name="space" unicode=" " horiz-adv-x="307" 
 />
    <glyph glyph-name="exclam" unicode="!" horiz-adv-x="471" 
d="M406 1090l-5 0.00390625l-4 2c-9.33301 0 -14 -5.66699 -14 -17c0 -2.66699 1.33301 -4 4 -4c0.666992 0 2.66699 1 6 3s5.33301 3 6 3c1.33301 -1.33301 2 -4 2 -8c0 -23.333 -2.16699 -44.666 -6.5 -63.999s-9.83301 -37.333 -16.5 -54l-11 -25l2 -2
c2.66699 0 4 0.666992 4 2c0 -2.66699 -5.66699 -17 -17 -43c-9.33301 -21.333 -14 -34.333 -14 -39c0 -2 1 -5.5 3 -10.5s3 -7.83301 3 -8.5l-16 -39c-12.667 -28.667 -19 -45.667 -19 -51c0 -2 0.666992 -5.33301 2 -10s2 -7.33398 2 -8.00098
c-0.666992 -2.66699 -2.33398 -6.66699 -5.00098 -12s-5.16699 -10 -7.5 -14s-3.5 -6.33301 -3.5 -7c0 -2.66699 1.33301 -5.33398 4 -8.00098s4 -4.66699 4 -6c0 -6.66699 -3.5 -15.834 -10.5 -27.501s-12.833 -19.834 -17.5 -24.501c5.33301 -2 8 -9.33301 8 -22
c-0.666992 -4 -4 -15.333 -10 -34s-9 -30.667 -9 -36c0 -1.33301 1.5 -7.5 4.5 -18.5s4.5 -19.167 4.5 -24.5c0 -18.667 -16 -76.667 -48 -174c-6.66699 6.66699 -10 17 -10 31s0.666992 23 2 27l2 34v7c0 5.33301 -1.33301 15.333 -4 30s-4 24.334 -4 29.001
c0 6 3.5 13.333 10.5 22s10.5 13.667 10.5 15c0 6.66699 -1.66699 10 -5 10c-0.666992 0 -2.66699 -0.666992 -6 -2s-5.33301 -2 -6 -2c-4 0 -6 5.33301 -6 16c2 20.667 11 31 27 31c-2 15.333 -13 23 -33 23c6 30 12 45 18 45c4 0 6 -3.66699 6 -11c6 4 9 9.66699 9 17
c0 8 -6.33301 12 -19 12c0 4 1.83301 30.167 5.5 78.5s6.83398 94.5 9.50098 138.5l20 270c0 2 1 4.83301 3 8.5s3 6.5 3 8.5l-3 8c-2 5.33301 -3 10 -3 14c0 2 1.33301 14.167 4 36.5s4 38.166 4 47.499c0 23.333 -0.666992 44.666 -2 63.999
c-1.33301 20.667 -2 39.667 -2 57c0 24.667 18.333 37 55 37c60.667 0 91 -84 91 -252c0 -36.667 -0.666992 -59.667 -2 -69zM193 162.004c21.333 0 39.501 -5.33203 54.501 -15.999s22.5 -23 22.5 -37c0 -0.666992 -1 -3.33398 -3 -8.00098s-4.16699 -10 -6.5 -16
s-3.83301 -10.333 -4.5 -13c-2 -6 -4 -21 -6 -45c-3.33301 -24.667 -7.33301 -41.167 -12 -49.5s-13 -12.5 -25 -12.5c-22.667 0 -42.834 10.667 -60.501 32s-28.167 45 -31.5 71c0 0.666992 1.33301 7.5 4 20.5s4 19.833 4 20.5c0 35.333 21.333 53 64 53z" />
    <glyph glyph-name="quotedbl" unicode="&#x22;" horiz-adv-x="315" 
d="M51 1438c62.667 0 94 -50 94 -150c0 -9.33301 -2 -53 -6 -131c-2 -62.667 -13 -94 -33 -94c-8.66699 0 -18 44.333 -28 133c-9.33301 96 -21 159.333 -35 190c-0.666992 1.33301 -3.5 4.5 -8.5 9.5s-7.5 8.83301 -7.5 11.5c0 14.667 8 25 24 31zM221 1114
c-4.66699 20.667 -13.332 102.667 -25.999 246c-0.666992 12.667 -4.33398 27.5 -11.001 44.5s-10 26.167 -10 27.5c2 10.667 13.667 16 35 16c22.667 0 40.667 -5.83301 54 -17.5s20 -26.5 20 -44.5c0 -0.666992 -8.33301 -64 -25 -190c-6 -52.667 -18.333 -80 -37 -82z
" />
    <glyph glyph-name="numbersign" unicode="#" horiz-adv-x="944" 
d="M795 537c58.667 -16 88.002 -35.9971 88.002 -59.9971c0 -36.667 -71 -55 -213 -55c-15.333 -49.333 -23 -78.666 -23 -87.999c0 -10.667 20 -30 60 -58c40.667 -26.667 61 -45.667 61 -57c0 -14.667 -25.333 -22 -76 -22c-6.66699 0 -20 0.333008 -40 1s-31.333 1 -34 1
c-9.33301 1.33301 -18.166 -5.16699 -26.499 -19.5s-16.5 -32.5 -24.5 -54.5s-16.833 -43.667 -26.5 -65s-22.834 -39.333 -39.501 -54s-35.667 -21.334 -57 -20.001c-9.33301 0 -14 6.66699 -14 20c0 18 7.66699 49.333 23 94c16 43.333 24 68 24 74
c0 19.333 -14.333 29 -43 29c-94.667 0 -151.334 -8.33301 -170.001 -25c-26 -74 -39.667 -113 -41 -117c-14.667 -36 -28.834 -63.667 -42.501 -83s-30.167 -29 -49.5 -29c-12 0 -18 9.33301 -18 28c0 28.667 8 70.334 24 125.001c18 54.667 27 85 27 91
c0 2 -6.16699 15.167 -18.5 39.5s-18.5 41.833 -18.5 52.5c0 7.33301 9.16699 15.166 27.5 23.499s37.166 14.166 56.499 17.499c0.666992 5.33301 4.16699 20.666 10.5 45.999s9.5 40.666 9.5 45.999c0 0.666992 -11.5 5.5 -34.5 14.5s-46.167 22.167 -69.5 39.5
s-35 37.333 -35 60c0 18 7 29 21 33c10 3.33301 33.5 6.33301 70.5 9s60.5 5.33398 70.5 8.00098c16.667 2 34.334 19.667 53.001 53c20.667 36.667 38.334 81.667 53.001 135l7 25c16 54.667 58.333 82 127 82c16 0 24 -5.66699 24 -17c0 -13.333 -19 -50.666 -57 -111.999
c-38.667 -62.667 -58 -110.667 -58 -144c0 -36.667 63.667 -55 191 -55c30 0 58.667 48.333 86 145c0.666992 1.33301 1.16699 3.16602 1.5 5.49902s0.666016 4.33301 0.999023 6s0.833008 2.83398 1.5 3.50098c2.66699 9.33301 6 16.5 10 21.5s7.5 8.16699 10.5 9.5
s8.5 2.66602 16.5 3.99902s14 2.66602 18 3.99902c4.66699 2 12.667 5.66699 24 11c34.667 17.333 52 21.666 52 12.999c0.666992 -1.33301 0.666992 -2.66602 0 -3.99902c0 -22.667 -12.333 -59 -37 -109s-37 -78.667 -37 -86c0 -16 18 -28 54 -36zM532.002 340.003
l16.998 36.999c10.667 26.667 16 42.334 16 47.001c-5.33301 1.33301 -25.666 2 -60.999 2c-0.666992 0 -15.667 0.5 -45 1.5s-48.666 1.16699 -57.999 0.5c-51.333 0 -77 -24 -77 -72c0 -13.333 10.667 -20 32 -20c4 0 11.333 0.333008 22 1s17 1 19 1l92 -4
c22.667 0 37 2 43 6z" />
    <glyph glyph-name="dollar" unicode="$" horiz-adv-x="606" 
d="M66 662c7.33301 27.333 22.832 54.334 46.499 81.001s49.5 49.334 77.5 68.001c27.333 18.667 50.333 42 69 70s28 58.667 28 92c0 31.333 -4.33301 83.666 -13 156.999c14 4.66699 24.333 7 31 7c12 0 23.5 -11.333 34.5 -34s16.5 -48.334 16.5 -77.001
c0 -5.33301 -0.666992 -18.166 -2 -38.499s-2 -32.833 -2 -37.5c0 -38 20.667 -57 62 -57c12 0 18 10.333 18 31v24c0 34 13.667 51 41 51c39.333 0 59 -34 59 -102c0 -27.333 -3.83301 -69 -11.5 -125s-11.834 -89.333 -12.501 -100
c0 -2.66699 0.333008 -8.83398 1 -18.501s1 -15.834 1 -18.501c0 -22 -9.66699 -33 -29 -33c-18.667 -2 -32.667 7.5 -42 28.5s-14.333 44.333 -15 70s-2.5 49 -5.5 70s-8.16699 30.5 -15.5 28.5c-10 0 -18.5 -1.5 -25.5 -4.5s-12.167 -6.16699 -15.5 -9.5
s-5.83301 -8.83301 -7.5 -16.5s-2.5 -13.167 -2.5 -16.5v-19c0 -9.33301 0.333008 -24.333 1 -45s1 -33 1 -37c-6 -47.333 -7.33301 -90.333 -4 -129c0 -4 4 -9.16699 12 -15.5s21.5 -15.333 40.5 -27s33.5 -21.167 43.5 -28.5c26.667 -16.667 49.834 -44 69.501 -82
s29.5 -80.333 29.5 -127c0 -38.667 -12 -74.667 -36 -108s-56.333 -57.666 -97 -72.999c-6 -2.66699 -14.5 -4.5 -25.5 -5.5s-18.833 -3.83301 -23.5 -8.5s-7 -14.334 -7 -29.001c0 -22.667 0.666992 -44.334 2 -65.001c0.666992 -8 1.33398 -17.333 2.00098 -28
s1.16699 -19 1.5 -25s0.5 -10.333 0.5 -13c0 -31.333 -10 -47 -30 -47c-13.333 0 -27 4.5 -41 13.5s-21.667 18.167 -23 27.5l1 5c0.666992 3.33301 1.66699 8 3 14s2.5 13 3.5 21s1.83301 17.5 2.5 28.5s1 22.5 1 34.5c0 32 -1.66699 55.333 -5 70
s-7.33301 23.834 -12 27.501s-13.834 8.83398 -27.501 15.501s-26.167 15.334 -37.5 26.001l-4 4c-2 7.33301 -7.66699 15.666 -17 24.999c-1.33301 1.33301 -5.5 4.66602 -12.5 9.99902s-13 10.333 -18 15s-9.16699 11.167 -12.5 19.5s-4 16.5 -2 24.5
c2 18 8.33301 36.333 19 55s22 35 34 49s18.333 21.667 19 23c0.666992 2 2 7.5 4 16.5s5 16.333 9 22s9.66699 8.5 17 8.5c14 0 21 -11.667 21 -35c0 -10.667 -5.5 -34.5 -16.5 -71.5s-16.5 -62.167 -16.5 -75.5c0 -8 0.666992 -12.667 2 -14
c1.33301 -5.33301 8.33301 -14.166 21 -26.499s21.334 -18.5 26.001 -18.5c4 0 6 9.33301 6 28c0 4.66699 -0.166992 11.5 -0.5 20.5s-0.833008 17.167 -1.5 24.5v11c6 43.333 9 108 9 194c0 15.333 -5.66699 26.333 -17 33c-7.33301 6 -24 13 -50 21s-40 12.667 -42 14
c-32 15.333 -58.5 36 -79.5 62s-32.167 51 -33.5 75zM280.999 625.001c0 2 0.166992 5.00195 0.5 9.00195l1.5 17.5l2 22.5c2.66699 36 4 54.333 4 55c0 10.667 -3.33301 16 -10 16c-10 0 -30.667 -19.667 -62 -59c-28.667 -38.667 -43 -66.667 -43 -84
c-2.66699 -12 3.5 -21.833 18.5 -29.5s32.5 -13.834 52.5 -18.501s32 -8.33398 36 -11.001c1.33301 4 2 13.333 2 28c0 4.66699 -0.333008 13.667 -1 27s-1 22.333 -1 27zM347.999 281.003c0 -5.33301 -0.332031 -17.3311 -0.999023 -35.998s-1 -30.667 -1 -36
c0 -31.333 4.66699 -47 14 -47c20.667 0 38 17.667 52 53c13.333 35.333 20 62 20 80c-2 13.333 -13 35.666 -33 66.999c-20.667 32 -36.334 48 -47.001 48c-9.33301 0 -14 -13 -14 -39c0 -10 1.66699 -27.333 5 -52s5 -37.334 5 -38.001z" />
    <glyph glyph-name="percent" unicode="%" horiz-adv-x="802" 
d="M426 684c-41.333 8 -64.0029 12.001 -68.0029 12.001c-11.333 0 -25.166 -7.5 -41.499 -22.5s-31.666 -31.333 -45.999 -49s-32 -34 -53 -49s-41.5 -22.5 -61.5 -22.5c-28 0 -50.833 13.333 -68.5 40s-26.5 64 -26.5 112c0 36 12.333 75.333 37 118
c25.333 44 47.333 66 66 66c22.667 0 46.334 -6.83301 71.001 -20.5s41.334 -30.167 50.001 -49.5c18 -40.667 55.333 -61 112 -61c30.667 0 52.667 4.66699 66 14c10.667 7.33301 24 26.333 40 57l25 48c14 23.333 21 38.333 21 45l-1 5c-0.666992 3.33301 -1 6.33301 -1 9
c18 6.66699 30.333 10 37 10c82 0 123 -13.667 123 -41c0 -9.33301 -8.33301 -27 -25 -53c-10.667 -16.667 -30.334 -44.167 -59.001 -82.5s-46.667 -62.833 -54 -73.5c-110 -180.667 -183 -317 -219 -409l-16 -43l-35 -88c-16.667 -53.333 -25 -100.666 -25 -141.999
c0 -11.333 -4.83301 -21 -14.5 -29s-18.5 -12 -26.5 -12c-18 0 -35 8.83301 -51 26.5s-24 33.5 -24 47.5c0 5.33301 -0.333008 17.666 -1 36.999s-1 31.666 -1 36.999c-2 10.667 2.66699 27 14 49s25.333 45.833 42 71.5s26.667 42.167 30 49.5l141 280
c6 18 11.333 36 16 54c8 31.333 17 51 27 59zM228.997 723.001c-1.33301 5.33301 -5.16602 11.167 -11.499 17.5s-11.833 9.5 -16.5 9.5c-10.667 -1.33301 -21.834 -19 -33.501 -53s-18.5 -52 -20.5 -54c3.33301 1.33301 12 5.83301 26 13.5s23.333 13.5 28 17.5
c18.667 14.667 28 31 28 49zM529.997 352.002c0.666992 0 2.16602 0.329102 4.49902 0.996094s3.83301 1 4.5 1c3.33301 0 11 -1.66699 23 -5s18.667 -5 20 -5c46 -3.33301 84 -16.666 114 -39.999s45 -57.666 45 -102.999s-19.667 -85.666 -59 -120.999
c-38 -34 -79 -51 -123 -51c-35.333 0 -64 13.167 -86 39.5s-33 58.833 -33 97.5c0 28.667 10.333 62 31 100c18.667 36.667 38.334 65.334 59.001 86.001zM589.996 251.998c-38.667 -48.667 -58 -92.333 -58 -131c0 -30 9 -45 27 -45c16 0 34.333 11.167 55 33.5
s31 47.833 31 76.5c0 49.333 -12.333 74 -37 74c-10 0 -16 -2.66699 -18 -8z" />
    <glyph glyph-name="ampersand" unicode="&#x26;" horiz-adv-x="1073" 
d="M664 365c-24 2.66699 -39.3252 3.99805 -45.9922 3.99805c-2.66699 0 -8.66699 -0.333008 -18 -1s-15.333 -1 -18 -1c-20.667 0 -46 8.66699 -76 26c-28.667 18 -43 36.667 -43 56c0 21.333 12.333 32 37 32c8.66699 0 24 -5.83301 46 -17.5s36.667 -17.5 44 -17.5
c37.333 0 76.333 9 117 27l122 45c53.333 24 85.666 39.667 96.999 47c11.333 3.33301 25.666 8.5 42.999 15.5s32.333 12.667 45 17s23.667 6.5 33 6.5c0 -10.667 -3.66699 -21 -11 -31c-6.66699 -7.33301 -18.667 -17.666 -36 -30.999s-27.666 -20.666 -30.999 -21.999
l-66 -47c-12 -10.667 -43.333 -28.334 -94 -53.001l-86 -41c0 -0.666992 2.83301 -5.5 8.5 -14.5s10.667 -18.833 15 -29.5s6.16602 -19.334 5.49902 -26.001c0 -14.667 -9 -41.334 -27 -80.001c-18.667 -40.667 -34.334 -70 -47.001 -88
c-8 -13.333 -23.667 -30.333 -47 -51c-25.333 -22 -40.333 -37 -45 -45c13.333 -18 37 -39 71 -63c40.667 -30 68.667 -46 84 -48c4 -1.33301 18.333 -2 43 -2c44.667 0 80.834 20 108.501 60s41.5 87.667 41.5 143c0 12.667 1.33301 23 4 31c32.667 -20 49 -59 49 -117
c0 -122.667 -80.667 -184 -242 -184c-53.333 0 -112 15 -176 45c-16 8 -32.333 21.667 -49 41c-22 22 -34.333 33.667 -37 35l-75 -31c-46.667 -20.667 -87 -31 -121 -31c-52.667 0 -96.334 9.66699 -131.001 29s-52 48 -52 86c0 58.667 23.333 131.667 70 219l12 14
c8 9.33301 13.833 17.833 17.5 25.5s5.5 15.834 5.5 24.501c0 12 -4.66699 31.667 -14 59c-2 8 -4.33301 16.833 -7 26.5l-6.5 23.5c-1.66699 6 -2.83398 11 -3.50098 15c-12 72 -18 131.667 -18 179c0 112.667 28 234.667 84 366c57.333 130 112.666 195 165.999 195
c8 0 17.167 -1.66699 27.5 -5s21.166 -7.5 32.499 -12.5s18.666 -8.16699 21.999 -9.5c51.333 -14 84 -27 98 -39c30 -30 45 -72.333 45 -127c0 -102.667 -43.667 -226 -131 -370c-15.333 -26 -33 -52.667 -53 -80c-32 -44 -53.333 -78.333 -64 -103
c-30 -60 -45 -94.667 -45 -104c0 -19.333 23.333 -61.666 70 -126.999c48 -64 80 -96 96 -96c12.667 0 29 10.833 49 32.5s34.333 42.834 43 63.501c33.333 63.333 54.666 115.333 63.999 156zM487.008 787.998l23 79.998c14.667 53.333 22 90.333 22 111
c0 21.333 -4.16699 42.833 -12.5 64.5s-18.5 32.834 -30.5 33.501c-54.667 -39.333 -99.667 -99.833 -135 -181.5s-53 -170.5 -53 -266.5c0 -59.333 2.66699 -108 8 -146c4.66699 1.33301 20.334 19.333 47.001 54c29.333 38 56.666 81 81.999 129
c28.667 50.667 45 91.334 49 122.001zM279.008 204.996c-22 -24 -33 -73.333 -33 -148c0 -16 3.33301 -31.833 10 -47.5s15.667 -23.5 27 -23.5c20.667 0 45.5 5.66699 74.5 17s49.833 23.333 62.5 36c-67.333 60.667 -114.333 116 -141 166z" />
    <glyph glyph-name="quotesingle" unicode="'" horiz-adv-x="235" 
d="M51 1438c62.667 0 94 -50 94 -150c0 -9.33301 -2 -53 -6 -131c-2 -62.667 -13 -94 -33 -94c-8.66699 0 -18 44.333 -28 133c-9.33301 96 -21 159.333 -35 190c-0.666992 1.33301 -3.5 4.5 -8.5 9.5s-7.5 8.83301 -7.5 11.5c0 14.667 8 25 24 31z" />
    <glyph glyph-name="parenleft" unicode="(" horiz-adv-x="514" 
d="M414 1509c1.33301 0.666992 2.82812 1.33496 4.49512 2.00195s2.83398 1.16699 3.50098 1.5s1.33398 0.5 2.00098 0.5c12 0 21 -10 27 -30c0 -16.667 -3 -33 -9 -49c-2.66699 -9.33301 -7.16699 -20.833 -13.5 -34.5s-12.5 -25.834 -18.5 -36.501s-9 -16.334 -9 -17.001
c-14.667 -56.667 -23.334 -91 -26.001 -103c-12 -54.667 -19.667 -87.334 -23 -98.001c-0.666992 -2.66699 -3.66699 -10.167 -9 -22.5s-8.33301 -21.166 -9 -26.499c-61.333 -245.333 -92 -475.333 -92 -690c0 -92.667 11.333 -192.667 34 -300
c24.667 -107.333 53.334 -198.666 86.001 -273.999c2 -4.66699 8.83301 -17.834 20.5 -39.501s19.5 -37.167 23.5 -46.5c10.667 -17.333 10.834 -30.5 0.500977 -39.5s-27.166 -14.167 -50.499 -15.5c-21.333 0 -44.333 25.333 -69 76c-25.333 50 -39 88.667 -41 116
c-2 16 -10.333 44.667 -25 86c-13.333 40.667 -20.666 65.334 -21.999 74.001c-37.333 148 -56 256 -56 324c0 137.333 14.333 277.666 43 420.999c34 158 63.333 273 88 345c22 65.333 67.333 188 136 368c2.66699 0 4 2.66699 4 8z" />
    <glyph glyph-name="parenright" unicode=")" horiz-adv-x="479" 
d="M199 1442c36.667 -8 69.501 -34.667 98.501 -80s50.5 -100 64.5 -164c16.667 -69.333 28.334 -138.333 35.001 -207c12.667 -123.333 19 -238 19 -344c0 -19.333 -0.666992 -36 -2 -50s-2.66602 -24.333 -3.99902 -31s-2 -11 -2 -13c0 -5.33301 1 -16.333 3 -33
s3 -27.667 3 -33l-19 -125c-10.667 -67.333 -16 -115 -16 -143c0 -58.667 -17.667 -136.334 -53 -233.001c-34 -94 -53.333 -158.333 -58 -193c-8 -50.667 -45.333 -76 -112 -76c-7.33301 0 -11 3 -11 9c0 11.333 6.33301 32.333 19 63c14 33.333 21.333 52.333 22 57
c3.33301 16.667 15.666 70.667 36.999 162c19.333 80.667 32.333 138.667 39 174c11.333 46.667 21.666 97.334 30.999 152.001c22 108 33 217.333 33 328c0 50.667 -5 112 -15 184c-2.66699 10.667 -4.33398 32.167 -5.00098 64.5s-1 49.833 -1 52.5
c-2 17.333 -8 48.666 -18 93.999c-9.33301 40.667 -15 75.334 -17 104.001l-6 72c-12 77.333 -33.667 147 -65 209z" />
    <glyph glyph-name="asterisk" unicode="*" horiz-adv-x="622" 
d="M352 1192c24.667 19.333 56.9961 39.668 96.9961 61.001c43.333 23.333 70.333 35 81 35c12.667 0 19 -6 19 -18c0 -12.667 -9.66699 -25 -29 -37l-12 -10c-2 -2.66699 -12.833 -14.167 -32.5 -34.5l-54 -56.5c-16.333 -17.333 -23.166 -26 -20.499 -26
c0 -9.33301 26 -32 78 -68c53.333 -35.333 80 -67.333 80 -96c0 -16 -9.66699 -24 -29 -24c-10.667 0 -19.5 1.83301 -26.5 5.5s-13.667 8.66699 -20 15s-12.5 10.833 -18.5 13.5c-4.66699 2.66699 -12.667 6.66699 -24 12l-30 14c-8.66699 4 -14 7 -16 9
c-1.33301 0.666992 -9.83301 9.33398 -25.5 26.001s-26.167 25 -31.5 25c-8 -4 -12 -41.333 -12 -112c0 -5.33301 0.333008 -16.333 1 -33s1 -26.334 1 -29.001c0 -20 -5 -30 -15 -30c-18 0 -33 5.66699 -45 17s-19.333 21.5 -22 30.5s-4 15.5 -4 19.5
c0 2 0.333008 6.33301 1 13s1 11.334 1 14.001c0 5.33301 -2.16699 12.5 -6.5 21.5s-7.83301 13.5 -10.5 13.5c-8.66699 0 -25 -15 -49 -45c-24.667 -28.667 -39 -44 -43 -46c-1.33301 -1.33301 -7.33301 -2 -18 -2c-38.667 0 -58 12.333 -58 37c0 10 29.333 41.333 88 94
c60.667 54.667 91 93 91 115c0 9.33301 -3.16699 19.166 -9.5 29.499s-14.833 21.166 -25.5 32.499s-17 18.666 -19 21.999c-8.66699 13.333 -21.667 36.666 -39 69.999c-16.667 32 -31.667 53.667 -45 65c-20 8.66699 -30 15.667 -30 21c0 8 4 12 12 12
c36 0 66 -9.66699 90 -29c16 -10 27.667 -18.667 35 -26l14 -17l31 -32l2 -2c0.666992 -0.666992 1.33398 -1.66699 2.00098 -3c0 -0.666992 0.166992 -1.16699 0.5 -1.5s0.833008 -0.5 1.5 -0.5c4.66699 1.33301 14.334 27.333 29.001 78c14 49.333 24 74 30 74
c6.66699 0 16.334 -5.16699 29.001 -15.5s19.667 -18.166 21 -23.499c0 -73.333 -5 -132.666 -15 -177.999z" />
    <glyph glyph-name="plus" unicode="+" horiz-adv-x="749" 
d="M432 135c-28 0 -52.334 7.16895 -73.001 21.502s-31 34.5 -31 60.5c0 2 0.333008 5.5 1 10.5s1 8.5 1 10.5s-2.16699 9.66699 -6.5 23s-6.5 22.666 -6.5 27.999c0 3.33301 0.333008 11.5 1 24.5s1 21.167 1 24.5c0 20 -3.83301 35.667 -11.5 47s-17.167 18 -28.5 20
s-24.166 3.5 -38.499 4.5s-27.833 1.5 -40.5 1.5s-24.334 3.33301 -35.001 10s-18 16.667 -22 30c26 1.33301 65 6 117 14c39.333 6 59 12 59 18c0 2 -0.333008 6.5 -1 13.5s-1 11.5 -1 13.5l3 12c2.66699 8 5.33398 17.667 8.00098 29s4 21.666 4 30.999
c0 2 -0.333008 6 -1 12s-1 10 -1 12c0 58.667 15.667 88 47 88c22 0 39.5 -6.66699 52.5 -20s19.5 -29 19.5 -47c0 -10 -2.16699 -29.833 -6.5 -59.5s-6.5 -46.167 -6.5 -49.5c0 -24.667 13.667 -37 41 -37c3.33301 0 13 0.666992 29 2s26.333 2 31 2
c16 0 46 -5.33301 90 -16c40.667 -10 61 -19.667 61 -29c0 -22 -52.667 -33.333 -158 -34h-28h-1h-5c-1.33301 0 -8 0.333008 -20 1s-19.667 1 -23 1c-19.333 0 -29 -37 -29 -111c0 -11.333 1.66699 -33.5 5 -66.5s5 -53.833 5 -62.5c0 -18 -0.666992 -29 -2 -33z" />
    <glyph glyph-name="comma" unicode="," horiz-adv-x="235" 
d="M123 301c17.333 0 35.666 -4.83301 54.999 -14.5s29 -18.5 29 -26.5c0 -74 -24.667 -150.333 -74 -229c-35.333 -60 -58.666 -90 -69.999 -90c-6.66699 0 -10 2 -10 6c0 9.33301 3.33301 38 10 86c8.66699 46.667 13 80.667 13 102c0 100.667 15.667 156 47 166z" />
    <glyph glyph-name="hyphen" unicode="-" horiz-adv-x="432" 
d="M406 508c-6.66699 -6.66699 -23.335 -13 -50.002 -19c-20 -6.66699 -40.667 -14.5 -62 -23.5s-38.166 -15.833 -50.499 -20.5s-23.166 -7 -32.499 -7s-17.833 2.66699 -25.5 8s-17 14.333 -28 27s-17.167 19.667 -18.5 21c62.667 36.667 122 55 178 55
c53.333 0 83 -13.667 89 -41z" />
    <glyph glyph-name="period" unicode="." horiz-adv-x="239" 
d="M100 236c21.333 0 43.833 -6.83301 67.5 -20.5s35.5 -26.834 35.5 -39.501c0 -12 -5.66699 -44.667 -17 -98c-4.66699 -23.333 -12.667 -43.833 -24 -61.5s-21.666 -26.5 -30.999 -26.5c-22 0 -39 22.333 -51 67c-12.667 47.333 -19 94 -19 140
c0 10.667 4.16699 19.834 12.5 27.501s17.166 11.5 26.499 11.5z" />
    <glyph glyph-name="slash" unicode="/" horiz-adv-x="657" 
d="M362 827c5.33301 50.667 23.333 125.331 54 223.998c27.333 91.333 44.333 164.333 51 219c2.66699 20 7.33398 42.333 14.001 67c8.66699 33.333 13 52 13 56c0 2.66699 -1.83301 8.33398 -5.5 17.001s-5.5 14.334 -5.5 17.001c0 8.66699 7 13 21 13
c13.333 0 31.666 -7 54.999 -21c23.333 -12 35 -20.667 35 -26c0 -26.667 -10.333 -64.334 -31 -113.001c-20.667 -54 -31.667 -86.667 -33 -98c-2.66699 -18 -14 -61.667 -34 -131c-18.667 -66 -29 -114.667 -31 -146c-2 -44 -14.333 -105.333 -37 -184
c-19.333 -78 -32.333 -136 -39 -174c-2 -20 -10 -52 -24 -96c-14.667 -51.333 -23 -83.666 -25 -96.999l-25 -116c-24 -108.667 -36 -194.667 -36 -258c0 -62 -12.333 -93 -37 -93c-66 0 -99 21.333 -99 64c0 34 12.333 86.667 37 158l39 116
c6.66699 30.667 19 76.334 37 137.001c36 125.333 57 215.666 63 270.999c6 69.333 20.333 134 43 194z" />
    <glyph glyph-name="zero" unicode="0" horiz-adv-x="638" 
d="M592 414c-39.333 -159.333 -78.3311 -269.336 -116.998 -330.003c-39.333 -60 -83 -90 -131 -90c-61.333 0 -107.666 10.333 -138.999 31c-3.33301 2 -9.83301 6.33301 -19.5 13s-16.167 11.334 -19.5 14.001s-8.33301 7 -15 13s-12.167 12 -16.5 18
s-8.83301 13 -13.5 21c-3.33301 8 -8.5 18.833 -15.5 32.5s-12.667 26 -17 37s-8.5 24.167 -12.5 39.5l-13 57c-8.66699 36 -15.334 75 -20.001 117c-1.33301 4 -2 15.667 -2 35c0 30 11 92 33 186c7.33301 33.333 22.333 68.666 45 105.999s48 65.666 76 84.999
c2.66699 6.66699 5.66699 13.334 9 20.001s6.66602 12.834 9.99902 18.501s5.66602 9.83398 6.99902 12.501c9.33301 14 25 27 47 39s46 18 72 18c70 0 128.167 -23.667 174.5 -71s69.5 -115.666 69.5 -204.999c0 -2.66699 -0.333008 -9 -1 -19s-1 -16.667 -1 -20
c10.667 -30.667 16 -67.667 16 -111c0 -26.667 -2 -49 -6 -67zM471.002 314.997c0 0.666992 5.5 17.832 16.5 51.499s20.167 66.667 27.5 99s11 60.833 11 85.5c0 28 -3.33301 54.667 -10 80c0 19.333 -2.66699 41 -8 65c-6 28 -19 57.333 -39 88
c-20 31.333 -45.333 47 -76 47c-54 0 -100.333 -45 -139 -135c-38 -86 -57 -180.667 -57 -284l2 -16c1.33301 -10 2.66602 -21.833 3.99902 -35.5s2 -24.5 2 -32.5c0 -17.333 -2 -33 -6 -47c0.666992 -64 13.834 -113.833 39.501 -149.5s54.834 -53.5 87.501 -53.5
c27.333 0 54.166 22.833 80.499 68.5s47.833 101.834 64.5 168.501z" />
    <glyph glyph-name="one" unicode="1" horiz-adv-x="567" 
d="M453 877c-16 -194 -27.6631 -328.665 -34.9961 -403.998c0 -3.33301 -4 -94 -12 -272l-7 -99c0 -6.66699 1.5 -27 4.5 -61s4.5 -57.333 4.5 -70c0 -27.333 -15.333 -41 -46 -41c-2.66699 -0.666992 -6.5 -3.16699 -11.5 -7.5s-8.5 -6.5 -10.5 -6.5
c-36 0 -64.833 17 -86.5 51s-32.5 76.333 -32.5 127c0 40 7 85.667 21 137c13.333 48.667 20 75.334 20 80.001c0 8.66699 3.5 19.167 10.5 31.5s11.167 21.166 12.5 26.499c34.667 152 57 272.667 67 362c0 0.666992 0.666992 4 2 10s2 10.333 2 13
c0 13.333 -3.33301 20 -10 20l-10 -15c-2.66699 -4 -7.33398 -12.333 -14.001 -25c-50.667 -90 -87.667 -147.667 -111 -173c-34 -38 -65.333 -57 -94 -57c-20 0 -37.167 4.16699 -51.5 12.5s-21.833 19.166 -22.5 32.499c-2 1.33301 2.66699 6.16602 14 14.499l53.5 39.5
c24.333 18 46.166 35.333 65.499 52c51.333 47.333 93.166 97.5 125.499 150.5s48.5 96.5 48.5 130.5c0 5.33301 -1 14.333 -3 27s-3 20 -3 22c0 20.667 15.667 31 47 31c49.333 0 74 -14.333 74 -43c0 -8.66699 -1.83301 -25.5 -5.5 -50.5s-5.83398 -40.167 -6.50098 -45.5
z" />
    <glyph glyph-name="two" unicode="2" horiz-adv-x="559" 
d="M541 61l4 -12.002c-0.666992 -0.666992 -9.5 -8.66699 -26.5 -24s-30.833 -23.666 -41.5 -24.999c-2.66699 0 -8 0.666992 -16 2l-12 2c-18.667 0 -56.334 -3.33301 -113.001 -10s-94.334 -10 -113.001 -10c-41.333 0 -82.333 9.33301 -123 28
c-39.333 18 -59 47.333 -59 88c0 2 3 7.66699 9 17s9 16.666 9 21.999c0 2 -0.333008 5 -1 9l-1 6c0 14.667 7 34.334 21 59.001l22 43c32 53.333 67 118.333 105 195c43.333 84 80.666 162.333 111.999 235c25.333 56 43.333 116.667 54 182c-36 0 -75 -19 -117 -57
c-45.333 -38.667 -70.666 -67.334 -75.999 -86.001c-13.333 -33.333 -20 -66.666 -20 -99.999c0 -0.666992 0.666992 -3.5 2 -8.5s2 -7.83301 2 -8.5c-2 -20 -11 -30 -27 -30s-33.333 7.16699 -52 21.5s-28 28.833 -28 43.5c-2 8.66699 -0.666992 18.667 4 30
s11.167 23.5 19.5 36.5s12.833 20.167 13.5 21.5c28 53.333 76 104.666 144 153.999c69.333 50.667 123.666 76 162.999 76c21.333 0 40.333 -9.16699 57 -27.5s25 -41.5 25 -69.5c0 -66.667 -14.333 -132.667 -43 -198l-32 -80c-15.333 -30.667 -33.333 -63 -54 -97
c-30 -49.333 -45 -75.666 -45 -78.999c-13.333 -26.667 -35.666 -65 -66.999 -115c-35.333 -59.333 -60 -103.666 -74 -132.999c-10.667 -24.667 -16 -39.667 -16 -45c0 -11.333 5.33301 -17 16 -17c6 0 21 1.83301 45 5.5s39 5.5 45 5.5c24.667 0 50 -0.666992 76 -2
c38.667 -2 63.334 -3 74.001 -3c2.66699 0 11.667 0.833008 27 2.5s25.333 2.5 30 2.5c26.667 0 45 -3.66699 55 -11c2.66699 0 10.334 -13 23.001 -39z" />
    <glyph glyph-name="three" unicode="3" horiz-adv-x="548" 
d="M311 465c131.333 -72 196.999 -174.328 196.999 -306.995c0 -51.333 -21.333 -101.333 -64 -150c-41.333 -47.333 -95.666 -71 -162.999 -71c-22.667 0 -44.667 6 -66 18c-11.333 4.66699 -30.333 17 -57 37c-20.667 17.333 -37 28.333 -49 33
c-17.333 6 -27.666 12 -30.999 18c-4 6 -6 15.667 -6 29c0 21.333 6.33301 42.666 19 63.999s25.334 32 38.001 32c10.667 0 21.667 -13 33 -39c13.333 -26 25.666 -42.333 36.999 -49c12 -8 28.333 -12 49 -12c44.667 0 82.667 19.667 114 59
c33.333 43.333 50 83.666 50 120.999c0 23.333 -13.667 50.666 -41 81.999c-26.667 30.667 -48.667 47 -66 49c-2 0 -5.83301 -0.666992 -11.5 -2s-9.83398 -2 -12.501 -2l-2 2c-1.33301 1.33301 -3.66602 2 -6.99902 2c-2.66699 -0.666992 -11.167 -5.66699 -25.5 -15
s-24.166 -14 -29.499 -14c-16.667 0 -33.834 8.5 -51.501 25.5s-26.5 33.167 -26.5 48.5c0 31.333 5.66699 47 17 47c2.66699 0 5.33398 -1.33301 8.00098 -4c0 11.333 6 22.833 18 34.5l19 18.5c27.333 38.667 50.166 82.334 68.499 131.001s28.166 85 29.499 109l1 13
c1.33301 8.66699 2.5 19 3.5 31s1.5 22.667 1.5 32c0 25.333 -2 38 -6 38c-25.333 0 -56 -21 -92 -63c-0.666992 -0.666992 -4 -7.83398 -10 -21.501s-10.333 -21.5 -13 -23.5c-2.66699 -2.66699 -6.5 -4.83398 -11.5 -6.50098s-7.83301 -3.5 -8.5 -5.5
c-1.33301 -3.33301 -2.66602 -12.333 -3.99902 -27s-3.83301 -26.834 -7.5 -36.501s-9.5 -14.5 -17.5 -14.5c-12 0 -31 8.66699 -57 26c-24.667 18 -37 33.333 -37 46c0 2 6.66699 10.667 20 26l25 31c76 109.333 151.667 164 227 164c32 0 57.167 -15.667 75.5 -47
s27.5 -72.333 27.5 -123c0 -62 -9 -117.333 -27 -166c-6.66699 -20 -16.334 -43.333 -29.001 -70l-16 -33c-0.666992 -2.66699 -6.16699 -13.5 -16.5 -32.5s-15.833 -29.833 -16.5 -32.5z" />
    <glyph glyph-name="four" unicode="4" horiz-adv-x="579" 
d="M139 334c4.66699 -3.33301 32.6689 -3.99609 84.002 -1.99609c49.333 4 89.666 10 120.999 18c18 20 27 68 27 144c0 6 -1.5 15.667 -4.5 29s-4.5 20.666 -4.5 21.999c0 9.33301 19.333 14 58 14c14.667 0 29.834 -6.83301 45.501 -20.5s23.5 -28.5 23.5 -44.5
c-6.66699 -14 -10.167 -22.167 -10.5 -24.5s0.5 -10.833 2.5 -25.5c0 -2.66699 -2.33301 -14.667 -7 -36s-7 -35 -7 -41c9.33301 0 27.166 0.666992 53.499 2s39.833 2 40.5 2c19.333 0 29 -10.333 29 -31c0 -4.66699 -4.33301 -10.334 -13 -17.001s-15.334 -10 -20.001 -10
c-20.667 0 -52.667 -6 -96 -18c-5.33301 -18 -8 -37 -8 -57c0 -2.66699 1.33301 -30 4 -82c4 -38.667 6 -66.667 6 -84c0 -4.66699 2.33301 -19.167 7 -43.5s7 -40.5 7 -48.5c0 -24.667 -9.33301 -37 -28 -37c-2.66699 0 -7.5 1.33301 -14.5 4s-11.833 4 -14.5 4
c0 -18 -4.66699 -27 -14 -27c-20 0 -36.667 9.83301 -50 29.5s-20 46.167 -20 79.5l10 241c0 10 -4.66699 15 -14 15c-11.333 0 -46.333 -7 -105 -21c-56 -13.333 -93.333 -20 -112 -20c-30.667 0 -54.167 8 -70.5 24s-24.5 37.333 -24.5 64c0 18.667 13.667 48.667 41 90
c28.667 43.333 43.667 68 45 74c2 3.33301 18.667 33.666 50 90.999s53 102.666 65 135.999c29.333 74.667 45 145.667 47 213c0 2 -1 7.5 -3 16.5s-3 14.5 -3 16.5c4 18.667 19 28 45 28c42.667 0 64 -23 64 -69c0 -84 -26.667 -187 -80 -309
c-50 -114 -100.667 -210.333 -152 -289z" />
    <glyph glyph-name="five" unicode="5" horiz-adv-x="540" 
d="M162 154l3.99805 1.99902h6c2 0 6.66699 -0.666992 14 -2s12.333 -2 15 -2c32.667 0 62.667 17.667 90 53c28.667 36.667 43 75.667 43 117c0 26 -6 42 -18 48s-33.333 9 -64 9c-5.33301 0 -19.166 -4.5 -41.499 -13.5s-35.833 -13.5 -40.5 -13.5
c-20.667 0 -42.5 10.333 -65.5 31s-34.5 38.334 -34.5 53.001c0 84 8 162 24 234c12.667 52 19 86 19 102c0 0.666992 -8.66699 8.33398 -26 23.001s-26 26.667 -26 36c0 14 9.66699 23 29 27c20 6.66699 31 15.667 33 27c0 23.333 -2.66699 35 -8 35
c2 0 6.16699 0.666992 12.5 2s10.833 2 13.5 2c9.33301 0 18 -5.16699 26 -15.5s12.333 -15.5 13 -15.5c16.667 0 55 6.66699 115 20c62.667 14 97.334 21 104.001 21c45.333 0 74.666 -3 87.999 -9c22 -8.66699 33 -26.334 33 -53.001c0 -14 -29.333 -34.333 -88 -61
c-56.667 -24 -107.667 -37 -153 -39c-3.33301 0 -8 0.666992 -14 2l-9 2l-16 -8c-11.333 -5.33301 -19 -8 -23 -8s-6.66699 0.666992 -8 2h-4c-7.33301 0 -17 -83.333 -29 -250c0 -2 -1.66699 -7.33301 -5 -16s-5 -14.334 -5 -17.001c0 -9.33301 4.66699 -14 14 -14
c4.66699 0 20.167 1 46.5 3s42.166 3 47.499 3c32.667 0 71.667 -15 117 -45c46.667 -30.667 70 -68.334 70 -113.001c0 -51.333 -12.333 -94.333 -37 -129c-1.33301 -1.33301 -7.16602 -10.166 -17.499 -26.499s-18.166 -27.833 -23.499 -34.5c-26 -30 -44.333 -49 -55 -57
l-31 -21c-8 -5.33301 -18 -13.666 -30 -24.999s-22.333 -19.833 -31 -25.5s-17.667 -8.5 -27 -8.5c-28 0 -50.333 11.167 -67 33.5s-25 48.5 -25 78.5c0 35.333 15 54 45 56z" />
    <glyph glyph-name="six" unicode="6" horiz-adv-x="503" 
d="M492 1198c12 0.666992 26.501 -4.99707 43.501 -16.9971s25.5 -22 25.5 -30c0 -23.333 -45.667 -102 -137 -236c-75.333 -110.667 -136 -229.334 -182 -356.001l-15 -29c0 -2 8.33301 -4 25 -6c49.333 -6 97 -38 143 -96c49.333 -57.333 74 -117.333 74 -180
c0 -8.66699 -3 -25 -9 -49s-9 -39.667 -9 -47c0 -4.66699 1.33301 -14.834 4 -30.501s4 -26.167 4 -31.5c0 -32.667 -13.667 -57.834 -41 -75.501s-62.333 -26.5 -105 -26.5c-37.333 0 -79.666 10.667 -126.999 32c-4.66699 2.66699 -10.334 7.16699 -17.001 13.5
s-13.5 13.5 -20.5 21.5s-10.833 12.333 -11.5 13l-22.5 34l-20.5 31c-12 12 -18 19 -18 21l2 6c1.33301 4 2 7.33301 2 10c0 3.33301 -3.33301 8 -10 14l-11 9c-12 27.333 -18 67.333 -18 120c0 72.667 11 136.334 33 191.001c6 15.333 16.167 37.833 30.5 67.5l22.5 46.5
c11.333 30 40.666 84.667 87.999 164l141 222l41.5 63.5l33.5 50.5c7.33301 11.333 12.333 19.666 15 24.999c6 30 21.333 48.333 46 55zM289.001 164.003c24.667 48.667 37 86.002 37 112.002c0 39.333 -9.33301 74.5 -28 105.5s-43 46.5 -73 46.5
c-17.333 0 -31 -17 -41 -51c-9.33301 -30.667 -14 -59.334 -14 -86.001c0 -66 11 -119 33 -159s51.333 -60 88 -60c10.667 0 16 5.33301 16 16c0 2.66699 -3.66699 10.167 -11 22.5s-11 21.833 -11 28.5c0 3.33301 1.33301 11.666 4 24.999z" />
    <glyph glyph-name="seven" unicode="7" horiz-adv-x="606" 
d="M586 782c0 -5.33301 -0.667969 -8 -2.00098 -8c-2.66699 2.66699 -5.66699 4 -9 4s-5.66602 -3.66699 -6.99902 -11l-1 -11c-15.333 -4.66699 -29 -14.334 -41 -29.001s-25 -35.667 -39 -63l-30 -74c-4.66699 -12 -11.5 -32.5 -20.5 -61.5s-15.167 -48.167 -18.5 -57.5
c-11.333 -32.667 -26.333 -68 -45 -106c-46.667 -109.333 -70 -187.333 -70 -234c0 -8 -3.33301 -26.5 -10 -55.5s-10 -48.167 -10 -57.5c0 -5.33301 1 -15 3 -29s3 -22 3 -24c0 -12 -4.33301 -18 -13 -18c-1.33301 0 -7 3 -17 9s-17.667 9 -23 9
c-2.66699 0 -5.66699 -0.333008 -9 -1s-5.33301 -1 -6 -1c-10 0 -20.333 7.16699 -31 21.5s-16 24.833 -16 31.5c0 34 17.667 100.333 53 199c36.667 97.333 58 157.333 64 180c8.66699 37.333 27.667 94 57 170c4 12 18 44.833 42 98.5s36 87.167 36 100.5
c-4.66699 4 -8.66699 5.83301 -12 5.5s-8 -1.66602 -14 -3.99902s-10.333 -3.5 -13 -3.5s-8.33398 0.333008 -17.001 1s-14 1 -16 1c-0.666992 0 -13.167 -2.33301 -37.5 -7s-45.166 -7 -62.499 -7c-40.667 0 -76.334 -6.33301 -107.001 -19l-11.5 -7.5l-16.5 -10.5
c-5.33301 -3.33301 -10.333 -6 -15 -8c-10 -3.33301 -19.333 -5 -28 -5c-13.333 0 -25.666 11 -36.999 33c-10.667 24.667 -16 39.667 -16 45l-3 2v4c0 16 8 28.833 24 38.5s33 15.834 51 18.501s39.667 5.16699 65 7.5s41.666 4.16602 48.999 5.49902
c78 13.333 140 20 186 20c5.33301 0 14.333 -1 27 -3s20 -3 22 -3s6.16699 2.16699 12.5 6.5s10.5 6.5 12.5 6.5c15.333 -4.66699 28.833 -9.5 40.5 -14.5s23.834 -11.5 36.501 -19.5s22.5 -17.5 29.5 -28.5s10.5 -23.167 10.5 -36.5z" />
    <glyph glyph-name="eight" unicode="8" horiz-adv-x="542" 
d="M324 920c39.333 0 65.0049 -5 77.0049 -15c5.33301 -5.33301 17 -12 35 -20s33.5 -17 46.5 -27s19.5 -21.667 19.5 -35c0 -2.66699 -1 -8.16699 -3 -16.5s-3 -13.5 -3 -15.5c0 -0.666992 2.33301 -3.83398 7 -9.50098s9 -12.5 13 -20.5s6 -16 6 -24
c0 -17.333 -4 -35 -12 -53c-4.66699 -11.333 -11.834 -25.333 -21.501 -42l-25.5 -43c-7.33301 -12 -11.333 -19 -12 -21c-2 -2.66699 -5.16699 -10 -9.5 -22s-7.5 -19 -9.5 -21c-5.33301 -9.33301 -19.333 -30.5 -42 -63.5l-44 -63.5c-12 -18 -18 -31.667 -18 -41
c0 -6 6.16699 -17.833 18.5 -35.5s19.166 -27.834 20.499 -30.501c40.667 -89.333 61 -163.666 61 -222.999c0 -70 -37 -105 -111 -105c-66.667 0 -129.334 17.333 -188.001 52s-88 68.667 -88 102c0 26 13 59.333 39 100c9.33301 16.667 22.333 37.334 39 62.001l37 53
c0.666992 1.33301 4.5 7 11.5 17s13 19.333 18 28s7.5 15 7.5 19c0 14 -16.667 41.667 -50 83c-31.333 43.333 -47 82.333 -47 117c2.66699 33.333 7.66699 57.333 15 72s25.666 40.667 54.999 78l76 102c33.333 41.333 60.666 62 81.999 62zM391.005 799
c-14 -2 -28.334 -7.33301 -43.001 -16s-28.667 -19.5 -42 -32.5s-24.666 -24.667 -33.999 -35s-19.333 -22.333 -30 -36l-19 -24.5c-26 -28 -39 -51 -39 -69c0 -16 7 -37.333 21 -64c13.333 -26 25.666 -39 36.999 -39c14 -2 47 47.333 99 148l21 45
c2.66699 4.66699 7.83398 16.5 15.501 35.5s15.667 36 24 51s16.5 24.5 24.5 28.5l4 2c5.33301 2 8 5.33301 8 10c0 5.33301 -4.66699 8 -14 8c-2.66699 0 -8.16699 -2 -16.5 -6s-13.833 -6 -16.5 -6zM172.004 129c19.333 -10.667 39.001 -16.001 59.001 -16.001
c12.667 0 22.167 0.333008 28.5 1s13.666 2.83398 21.999 6.50098s14.333 10 18 19s5.5 21.167 5.5 36.5c0 17.333 -6 41.333 -18 72c-12 31.333 -22.333 47 -31 47c-2.66699 0 -4 -4 -4 -12c-2 -13.333 -17 -36 -45 -68c-26 -30 -39 -53.333 -39 -70
c0 -8 1.33301 -13.333 4 -16z" />
    <glyph glyph-name="nine" unicode="9" horiz-adv-x="538" 
d="M281 850c4 1.33301 12.0029 2.00098 24.0029 2.00098c11.333 0 20.666 -2.16699 27.999 -6.5s14.833 -10.666 22.5 -18.999s14.834 -14.833 21.501 -19.5l15 -9c10.667 -6 22 -12.833 34 -20.5s20.333 -14.167 25 -19.5c8.66699 -9.33301 13 -19.666 13 -30.999
s-4.33301 -21.666 -13 -30.999c17.333 0 32.833 -3.33301 46.5 -10s20.5 -17 20.5 -31c0 -26 -7.83301 -64.5 -23.5 -115.5s-28.834 -84.833 -39.501 -101.5l-2 -8c-8 -22.667 -19.667 -62.334 -35 -119.001l-31 -112c-3.33301 -10 -10.5 -30.167 -21.5 -60.5
s-20.333 -57.833 -28 -82.5s-11.5 -42 -11.5 -52c0 -2 0.666992 -7.5 2 -16.5s2 -14.5 2 -16.5c0 -6 -2.66699 -13.667 -8 -23s-11 -14 -17 -14l-45 15c-23.333 7.33301 -40.333 15.5 -51 24.5s-16 21.833 -16 38.5c0 9.33301 6 27.333 18 54
c15.333 31.333 23.666 51.666 24.999 60.999c4 15.333 16 46 36 92c20.667 48.667 31 87 31 115c0 4 -2 6 -6 6c-1.33301 0 -8.83301 -3 -22.5 -9s-29.667 -12.167 -48 -18.5s-33.833 -9.5 -46.5 -9.5c-92.667 8 -139 74.333 -139 199c0 32.667 19 75.667 57 129
c42.667 60.667 64.667 92 66 94c12 23.333 30.167 47.666 54.5 72.999s45.166 42.666 62.499 51.999zM371.003 707.001c-50.667 -1.33301 -104.666 -46.333 -161.999 -135c-3.33301 -5.33301 -5.33301 -8.33301 -6 -9c-35.333 -51.333 -53 -95 -53 -131c0 -26 6 -39 18 -39
c24.667 0 58.667 18.667 102 56c46 42 71.333 69 76 81c22 42.667 33.667 73 35 91c0 2.66699 -0.666992 8.5 -2 17.5s-2 14.5 -2 16.5c-2.66699 8 -0.666992 14.833 6 20.5s16.334 10.5 29.001 14.5l20 6c-4.66699 0 -14.834 1.83301 -30.501 5.5s-25.834 5.5 -30.501 5.5z
" />
    <glyph glyph-name="colon" unicode=":" horiz-adv-x="354" 
d="M174 741c48 -2 73.998 -14.999 77.998 -38.999c0 -0.666992 -1 -3.16699 -3 -7.5s-4.16699 -9.5 -6.5 -15.5s-3.83301 -10.333 -4.5 -13c-1.33301 -8 -2.66602 -19.667 -3.99902 -35s-2.66602 -27.166 -3.99902 -35.499s-4.5 -16.833 -9.5 -25.5
s-11.5 -14.334 -19.5 -17.001c-23.333 0 -44.833 11.833 -64.5 35.5s-31.167 48.167 -34.5 73.5c0 2.66699 1.33301 10 4 22l5 18c0 3.33301 -1 8.66602 -3 15.999l-4 11c0 8 23.333 12 70 12zM140.998 236.001c21.333 0 43.834 -6.83301 67.501 -20.5
s35.5 -26.834 35.5 -39.501c0 -26.667 -7.66699 -65.667 -23 -117c-14 -46 -30.333 -69 -49 -69c-22 0 -39 22.333 -51 67c-12.667 47.333 -19 94 -19 140c0 10.667 4.16699 19.834 12.5 27.501s17.166 11.5 26.499 11.5z" />
    <glyph glyph-name="semicolon" unicode=";" horiz-adv-x="405" 
d="M203 748c21.333 0 43.6689 -6.83301 67.002 -20.5s35 -26.834 35 -39.501c0 -15.333 -5.33301 -48 -16 -98c-4.66699 -23.333 -12.834 -43.833 -24.501 -61.5s-22.167 -26.5 -31.5 -26.5c-22 0 -39 22.333 -51 67c-12 45.333 -18 92 -18 140
c0 10.667 4.16699 19.834 12.5 27.501s17.166 11.5 26.499 11.5zM205.003 301c17.333 0 35.666 -4.83301 54.999 -14.5s29 -18.5 29 -26.5c0 -74 -24.667 -150.333 -74 -229c-35.333 -60 -58.666 -90 -69.999 -90c-6.66699 0 -10 2 -10 6c0 9.33301 3.33301 38 10 86
c8.66699 46.667 13 80.667 13 102c0 100.667 15.667 156 47 166z" />
    <glyph glyph-name="less" unicode="&#x3c;" horiz-adv-x="679" 
d="M143 434c0 16.667 7.66602 24.9971 22.999 24.9971c2.66699 0 9.5 -2.16699 20.5 -6.5s17.833 -6.5 20.5 -6.5c16.667 0 55 26 115 78c62.667 54.667 110.334 88.334 143.001 101.001c0.666992 0.666992 6 3.83398 16 9.50098l26.5 14.5l27.5 14
c10.667 5.33301 20.667 9.5 30 12.5s17 4.5 23 4.5c20 0 30 -8.33301 30 -25s-13.333 -34.5 -40 -53.5s-46 -28.5 -58 -28.5l-112 -61c-110.667 -55.333 -166 -86.666 -166 -93.999c98.667 -90.667 171 -159 217 -205l33 -29c41.333 -33.333 63 -68 65 -104
c-1.33301 -1.33301 -7.33301 -4.83301 -18 -10.5s-16.334 -8.5 -17.001 -8.5c-14 0 -51.333 20 -112 60c-13.333 4.66699 -30.666 17.667 -51.999 39c-2.66699 2 -18.5 11.5 -47.5 28.5s-47.167 30.5 -54.5 40.5c-34 32 -62.667 80 -86 144
c-0.666992 2 -3.5 6.33301 -8.5 13s-9.33301 14.167 -13 22.5s-5.5 16.833 -5.5 25.5z" />
    <glyph glyph-name="equal" unicode="=" horiz-adv-x="757" 
d="M655 578c-10.667 -6 -40.666 -13 -89.999 -21l-239 -43c-54.667 -8 -82.667 -12 -84 -12l-41 -13c-25.333 -8 -41 -12 -47 -12c-33.333 2 -54 24.667 -62 68c49.333 16 119.666 31.667 210.999 47c96 16 170.333 24 223 24c70.667 0 113.667 -12.667 129 -38z
M696.001 414c-10.667 -6 -40.666 -12.999 -89.999 -20.999l-94 -12l-84 -10c-16 -2 -31 -4.16699 -45 -6.5l-29.5 -5c-5.66699 -1 -8.83398 -1.5 -9.50098 -1.5c-8 -0.666992 -24.833 -0.5 -50.5 0.5s-39.5 1.5 -41.5 1.5c-34 2 -53 15.667 -57 41
c44.667 15.333 102.667 27.666 174 36.999c76 10 142 15 198 15c70.667 0 113.667 -13 129 -39z" />
    <glyph glyph-name="greater" unicode="&#x3e;" horiz-adv-x="641" 
d="M188 43c-14.667 0 -22 19.667 -22 59c0 12 6.16699 27.5 18.5 46.5s25.833 35.833 40.5 50.5l60 59l51 49c49.333 55.333 74 83.333 74 84c2 5.33301 -4.33301 12.833 -19 22.5s-34 21.167 -58 34.5s-48.5 28.166 -73.5 44.499s-48.667 36.333 -71 60
s-37.5 47.834 -45.5 72.501c4 1.33301 12.333 2 25 2c22.667 2.66699 49 -4 79 -20s58.5 -34.667 85.5 -56s43.167 -33 48.5 -35c8.66699 -4 23.167 -12.667 43.5 -26s32.5 -21 36.5 -23c63.333 -33.333 99.333 -55.333 108 -66c6 -8 9 -16 9 -24
c0 -18 -39.667 -61.667 -119 -131l-47 -39l-113 -111c-4 -4 -11 -12.5 -21 -25.5s-19.167 -22.833 -27.5 -29.5s-17.5 -10 -27.5 -10c-15.333 0 -27 4 -35 12z" />
    <glyph glyph-name="question" unicode="?" horiz-adv-x="638" 
d="M477 1315c0.666992 0 4.16797 0.333984 10.501 1.00098s10.5 1 12.5 1c29.333 0 55 -7.16699 77 -21.5s33 -31.833 33 -52.5c0 -22 -13 -67.667 -39 -137c-25.333 -70 -58 -145.667 -98 -227l-35.5 -72l-26 -53.5c-6.33301 -13 -9.83301 -20.5 -10.5 -22.5
c-2 -6 -13.333 -31.333 -34 -76c-5.33301 -14 -12.5 -30.167 -21.5 -48.5s-13.5 -27.833 -13.5 -28.5c-20.667 -52 -31 -98 -31 -138c0 -44.667 -9 -67 -27 -67c-36.667 0 -55 37.333 -55 112c0 5.33301 3.33301 15.666 10 30.999s10.334 25 11.001 29
c0 2 -0.666992 5.33301 -2 10s-2 7.33398 -2 8.00098c24 67.333 62 161.666 114 282.999c68 158.667 103.667 242.667 107 252c2.66699 6 6.5 21.5 11.5 46.5s9.83301 45.5 14.5 61.5c8.66699 27.333 13 41.666 13 42.999c0 8.66699 -4.33301 13 -13 13
c-4.66699 0 -20.334 -7 -47.001 -21c-134.667 -46.667 -223.334 -110 -266.001 -190c-3.33301 -6 -7.83301 -19.333 -13.5 -40s-12.167 -35.667 -19.5 -45s-17.666 -12.666 -30.999 -9.99902c-44.667 0 -67 17.333 -67 52c0 34 19.667 72.667 59 116c38 40 79 72.333 123 97
c99.333 54.667 184.666 86 255.999 94zM178.001 219.001c18.667 2.66699 29.667 4.00098 33 4.00098c28 0 50.667 -6.33301 68 -19s26 -28 26 -46c0 -22.667 -6 -61.667 -18 -117c-10 -53.333 -25.667 -80 -47 -80s-42 16.333 -62 49c-18.667 34 -28 62.667 -28 86
c10 33.333 11.333 64.666 4 93.999c0 17.333 8 27 24 29z" />
    <glyph glyph-name="at" unicode="@" horiz-adv-x="821" 
d="M459 1061c64 0 122.495 -24.5029 175.495 -73.5029s90.833 -118.833 113.5 -209.5c6.66699 -32 10 -90 10 -174c0 -84.667 -22 -189 -66 -313c-43.333 -121.333 -83.666 -182 -120.999 -182c-20 0 -36.333 6.16699 -49 18.5s-21.167 27.333 -25.5 45
s-7.5 35.334 -9.5 53.001s-4.33301 32.667 -7 45s-7 18.5 -13 18.5c-4 0 -13 -7 -27 -21l-20 -20c-18 -10 -35.667 -15 -53 -15c-31.333 0 -56.666 13.167 -75.999 39.5s-29 60.5 -29 102.5c0 65.333 16.333 129.333 49 192c34 64.667 65.667 97 95 97
c22.667 0 50.334 -6.33301 83.001 -19c33.333 -12 50 -24.333 50 -37c2 -6 -0.166992 -10.667 -6.5 -14s-15.166 -6 -26.499 -8s-18.333 -3.33301 -21 -4c-27.333 -12 -54.666 -47.667 -81.999 -107c-25.333 -53.333 -38 -101 -38 -143c0 -11.333 2 -17 6 -17
c20 0 41.667 28 65 84l35 84c19.333 19.333 42 29 68 29c16 0 24 -6 24 -18c0 -2 -1.33301 -8.33301 -4 -19s-4 -17.334 -4 -20.001l4 -29c2.66699 -20 4 -31.667 4 -35c0 -2 -2.33301 -16.667 -7 -44s-7 -49.333 -7 -66c0 -49.333 6.66699 -71.666 20 -66.999
c14.667 4.66699 30 31.334 46 80.001c5.33301 16 9.33301 31.333 12 46l10 41c24.667 100.667 37 195.667 37 285c0 34.667 -9.66699 83.667 -29 147c-18.667 60 -35.667 95.667 -51 107c-44.667 36.667 -84.334 55 -119.001 55c-84 0 -168 -98.333 -252 -295
c-37.333 -84.667 -57 -226.667 -59 -426c0 -1.33301 1.66699 -8.16602 5 -20.499s5 -21.166 5 -26.499c0 -2.66699 -0.333008 -9.16699 -1 -19.5s-1 -16.833 -1 -19.5c0 -61.333 19 -125 57 -191c39.333 -68 71 -102 95 -102c20 0 45.667 15.667 77 47l25 26l26 28l11 12
l8 10c8.66699 14.667 18.334 22 29.001 22s16 -5.33301 16 -16c0 -24 -15.667 -61.667 -47 -113c-30.667 -48.667 -71.667 -73 -123 -73c-59.333 0 -110.333 27.333 -153 82c-76.667 96.667 -115 218 -115 364c0 94 13 199.333 39 316c26.667 120 60 212.667 100 278l57 84
c10.667 17.333 36 42.666 76 75.999c36.667 28.667 73 43 109 43z" />
    <glyph glyph-name="A" unicode="A" horiz-adv-x="952" 
d="M877 -43c8.66699 13.333 16.6689 28.668 24.002 46.001s13.166 32.833 17.499 46.5l12 38.5c3.66699 12 7.16699 20.833 10.5 26.5s6.33301 7.83398 9 6.50098c7.33301 0 11 -13.667 11 -41c-4 -46.667 -7 -72 -9 -76l-24 -113c-7.33301 -28 -20.833 -51 -40.5 -69
s-44.5 -27 -74.5 -27c-28.667 0 -55 11.167 -79 33.5s-40 48.833 -48 79.5c-18 70 -27 188.667 -27 356c0 88 3.66699 163 11 225h-174l-50 -243c-8 -39.333 -24.333 -88 -49 -146c-21.333 -52.667 -41 -92 -59 -118c-28 -40 -64.333 -60 -109 -60
c-56 0 -101 27.667 -135 83s-51 124.666 -51 207.999c0 74 8.5 149.167 25.5 225.5s38.5 141.833 64.5 196.5c26 52.667 52.333 95.167 79 127.5s49.667 48.5 69 48.5c36.667 0 55 -11 55 -33l-18 -20c-12 -13.333 -26.333 -32.333 -43 -57s-29.667 -49.334 -39 -74.001
c-48 -127.333 -72 -276.333 -72 -447c0 -80 17 -144.667 51 -194c55.333 33.333 98.333 111.666 129 234.999c32 117.333 51.667 207.666 59 270.999c-6.66699 4 -17.5 8.83301 -32.5 14.5s-27.333 11 -37 16s-14.5 9.83301 -14.5 14.5c0 12.667 3.83301 24 11.5 34
s16.167 15 25.5 15c3.33301 0 11.666 -1.33301 24.999 -4s21.666 -4 24.999 -4c10.667 0 18.667 10.667 24 32c5.33301 20.667 10 33 14 37c0 12.667 1.16699 24.834 3.5 36.501s5.33301 22.5 9 32.5s5.83398 17 6.50098 21c2.66699 14.667 14.334 62.667 35.001 144
c18 70 29.333 117.667 34 143c5.33301 27.333 12.333 59.333 21 96c23.333 89.333 35 149.333 35 180c0 21.333 -2.66699 40.166 -8 56.499s-10.833 28.833 -16.5 37.5s-8.5 14.334 -8.5 17.001c0 22 16.333 39 49 51c36.667 12.667 64 19 82 19
c17.333 0 29.666 -3.66699 36.999 -11c24.667 -17.333 43 -50 55 -98c0 -1.33301 1.66699 -9.33301 5 -24s5 -23 5 -25c2 -31.333 5 -142.666 9 -333.999c4 -192.667 6 -301.667 6 -327l-1 -18c-0.666992 -11.333 -1 -19 -1 -23c0 -14 6 -21 18 -21
c0.666992 0 2.66699 0.333008 6 1s5.33301 1 6 1c10.667 2 15.667 -1.66699 15 -11c-1.33301 -15.333 -10 -30.666 -26 -45.999c-9.33301 -8 -17.666 -12.333 -24.999 -13c4 0 6 -4.66699 6 -14l-1 -6c-0.666992 -4 -1 -7.33301 -1 -10c0 -40 -0.666992 -79.667 -2 -119
v-127c0 -2.66699 -0.333008 -10.334 -1 -23.001s-1 -20.667 -1 -24c6 -181.333 25 -272 57 -272c9.33301 0 17.666 6.66699 24.999 20zM666.002 1235c0 8 -1.33301 11.999 -4 11.999c-11.333 0 -26 -45.667 -44 -137c-19.333 -98 -38.333 -203 -57 -315l-33 -189
c0 -10.667 7.66699 -16 23 -16c34 0 60 2 78 6c15.333 2.66699 26 7 32 13s9 14.667 9 26c0 68.667 0.666992 135 2 199c2 204.667 0 338.334 -6 401.001z" />
    <glyph glyph-name="B" unicode="B" horiz-adv-x="966" 
d="M678 1358c0 21.333 -7.99805 38.9951 -23.998 52.9951s-36 21 -60 21c-60 0 -127.667 -27.333 -203 -82c-70.667 -52.667 -119.667 -98 -147 -136c-50.667 -71.333 -76 -140.666 -76 -207.999c0 -6.66699 0.833008 -13 2.5 -19s3.33398 -10.667 5.00098 -14
s3 -6.16602 4 -8.49902s1 -4 0 -5s-3.5 -1.5 -7.5 -1.5c-26.667 0 -55.334 9 -86.001 27c-30 17.333 -45 36.333 -45 57c0 14.667 6.66699 38.667 20 72c14 34 23.667 55.333 29 64c37.333 58 78.333 107.667 123 149c47.333 47.333 101.333 84.333 162 111
c88 39.333 167 59 237 59c56 0 103.167 -14 141.5 -42s57.5 -65.333 57.5 -112c0 -82 -16.333 -170 -49 -264c-8.66699 -26 -28.667 -64.667 -60 -116c-28 -46.667 -47 -77 -57 -91l-67 -90l-54 -69c80.667 31.333 153.667 47 219 47c44 0 92.667 -26.667 146 -80
c34 -36 51 -81 51 -135c0 -101.333 -22 -203 -66 -305s-78.667 -165.667 -104 -191c-90 -94 -195.667 -141 -317 -141c-52 0 -104.667 17 -158 51c-54.667 32.667 -82 58 -82 76c0 13.333 6 20 18 20c5.33301 0 26.666 -8.66699 63.999 -26c39.333 -18 75.333 -27 108 -27
c92 0 161.667 17.667 209 53c40 31.333 75 79.333 105 144c20.667 41.333 38.334 100.666 53.001 177.999c14 72 21 134.667 21 188c0 79.333 -23.333 119 -70 119c-42 0 -86.333 -10.333 -133 -31s-72.667 -41.667 -78 -63c-5.33301 -14 -8 -40 -8 -78
c0 -168 0.666992 -261 2 -279s3.16602 -37.167 5.49902 -57.5s4.33301 -36.666 6 -48.999s2.5 -19.166 2.5 -20.499c-0.666992 -13.333 -14.334 -17.666 -41.001 -12.999c-33.333 6.66699 -58 21.334 -74 44.001c-6.66699 9.33301 -10 19 -10 29
c-12 61.333 -20.667 133 -26 215l-13 160c-1.33301 6.66699 -2 22.334 -2 47.001c0 10 1.33301 57 4 141s4 131.667 4 143c0 5.33301 -1.33301 17.5 -4 36.5s-4 30.833 -4 35.5c0 5.33301 1.66699 15 5 29s5 22 5 24c-1.33301 8 -2 26.667 -2 56c0 58 10.333 143.333 31 256
c4.66699 6.66699 14.334 10 29.001 10c5.33301 0 13.333 -1.33301 24 -4c5.33301 5.33301 15.666 8 30.999 8c8 0 28.667 -9.66699 62 -29c-4.66699 -4.66699 -7 -8.66699 -7 -12c0 -2.66699 2.33301 -5.33398 7 -8.00098l8 -2c0 -1.33301 -2.66699 -2 -8 -2h-9
c0 -3.33301 -2 -14.833 -6 -34.5s-6 -30.167 -6 -31.5c-19.333 -142.667 -29 -266 -29 -370c0 -2 1.66699 -18 5 -48c124 195.333 186 386 186 572z" />
    <glyph glyph-name="C" unicode="C" horiz-adv-x="780" 
d="M762 295c0 -55.333 -10.3291 -113.332 -30.9961 -173.999c-18 -59.333 -48.667 -112.666 -92 -159.999c-42.667 -46.667 -89.667 -70 -141 -70c-266.667 0 -400 181.667 -400 545c0 124 11.5 237 34.5 339s60.833 213 113.5 333c33.333 75.333 83 149.666 149 222.999
c34.667 36.667 64 58 88 64c45.333 -12.667 72.666 -19 81.999 -19l10 70c8.66699 80 21.667 127.667 39 143c24.667 19.333 63 29 115 29c8 0 12 -4 12 -12c0 -26.667 -2 -57.667 -6 -93c-5.33301 -43.333 -12 -85.666 -20 -126.999l-17 -100
c-21.333 -139.333 -32 -239 -32 -299c0 -42 -5 -63 -15 -63c-20.667 0 -39.667 15 -57 45c-8 12 -12 24.333 -12 37c0 10.667 -1.5 36 -4.5 76s-4.5 65.667 -4.5 77c-6 114.667 -10.667 172 -14 172c-35.333 0 -77.666 -44.333 -126.999 -133
c-46.667 -84 -86.334 -181.667 -119.001 -293c-39.333 -142 -59 -310 -59 -504c0 -128 24 -229.667 72 -305c46.667 -73.333 99 -110 157 -110c44 0 81.667 17.667 113 53c55.333 60 88.666 142 99.999 246c0.666992 2.66699 1.16699 6.66699 1.5 12
s0.666016 12.666 0.999023 21.999s0.833008 17.666 1.5 24.999c2 62.667 7.66699 94 17 94c2.66699 0 5.66699 -1.16699 9 -3.5s7.16602 -6.83301 11.499 -13.5s8.33301 -15 12 -25s6.66699 -23.833 9 -41.5s3.5 -37.5 3.5 -59.5z" />
    <glyph glyph-name="D" unicode="D" horiz-adv-x="1054" 
d="M371 752c2 2 3.99707 10.667 5.99707 26l4 25l-3 11c-2 6.66699 -4 14.5 -6 23.5s-3 15.833 -3 20.5c0 99.333 2.66699 163.666 8 192.999c0 4.66699 0.666992 14.334 2 29.001s2 23.334 2 26.001c0 5.33301 -1 17.833 -3 37.5s-3 32.5 -3 38.5
c0 62.667 1.33301 100.667 4 114c-30 -16.667 -60 -38.334 -90 -65.001c-36 -30 -60.667 -56.667 -74 -80c-9.33301 -13.333 -20 -33.166 -32 -59.499s-22.167 -46.5 -30.5 -60.5s-16.166 -19.667 -23.499 -17c-18 0 -47.333 16.333 -88 49c-12 6 -18 16.333 -18 31
c4 14 13.333 28.333 28 43c38.667 44.667 103 106 193 184c35.333 32 83 60 143 84c25.333 13.333 64.333 25.666 117 36.999c32.667 5.33301 74.334 8 125.001 8c128.667 0 227 -34 295 -102c64 -67.333 96 -194.333 96 -381c0 -52.667 -6.33301 -108 -19 -166
c-10.667 -58 -27 -117.333 -49 -178l-34 -103c-8.66699 -30 -39 -107.667 -91 -233c30 23.333 79.333 54 148 92c62.667 36.667 113.667 55 153 55c16.667 0 25 -6 25 -18c0 -1.33301 -5 -4.83301 -15 -10.5l-45.5 -27c-20.333 -12.333 -39.833 -25.166 -58.5 -38.499
c-99.333 -71.333 -184.666 -152.666 -255.999 -243.999c-70.667 -92 -116.334 -156 -137.001 -192c-18 -30.667 -40.333 -57.5 -67 -80.5s-50 -34.5 -70 -34.5c-12 0 -29.667 5.5 -53 16.5s-37.666 19.167 -42.999 24.5c-1.33301 1.33301 -4.5 3.33301 -9.5 6
s-8.83301 5.5 -11.5 8.5s-4 7.16699 -4 12.5c0 7.33301 2.33301 12.5 7 15.5s14.5 7.33301 29.5 13s29.5 13.167 43.5 22.5c-26.667 37.333 -50.667 87.666 -72 150.999c-22 65.333 -33 125.666 -33 180.999c0 273.333 4.33301 444 13 512zM722.997 317
c96.667 254 145 471.335 145 652.002c0 60.667 -6 118.667 -18 174c-12.667 62 -36.834 115 -72.501 159s-78.5 66 -128.5 66c-76 0 -122.333 -8.33301 -139 -25c0 -0.666992 1.33301 -17.667 4 -51c2 -28.667 4.66699 -47 8 -55c-7.33301 -50 -12 -152.333 -14 -307
c0 -153.333 -2.66699 -254.333 -8 -303c-8.66699 -88.667 -13 -210.334 -13 -365.001c0 -45.333 5 -99.333 15 -162s21 -109.667 33 -141c24 25.333 56 77.333 96 156c36.667 71.333 67.334 138.666 92.001 201.999z" />
    <glyph glyph-name="E" unicode="E" horiz-adv-x="821" 
d="M393 1112c0 -74 8.16797 -145.997 24.501 -215.997s35.5 -124.333 57.5 -163c34 0 69.667 -6.66699 107 -20c38 -12 57 -29 57 -51c0 -10 -9.66699 -30.667 -29 -62c-18 -27.333 -36.333 -41 -55 -41c-17.333 0 -59.666 28 -126.999 84
c-36.667 -12 -75.667 -56.333 -117 -133c-40.667 -75.333 -61 -147 -61 -215c0 -2 0.666992 -6.5 2 -13.5s2 -11.5 2 -13.5l-2 -10c-1.33301 -7.33301 -2 -12.666 -2 -15.999c0 -105.333 28.667 -194.333 86 -267c26.667 -32.667 70.334 -49 131.001 -49
c48 0 95 32.333 141 97c46 67.333 81 132.666 105 195.999c26.667 65.333 41 98 43 98c8.66699 0 16.667 -4.16699 24 -12.5s11 -16.833 11 -25.5c0 -32 -4.16699 -66.667 -12.5 -104s-21.833 -76 -40.5 -116s-41.167 -76.167 -67.5 -108.5s-59.833 -58.833 -100.5 -79.5
s-84.667 -31 -132 -31c-96.667 0 -178.334 40.333 -245.001 121c-64.667 82 -97 172 -97 270c0 217.333 98.333 378 295 482l-31 45l-30 49l-27 43c-14 24 -29.667 57.333 -47 100c-12 33.333 -18 67.666 -18 102.999c0 143.333 30.667 254.333 92 333
c43.333 53.333 94.333 80 153 80c40 0 114 -24.333 222 -73c1.33301 4 3.5 10.167 6.5 18.5s5.66699 16.166 8 23.499s4.83301 14.5 7.5 21.5s5.16699 12.167 7.5 15.5s4.5 4.33301 6.5 3c19.333 0 39.666 -6.83301 60.999 -20.5s32 -25.5 32 -35.5
c0 -82 -38.333 -200.667 -115 -356c-6 -8.66699 -15.167 -25.334 -27.5 -50.001s-23.833 -43.667 -34.5 -57s-22 -20 -34 -20c-14 0 -21 7.33301 -21 22c0 6 9 47 27 123c18.667 78.667 28 130.667 28 156c0 2 0.833008 12 2.5 30s2.5 28.333 2.5 31
c0 12.667 -13.667 30.667 -41 54c-30.667 22.667 -64.334 34 -101.001 34c-34.667 0 -64.5 -25 -89.5 -75s-37.5 -116.333 -37.5 -199z" />
    <glyph glyph-name="F" unicode="F" horiz-adv-x="919" 
d="M1032 1491c0 -65.333 -31.3311 -103 -93.998 -113c-28.667 -6 -79.334 -10 -152.001 -12c-69.333 -2 -112.333 -5.33301 -129 -10c-14.667 -32.667 -22 -80.667 -22 -144c0 -181.333 17.667 -336 53 -464c67.333 22.667 114.333 34 141 34c14 0 27.667 -1.33301 41 -4
c-2 -2 -3.33301 -4 -4 -6s-0.666992 -3.5 0 -4.5s2 -1.5 4 -1.5c-20 0 -65.667 -30 -137 -90c-20.667 -18.667 -31 -40 -31 -64c0 -8 4.33301 -46 13 -114c9.33301 -58.667 14 -108.667 14 -150c0 -208 -23.333 -346.667 -70 -416c-28.667 -40.667 -63.334 -61 -104.001 -61
c-78.667 0 -151 17 -217 51c-66.667 32.667 -100 77.667 -100 135c-0.666992 47.333 9.33301 98 30 152s42.167 96.667 64.5 128s37.833 45.333 46.5 42c10.667 0 17 -2 19 -6s3 -13 3 -27c0 -6 -4.66699 -40.667 -14 -104c-8 -66 -12 -126.333 -12 -181
c0 -24.667 14 -46.834 42 -66.501s56.333 -29.5 85 -29.5c23.333 0 43 41.667 59 125c18 84 27 167.333 27 250c0 12 -3.33301 57 -10 135c-5.33301 58.667 -11 103.667 -17 135c-90 2 -148.667 26 -176 72c12.667 5.33301 37.334 8 74.001 8
c29.333 0 60.666 -1.33301 93.999 -4c0 0.666992 -1 5.66699 -3 15l-10.5 49l-15.5 75c-18.667 95.333 -28 172.666 -28 231.999c-32.667 -32.667 -62.667 -60.667 -90 -84c-60.667 -52 -108.667 -78 -144 -78c-55.333 0 -101 22 -137 66c-34 42 -51 90.333 -51 145
c0 160 165 263.667 495 311c0 0.666992 1.33301 4 4 10l7.5 17l8.5 19.5c3.33301 7.66699 6.5 14.5 9.5 20.5s6.16699 11.5 9.5 16.5s6.33301 8.66699 9 11s4.66699 2.83301 6 1.5c18.667 0 28 -27.667 28 -83c3.33301 0.666992 44.333 5.33398 123 14.001
c77.333 10.667 129.333 19.334 156 26.001c16 4.66699 29.667 20 41 46c12 26.667 20 40 24 40c9.33301 0 17.833 -6.16699 25.5 -18.5s11.5 -27.833 11.5 -46.5zM209.002 1137c0 -36.667 6.16602 -70.167 18.499 -100.5s28.5 -45.5 48.5 -45.5c30.667 0 67.667 15 111 45
c44.667 31.333 80.334 60 107.001 86c2 66.667 14.667 137.667 38 213c-76 -15.333 -149.667 -42 -221 -80c-68 -36.667 -102 -76 -102 -118z" />
    <glyph glyph-name="G" unicode="G" horiz-adv-x="774" 
d="M231 500c0 -6 0.827148 -19.498 2.49414 -40.498s2.5 -34.167 2.5 -39.5s-0.5 -14.666 -1.5 -27.999s-1.5 -21.666 -1.5 -24.999c0 -37.333 11.667 -86 35 -146c23.333 -57.333 44 -86 62 -86c43.333 0 90.333 54 141 162l68 145
c1.33301 9.33301 -2.33398 35.333 -11.001 78c-8 38.667 -12 64.667 -12 78c0 20.667 26 31 78 31c26.667 0 44.334 -18.667 53.001 -56c5.33301 -16 10.833 -43.833 16.5 -83.5s9.83398 -64.834 12.501 -75.501c4.66699 -13.333 9.33398 -42 14.001 -86
c10.667 -45.333 17.667 -80.333 21 -105l55 76l59 80c26 38 46 57 60 57c10.667 0 16 -4 16 -12c0 -3.33301 -2.66699 -10 -8 -20l-23.5 -43.5c-10.333 -19 -19.5 -37.5 -27.5 -55.5l-47 -98c-49.333 -104.667 -74 -166 -74 -184c0 -34.667 0.666992 -67.667 2 -99
c2.66699 -65.333 4 -98.666 4 -99.999c0 -76 -13 -140.333 -39 -193c-25.333 -56 -58.666 -84 -99.999 -84c-45.333 0 -84.333 9 -117 27c-20.667 10.667 -31 40.667 -31 90c6 70 29.333 139.667 70 209c16 21.333 35 54.666 57 99.999c27.333 47.333 41 80.333 41 99
c0 30.667 -4.66699 77.667 -14 141s-19.666 116 -30.999 158c-10.667 -48 -25.667 -98 -45 -150c-26 -71.333 -42.333 -113.666 -49 -126.999c-7.33301 -15.333 -20 -30 -38 -44s-32 -21 -42 -21c-29.333 0 -54.333 2 -75 6s-46 13.333 -76 28
c-110.667 62 -166 195.333 -166 400c0 122.667 35.333 283.667 106 483c43.333 121.333 111 249.666 203 384.999c39.333 61.333 71.333 92 96 92c4.66699 0 18.334 -4 41.001 -12s36.334 -12 41.001 -12s10 17 16 51s15.667 51 29 51c24 0 46.333 -6.5 67 -19.5
s31 -25.5 31 -37.5c0 -40 -10.667 -100 -32 -180c-18 -74.667 -36.667 -138.334 -56 -191.001l-8 -31c-6 -20.667 -11.5 -35.334 -16.5 -44.001s-10.5 -11.667 -16.5 -9c-11.333 0 -18.5 6.66699 -21.5 20s-3.83301 38.666 -2.5 75.999l4 54v121c1.33301 42 2 75.333 2 100
c-72.667 -47.333 -145 -164 -217 -350c-71.333 -184 -107 -354 -107 -510zM628.994 -65.998c-64.667 -122 -97 -208.668 -97 -260.001c0 -9.33301 4.83301 -17.666 14.5 -24.999s23.5 -11 41.5 -11c7.33301 0 16 37.333 26 112c10 74 15 135.333 15 184z" />
    <glyph glyph-name="H" unicode="H" horiz-adv-x="1126" 
d="M774 608c0 4.66699 0.666992 13.6748 2 27.0078s2 22.333 2 27c0 4 -1.33301 16.667 -4 38l-121 -38c-50.667 -15.333 -88.667 -23 -114 -23c-26 -250.667 -39 -478.667 -39 -684c-2 -34.667 -1.33301 -75 2 -121c0 -12.667 -2.66699 -20.334 -8 -23.001
s-19.666 -4 -42.999 -4c-43.333 0 -72.333 10.833 -87 32.5s-22 61.5 -22 119.5c0 62.667 10.333 200 31 412c0.666992 6.66699 1.66699 14.834 3 24.501s3.16602 21.667 5.49902 36s4.16602 26.833 5.49902 37.5c8 45.333 12 78 12 98c0 12 -7.16699 24.833 -21.5 38.5
s-40.5 33.834 -78.5 60.501c-4 4 -6 7.33301 -6 10c0 12 7.33301 18 22 18c5.33301 0 16.5 -1 33.5 -3s27.167 -3 30.5 -3c12.667 0 21.334 2.83301 26.001 8.5s7 17.167 7 34.5c0 2 -0.666992 6.16699 -2 12.5s-2 10.5 -2 12.5c0 20.667 5.33301 74.667 16 162
s16 135 16 143c0 18.667 4.33301 48 13 88c8 39.333 12 66.666 12 81.999v188c-12.667 0 -34.667 -15.667 -66 -47c-32 -32 -67.333 -78.333 -106 -139s-70 -122 -94 -184c-2.66699 -6 -5.5 -14.167 -8.5 -24.5s-5.66699 -20.333 -8 -30s-5 -18.834 -8 -27.501
s-5.83301 -15.334 -8.5 -20.001s-5.33398 -6.33398 -8.00098 -5.00098c-24 0 -47.167 10.167 -69.5 30.5s-33.5 42.833 -33.5 67.5c0 -3.33301 1 -3.33301 3 0c0 1.33301 0.333008 2.66602 1 3.99902c24.667 63.333 39 98.333 43 105c45.333 73.333 109 151 191 233
c80 80 151 132.667 213 158c10.667 2.66699 18 4 22 4c28 0 56 -6.33301 84 -19s43.667 -25.334 47 -38.001c0 -24 -5.33301 -59 -16 -105c-9.33301 -40 -14 -63 -14 -69c0 -8.66699 -4.66699 -26.334 -14 -53.001s-14.333 -42 -15 -46c-6 -36 -12 -87 -18 -153
c-6 -66.667 -11 -135 -15 -205c-2 -68 -4 -107 -6 -117c26.667 -6 66.334 -1.66699 119.001 13c52 16 80 32.333 84 49c17.333 65.333 35.666 188.666 54.999 369.999c2.66699 21.333 5.5 42.166 8.5 62.499l6.5 43.5c1.33301 8.66699 2 13.667 2 15c0 18 3.33301 51 10 99
c8 43.333 12 76.666 12 99.999c6 4 19 6 39 6c12 0 27.5 -4 46.5 -12s32.167 -15.667 39.5 -23c9.33301 -30.667 14 -56.667 14 -78c0.666992 -2 -4 -46.333 -14 -133c-1.33301 -22 -11 -76.667 -29 -164c-14.667 -79.333 -22 -120 -22 -122
c-2 -20.667 -7.66699 -59.667 -17 -117c-12 -62 -18 -125 -18 -189c0 -356.667 0.666992 -541 2 -553c6 -48.667 18.333 -73 37 -73c54 0 147.667 126.333 281 379c10 16 16 24 18 24c12 0 18 -8 18 -24c0 -38.667 -37.333 -135.667 -112 -291
c-22 -44.667 -51.333 -89.667 -88 -135c-36 -44 -67.667 -66 -95 -66c-57.333 0 -107.5 15.833 -150.5 47.5s-64.5 68.5 -64.5 110.5c0 32.667 5.66699 129 17 289c2.66699 41.333 5.33398 80 8.00098 116s4.66699 61.333 6 76s2 22.334 2 23.001
c0 13.333 -0.666992 22 -2 26z" />
    <glyph glyph-name="I" unicode="I" horiz-adv-x="659" 
d="M242 -47c-40 8 -66.0049 14.667 -78.0049 20c-15.333 6.66699 -27.666 13.167 -36.999 19.5s-18.5 16.666 -27.5 30.999s-14.833 31.833 -17.5 52.5c0 82.667 24.667 165.334 74 248.001l15.5 27l18 30l16.5 25.5c6 9 11.167 15.833 15.5 20.5s8.16602 7 11.499 7
c11.333 0 17 -13 17 -39c0 -1.33301 -7.66699 -47 -23 -137c-14.667 -84 -22 -141.333 -22 -172c0 -42 15.667 -63 47 -63c78 0 128.333 68 151 204c4.66699 52.667 7 119.667 7 201c0 22.667 -3 57.334 -9 104.001c-4 46.667 -6 81 -6 103
c0 11.333 0.333008 34.166 1 68.499s1 55.833 1 64.5c0 57.333 -1.5 112.666 -4.5 165.999s-6 95.833 -9 127.5s-4.5 49.834 -4.5 54.501c0 2 0.333008 6.5 1 13.5s1 11.5 1 13.5c0 1.33301 -0.166992 4.33301 -0.5 9l-1.5 20.5l-2 27.5c-1.33301 49.333 -1.33301 74 0 74
c-8 0 -12 5.33301 -12 16c0 2 1.33301 7 4 15c-20 0 -62.333 -18 -127 -54c-61.333 -34 -99.666 -51 -114.999 -51c-18.667 0 -35.5 6.66699 -50.5 20s-25.333 25.666 -31 36.999s-8.5 18.333 -8.5 21c0 5.33301 2.66699 8 8 8c2 0 5.33301 -0.666992 10 -2
s7.33398 -2 8.00098 -2c6.66699 0 31.334 7.66699 74.001 23l80 34c54.667 28.667 119 53.334 193 74.001c70.667 22 127.334 33 170.001 33c48.667 0 73 -7.66699 73 -23c0 -8 -6 -14.333 -18 -19s-28.333 -10.5 -49 -17.5s-37.667 -15.167 -51 -24.5
c0 -64 -1 -154.667 -3 -272c-1.33301 -78 -2 -163.333 -2 -256c0 -8.66699 0.833008 -25.834 2.5 -51.501s2.5 -42.167 2.5 -49.5c0 -6 -0.833008 -20.333 -2.5 -43s-2.5 -37 -2.5 -43c0 -26 2.33301 -84.667 7 -176c5.33301 -67.333 8 -124.666 8 -171.999
c0 -40.667 -7 -85.667 -21 -135c-1.33301 -4.66699 -7.16602 -23.167 -17.499 -55.5s-16.833 -53.5 -19.5 -63.5c-5.33301 -19.333 -25 -41 -59 -65c-33.333 -23.333 -64 -35 -92 -35c-40.667 0 -72 2.66699 -94 8z" />
    <glyph glyph-name="J" unicode="J" horiz-adv-x="770" 
d="M606 -27c-26.667 -99.333 -50.3281 -178.995 -70.9951 -238.995c-14 -44 -53.667 -66 -119 -66c-79.333 0 -162.666 31.333 -249.999 94c-26 15.333 -39 36 -39 62c0 46 32 106.667 96 182c24.667 27.333 44 47.333 58 60c59.333 59.333 108.333 106.333 147 141
c29.333 29.333 48.666 52.166 57.999 68.499s14 36.5 14 60.5c0 9.33301 -0.166992 22.5 -0.5 39.5l-1.5 74c-0.666992 32.333 -1.33398 60.833 -2.00098 85.5c-1.33301 68 -2 134 -2 198c0 10 -0.666992 30 -2 60s-2.33301 53.667 -3 71c-2.66699 81.333 -4 134 -4 158
c0 53.333 5 137.333 15 252c0 2.66699 0.666992 6.66699 2 12l2 8c0 2 -1.33301 6.83301 -4 14.5s-4 12.5 -4 14.5l6 25c-60.667 -19.333 -119.334 -48 -176.001 -86c-30 -20 -59.667 -41.5 -89 -64.5l-65 -51c-14 -11 -23.667 -16.5 -29 -16.5c-22 0 -46.333 15.333 -73 46
c-23.333 27.333 -35 53 -35 77c0 4.66699 32 22.667 96 54c55.333 27.333 107.333 49.666 156 66.999c157.333 62.667 306.666 94 447.999 94c4.66699 0 15 -4.66699 31 -14s27.667 -18.333 35 -27c-18.667 -24 -60.334 -39 -125.001 -45c-11.333 -16 -17 -48 -17 -96
c0 -10 -1.16699 -23.5 -3.5 -40.5s-4.83301 -33.833 -7.5 -50.5s-4.33398 -26.667 -5.00098 -30c-5.33301 -54 -8 -123.667 -8 -209v-176c1.33301 -52 2 -110 2 -174c0 -1.33301 -0.333008 -7 -1 -17s-1 -18 -1 -24c0 -20 -0.666992 -43 -2 -69c0 -100 0.666992 -156 2 -168
c8.66699 3.33301 30.667 14.666 66 33.999l98 53c30 16 46.333 23 49 21c41.333 0 32.333 -22.333 -27 -67l-112 -80c-38.667 -27.333 -64 -49.333 -76 -66c1.33301 -6 1.5 -12.667 0.5 -20s0.166992 -13 3.5 -17c0 -0.666992 -0.666992 -3.33398 -2 -8.00098
s-2 -7.33398 -2 -8.00098c0 -63.333 -9 -129 -27 -197zM360.006 23.0049c-65.333 -89.333 -98.001 -154.999 -98.001 -196.999c0 -18.667 10 -34 30 -46s44.333 -18 73 -18c10.667 0 21 5.5 31 16.5s17.833 22.333 23.5 34s12.334 27.167 20.001 46.5
s12.834 31.666 15.501 36.999c34 76 51 142 51 198c0 30.667 -2 47 -6 49c-82.667 -62.667 -129.334 -102.667 -140.001 -120z" />
    <glyph glyph-name="K" unicode="K" horiz-adv-x="1009" 
d="M551 1430c0 -28 -9.66504 -158.671 -28.998 -392.004c-17.333 -208.667 -26 -383.334 -26 -524.001c0 -16 -0.666992 -33 -2 -51c2.66699 -32.667 4.66699 -49 6 -49c2 0 14.333 49.667 37 149c27.333 108 59.333 227 96 357c40.667 136 79.667 240.333 117 313
c68 131.333 132.667 197 194 197c62.667 0 94 -43.333 94 -130c0 -86 -10.667 -164.333 -32 -235c-20 -76.667 -40 -115 -60 -115c-8.66699 0 -16 52.667 -22 158c-4 105.333 -9.66699 158 -17 158c-19.333 0 -52.666 -48 -99.999 -144c-42 -86 -80.333 -174.667 -115 -266
c-10.667 -28 -23.667 -66.333 -39 -115c-4.66699 -14 -13.334 -43.333 -26.001 -88l-25 -86l-16 -63c2.66699 -2.66699 4 -4.66699 4 -6c28.667 47.333 60.834 86 96.501 116s69.5 45 101.5 45c48 0 72 -23 72 -69c0 -44.667 -12.333 -141 -37 -289
c-24.667 -145.333 -37 -234.666 -37 -267.999c0 -15.333 2.33301 -27.666 7 -36.999c30 26 68.667 75.667 116 149l135 203c39.333 61.333 64 92 74 92c3.33301 0 7 -2 11 -6s6 -8 6 -12c2 -4 -2.83301 -17.167 -14.5 -39.5s-24.834 -45.833 -39.501 -70.5
s-22.667 -38.667 -24 -42l-74 -147l-61 -109c-43.333 -77.333 -81.666 -116 -114.999 -116c-44.667 0 -84.334 10 -119.001 30c-4 8.66699 -6.66699 32.334 -8 71.001s0 75.334 4 110.001l16 139c15.333 104.667 23 179 23 223c0 31.333 -8.33301 47 -25 47
c-20 0 -49.333 -32.667 -88 -98c-37.333 -60.667 -60.333 -116 -69 -166c-12.667 -72 -19 -169 -19 -291c0 -32.667 5 -68.667 15 -108c9.33301 -36.667 14 -58 14 -64c0 -26 -11 -39 -33 -39c-20.667 0 -48 20 -82 60c-32.667 38.667 -49 76.667 -49 114
c0 2 0.333008 6.16699 1 12.5s1 10.5 1 12.5c0 18.667 -2 52.667 -6 102c-4 48.667 -6 93.667 -6 135c0 74 0.666992 141 2 201s2 125.667 2 197c0 108 -0.666992 195.333 -2 262s-2 148 -2 244c0 5.33301 -1.33301 34 -4 86s-4 81.333 -4 88c0 30 -7 45 -21 45
c-17.333 0 -59 -33 -125 -99c-48.667 -44.667 -73 -99.667 -73 -165c0 -2.66699 0.333008 -7.66699 1 -15s1 -12 1 -14c0 -8 -3 -12 -9 -12c-21.333 0 -48 12 -80 36c-32.667 26.667 -49 48.667 -49 66c0 26 15.667 56.667 47 92c31.333 33.333 65.666 63.333 102.999 90
c20 15.333 44 30.333 72 45l53.5 32.5c11 7 22.167 15.5 33.5 25.5s19.666 20 24.999 30c7.33301 10.667 13 22.334 17 35.001c7.33301 20 14.5 33.167 21.5 39.5s18.167 9.5 33.5 9.5c26 0 54 -8.66699 84 -26c31.333 -18 47 -35 47 -51z" />
    <glyph glyph-name="L" unicode="L" horiz-adv-x="776" 
d="M440 1446c0 20.667 8.99707 32.999 26.9971 36.999l12 -2c27.333 -4 56.333 -12 87 -24s47.334 -25.333 50.001 -40c8.66699 -68 13 -147 13 -237c0 -278 -24.667 -523.333 -74 -736c-32 -136 -71.667 -238.333 -119 -307c-17.333 -26.667 -35.333 -50.5 -54 -71.5
s-33 -35.5 -43 -43.5l-15 -12c0 -6 6 -12 18 -18c3.33301 -2 25.166 -11.667 65.499 -29s71.833 -32.333 94.5 -45c86 -48 154.167 -81.167 204.5 -99.5s102.833 -27.5 157.5 -27.5c40.667 0 83.334 5.83301 128.001 17.5s78 27.167 100 46.5c24 24 38.333 36 43 36
c2 0 6 -6 12 -18c2.66699 -2.66699 4 -6 4 -10c0 -0.666992 -0.333008 -3.5 -1 -8.5s-1 -7.83301 -1 -8.5c0 -8 -5.33301 -21.167 -16 -39.5s-21.667 -33.166 -33 -44.499c-73.333 -73.333 -148.666 -110 -225.999 -110c-66 0 -145 24 -237 72
c-92.667 48.667 -172 95.667 -238 141c-66.667 46 -109 69 -127 69c-8.66699 0 -20 -2.66699 -34 -8c-54.667 -16 -88.334 -24 -101.001 -24c-19.333 0 -34.666 14.333 -45.999 43s-17 65.334 -17 110.001c0 14 12.333 21 37 21c8 0 25.667 -1.66699 53 -5
s43.666 -5 48.999 -5c42.667 -3.33301 85.334 33.5 128.001 110.5s77 173.667 103 290s38.333 228.5 37 336.5c0 52 0.666992 106 2 162s2 113.333 2 172c0 158 -4.66699 237 -14 237l-45 -33c-30.667 -24.667 -66.167 -57.5 -106.5 -98.5s-73.833 -80.5 -100.5 -118.5
c-36.667 -50.667 -55 -120.334 -55 -209.001c-27.333 4 -50.5 19 -69.5 45s-28.5 52 -28.5 78c0 43.333 18.333 88 55 134s80.334 84.667 131.001 116c125.333 77.333 188 130 188 158z" />
    <glyph glyph-name="M" unicode="M" horiz-adv-x="1536" 
d="M1354 745c-1.33301 -5.33301 -1.99707 -14.6758 -1.99707 -28.0088l-43 -236c-24.667 -129.333 -37 -211 -37 -245c0 -2.66699 -0.333008 -8 -1 -16s-1 -13 -1 -15v-4c1.33301 -1.33301 2 -2.66602 2 -3.99902c0 -3.33301 0.666992 -11.833 2 -25.5s2 -21.834 2 -24.501
c0 -14.667 1.33301 -48 4 -100c0 -12.667 3 -24 9 -34s12.667 -15 20 -15c11.333 0 32.333 16.333 63 49c28 28 55.333 60 82 96c16.667 24.667 38.667 59.667 66 105c78.667 124 121.667 186 129 186c10.667 0 16 -5.33301 16 -16c0 -19.333 -33.333 -92.333 -100 -219
c-40.667 -78 -87.334 -154 -140.001 -228c-54 -78.667 -98.333 -118 -133 -118c-26 0 -47.833 2.83301 -65.5 8.5s-29.667 11.334 -36 17.001s-13.666 14.167 -21.999 25.5s-14.166 18.666 -17.499 21.999c-23.333 35.333 -35 77.666 -35 126.999c0 150 38.333 439 115 867
c26 146.667 39 236 39 268c0 50.667 -9 76 -27 76c-10 0 -25 -18.667 -45 -56c-19.333 -33.333 -36.333 -68.666 -51 -105.999l-51 -123c-72 -172.667 -111.667 -273.667 -119 -303c-44 -186 -66 -300.667 -66 -344c0 -20 -2 -59.667 -6 -119c-4 -58.667 -6 -101 -6 -127
c1.33301 -4 2 -15 2 -33c0 -5.33301 -0.666992 -18.166 -2 -38.499s-2 -33.5 -2 -39.5c0 -3.33301 0.666992 -11.166 2 -23.499s2 -20.166 2 -23.499c0 -24.667 -21 -37 -63 -37c-26.667 0 -48.834 24 -66.501 72s-26.5 113 -26.5 195c0 33.333 11.667 132.333 35 297
s35 266.334 35 305.001c0 81.333 7 178.333 21 291l2 6c0 45.333 -2 76.333 -6 93l-7 26c0 5.33301 -0.666992 8 -2 8c-10.667 -2.66699 -17.334 -8.33398 -20.001 -17.001l-2 -6c-3.33301 -14.667 -14.333 -50 -33 -106c-18.667 -58 -29 -95.667 -31 -113l-94 -274
c-46.667 -138 -80.667 -242 -102 -312c-2.66699 -13.333 -4 -22.666 -4 -27.999c0 -0.666992 0.333008 -2.5 1 -5.5s1 -4.83301 1 -5.5s-7.66699 -53.667 -23 -159c-4 -19.333 -4.66699 -55 -2 -107c1.33301 -13.333 2 -29 2 -47c0 -8 1 -23.667 3 -47s3 -39 3 -47
c0 -13.333 -12 -20.333 -36 -21s-44.667 5 -62 17c-48 29.333 -72 71.666 -72 126.999c0 4.66699 1.33301 27.667 4 69c0 2 -0.333008 7 -1 15s-1 13.333 -1 16c0 8.66699 3.66699 36.667 11 84c8 38.667 12 67.334 12 86.001c0 2 -0.333008 5.83301 -1 11.5s-1 9.5 -1 11.5
c0 24.667 8.66699 103 26 235c19.333 147.333 29 226 29 236c0 2.66699 -0.333008 8 -1 16s-1 13.333 -1 16c0 22 4 55.667 12 101c8.66699 48.667 13 83.334 13 104.001c0 31.333 6 123 18 275c0 -8.66699 -25.333 -54.667 -76 -138
c-44.667 -76.667 -74.667 -125.667 -90 -147c-81.333 -108 -142 -162 -182 -162c-24 0 -47.167 8.66699 -69.5 26s-33.5 33.333 -33.5 48c-2 1.33301 1.16699 5 9.5 11l37.5 27l55 40c20 14.667 42.167 33 66.5 55s46.166 44 65.499 66c38.667 42.667 81 99.334 127 170.001
c47.333 74 83.333 119 108 135c45.333 0 77.5 -3.5 96.5 -10.5s30.833 -24.167 35.5 -51.5c0 -1.33301 -0.333008 -4 -1 -8s-1.33398 -9.33301 -2.00098 -16l-2 -21l-2 -21l-1.5 -15c-0.333008 -3.33301 -0.5 -5.66602 -0.5 -6.99902c0 -0.666992 0.833008 -5.5 2.5 -14.5
s2.16699 -15.167 1.5 -18.5c-15.333 -69.333 -31.666 -179.666 -48.999 -330.999c-18.667 -164 -28 -280 -28 -348c0 -2 0.333008 -5.5 1 -10.5s1 -8.5 1 -10.5c0 -2.66699 -0.666992 -7.66699 -2 -15s-2 -12 -2 -14c11.333 9.33301 20 35.333 26 78
c14.667 42 48.334 161.667 101.001 359c54 200.667 88.667 316 104 346l31 47c9.33301 13.333 23.666 25.166 42.999 35.499s40.333 15.5 63 15.5c58.667 0 88 -46.333 88 -139c0 -14.667 -5.33301 -62.667 -16 -144c-9.33301 -69.333 -14 -123.666 -14 -162.999
c0 -38 -9.33301 -115 -28 -231l-1 -7c2.66699 5.33301 28.667 84.666 78 237.999c48.667 154.667 95.167 272.5 139.5 353.5s88.5 121.5 132.5 121.5c48.667 0 87.667 -7.66699 117 -23c11.333 -6.66699 23.666 -30.667 36.999 -72l4 -20c0 -9.33301 -1 -30.666 -3 -63.999
s-3 -57.666 -3 -72.999c0 -5.33301 0.333008 -15.333 1 -30s1 -23.334 1 -26.001c0 -21.333 -9 -60.666 -27 -117.999c-16.667 -59.333 -25 -98.333 -25 -117c0 -14.667 -10.667 -64.667 -32 -150z" />
    <glyph glyph-name="N" unicode="N" horiz-adv-x="1071" 
d="M999 1239c0 -73.333 -3.33789 -127.333 -10.0049 -162c-40.667 -224 -76.667 -454.667 -108 -692c-16.667 -170.667 -25 -286 -25 -346c36 20 76.333 54 121 102c52 56.667 85.333 99 100 127c58.667 112 95 168 109 168c8 0 12 -3.33301 12 -10
c0 -13.333 -8 -44.666 -24 -93.999c-26 -79.333 -65 -164 -117 -254c-53.333 -92.667 -102 -139 -146 -139c-34 0 -79.667 15 -137 45c-31.333 16 -47 74 -47 174c0 64 6 154.667 18 272c4.66699 40 23.334 161 56.001 363c31.333 197.333 47 319.333 47 366
c0 50 -3.33301 92.333 -10 127c-10 -7.33301 -23.667 -27 -41 -59s-32.5 -62.333 -45.5 -91s-18.5 -42 -16.5 -40c-42.667 -89.333 -81.667 -189 -117 -299l-38 -123l-43 -142c-4 -18 -14.333 -57.333 -31 -118c-22 -91.333 -33 -178.666 -33 -261.999v-74
c1.33301 -31.333 2 -55.333 2 -72c-2.66699 -24 -4 -37.667 -4 -41c0 -5.33301 2.33301 -17.5 7 -36.5s7 -31.5 7 -37.5c0 -17.333 -9.33301 -26 -28 -26c-6.66699 0 -14.167 1.16699 -22.5 3.5s-17.666 5.83301 -27.999 10.5s-16.166 7.33398 -17.499 8.00098
c-36.667 10 -55 35.333 -55 76c0 26 -0.666992 58.667 -2 98s-2 73 -2 101c0 32.667 2.66699 77 8 133c6.66699 70 10 105.333 10 106c10.667 162 36.667 382 78 660c16 111.333 29.667 254.666 41 429.999c-15.333 -6.66699 -44 -32 -86 -76
c-40.667 -42.667 -81 -95.334 -121 -158.001c-38 -59.333 -57 -109 -57 -149c0 -3.33301 0.666992 -10.333 2 -21s2 -17.334 2 -20.001c0 -20.667 -4 -31 -12 -31c-22.667 0 -48 11 -76 33c-28.667 22.667 -43 39 -43 49c0 31.333 11.833 67.666 35.5 108.999
s50.834 78 81.501 110c38 38 67.333 66 88 84s36.334 32.333 47.001 43c48 60 90.333 90 127 90c62 0 114.333 -40 157 -120c4 -8 6 -15 6 -21c0 -35.333 -12 -115 -36 -239l-41 -216l-23 -129c-28.667 -153.333 -43 -244.666 -43 -273.999c0 -10.667 2 -16 6 -16
c3.33301 0 13 28.667 29 86l49 178l29 100c18 48.667 37 104.667 57 168l80 242c4.66699 21.333 19.167 41.333 43.5 60s47.5 28 69.5 28c37.333 0 73.333 -19.333 108 -58c35.333 -37.333 53 -72 53 -104z" />
    <glyph glyph-name="O" unicode="O" horiz-adv-x="778" 
d="M752 295c-34.667 6 -64.667 17.668 -90 35.001c-30 -118.667 -62.333 -214.334 -97 -287.001c-41.333 -91.333 -102 -137 -182 -137c-54.667 0 -101.167 24.667 -139.5 74s-65.5 116 -81.5 200c-26 136 -39 257.667 -39 365c0 220 30 398.667 90 536
c27.333 60 48.333 104.333 63 133c22 42.667 45.333 82.334 70 119.001c58.667 87.333 129 131 211 131c28 0 44.333 -3.33301 49 -10c4 -8 6 -20.333 6 -37c0 -6 -15 -29 -45 -69c-28.667 -38.667 -43 -64 -43 -76c0 -6.66699 5 -10 15 -10
c1.33301 0 6.83301 3.66699 16.5 11s21.667 14.5 36 21.5s27.5 10.5 39.5 10.5c25.333 0 47 -25.333 65 -76c20.667 -50.667 31 -101.334 31 -152.001c0 -291.333 -16.333 -517.333 -49 -678c22 -30 46 -45 72 -45c20 0 45 15 75 45c31.333 31.333 49.333 47 54 47
c6.66699 0 10 -4 10 -12c0 -22 -15.667 -50.667 -47 -86s-61.333 -53 -90 -53zM545 250.001c16.667 62.667 29.001 114.669 37.001 156.002c-49.333 66 -82.833 142.667 -100.5 230s-26.5 199.666 -26.5 336.999c0 72 17 162 51 270l-14 19
c-78 -66 -136.333 -180.667 -175 -344c-38 -158 -57 -324 -57 -498c0 -79.333 9 -153 27 -221c16.667 -62.667 36 -110.834 58 -144.501s42.333 -50.5 61 -50.5c49.333 0 95.666 82 138.999 246zM535.001 877.003c0 -123.333 23 -240.333 69 -351
c24.667 164 37 346.333 37 547c0 20.667 -4 46.667 -12 78c-6 30 -13 45 -21 45c-12 0 -23.5 -12.167 -34.5 -36.5s-20.167 -61.5 -27.5 -111.5s-11 -107 -11 -171z" />
    <glyph glyph-name="P" unicode="P" horiz-adv-x="870" 
d="M266 1174c-25.333 -23.333 -45.999 -51.1689 -61.999 -83.502s-24 -57.833 -24 -76.5c4 -12 6 -21.667 6 -29c0 -15.333 -9.33301 -28.333 -28 -39c-20.667 2 -40.667 18.333 -60 49c-20 31.333 -30 60.666 -30 87.999c0 40.667 36 92.667 108 156
c67.333 62 129.333 105.667 186 131c108 46.667 203 70 285 70c72.667 0 124 -15 154 -45c10.667 -10.667 21.667 -24.5 33 -41.5s20.166 -31.5 26.499 -43.5s13.666 -26.833 21.999 -44.5l14.5 -30.5l4 -12c0 -5.33301 0.666992 -19.5 2 -42.5s2 -37.5 2 -43.5
c0 -30 -3.33301 -54.667 -10 -74c-2 -10 -5 -20 -9 -30s-10.5 -23.167 -19.5 -39.5s-15.167 -28.166 -18.5 -35.499c-59.333 -114 -133 -215 -221 -303c-11.333 -17.333 -32.333 -38.833 -63 -64.5s-56.5 -48.5 -77.5 -68.5s-30.167 -36.333 -27.5 -49
c0 -97.333 3.33301 -178.666 10 -243.999c7.33301 -54.667 23 -120 47 -196c0 -1.33301 4.16699 -12.333 12.5 -33s12.5 -33 12.5 -37c0 -10.667 -18.667 -16 -56 -16c-42.667 0 -81.334 51.667 -116.001 155s-52 179.333 -52 228c0 8.66699 0.333008 19.5 1 32.5
s1.33398 29.167 2.00098 48.5s1.33398 36.666 2.00098 51.999c0 2 -0.5 6 -1.5 12s-1.5 10 -1.5 12s1.5 9.5 4.5 22.5s4.5 22.167 4.5 27.5c0 8 -0.666992 30.167 -2 66.5s-2 61.833 -2 76.5c0 50 3.33301 82.667 10 98c8 40.667 14 108.334 18 203.001
c4 88.667 11.667 154.334 23 197.001c6.66699 25.333 10 39.666 10 42.999c0 14.667 -3.33301 22 -10 22c-7.33301 0 -23.333 -7.66699 -48 -23s-45 -30.666 -61 -45.999zM518.001 699.997c71.333 76 135.667 176.333 193 301c36.667 75.333 55 151.333 55 228
c0 30 -12.167 55.833 -36.5 77.5s-56.5 32.5 -96.5 32.5c-35.333 0 -75 -5.33301 -119 -16c-40.667 -10 -61 -26.333 -61 -49c0 -11.333 13 -38.666 39 -81.999c6.66699 -22 10 -59.667 10 -113c0 -34.667 -7 -103 -21 -205c-13.333 -95.333 -20 -162 -20 -200
c0 -12.667 0.666992 -19 2 -19c2.66699 0 11.5 6.16699 26.5 18.5s24.5 21.166 28.5 26.499z" />
    <glyph glyph-name="Q" unicode="Q" horiz-adv-x="782" 
d="M125 236c-14 41.333 -20.999 95.0039 -20.999 161.004c0 23.333 3.66699 82.666 11 177.999c6.66699 88.667 10 142 10 160c0 25.333 6.66699 65 20 119c15.333 62.667 23 101.667 23 117c4 30.667 17.667 78.334 41 143.001
c23.333 63.333 39.666 101.666 48.999 114.999c5.33301 8 21 36 47 84c24.667 46 47.167 78.667 67.5 98s44.166 29 71.499 29c62 0 116.667 -13.667 164 -41c46.667 -26.667 70 -53.334 70 -80.001c0 -12 -9 -23 -27 -33c35.333 -18 59.833 -43.833 73.5 -77.5
s20.5 -63.834 20.5 -90.501c8.66699 -46.667 13 -78.667 13 -96c0 -8 -2.16699 -23.333 -6.5 -46s-6.5 -36.667 -6.5 -42c-25.333 -262.667 -60 -441 -104 -535c-2.66699 -8.66699 -15 -35.334 -37 -80.001c-21.333 -44 -33 -76 -35 -96c0 -3.33301 -1.33301 -14.333 -4 -33
v-10c46.667 -68 105.334 -128.667 176.001 -182c76.667 -57.333 131.334 -86 164.001 -86l17 2c-20.667 -56 -65.334 -84 -134.001 -84c-37.333 0 -81 26 -131 78c-36.667 38 -74 82.333 -112 133l-35 45l-6 -12c-1.33301 -6.66699 -4.66602 -15 -9.99902 -25l-7 -14
c-2.66699 -1.33301 -10.834 -8.83301 -24.501 -22.5s-29.167 -25.667 -46.5 -36s-35.333 -15.5 -54 -15.5c-60.667 0 -110.5 25.167 -149.5 75.5s-68.167 116.833 -87.5 199.5zM604.001 1118c-1.33301 4 -11.666 19.667 -30.999 47c-14.667 24 -22 41.333 -22 52
c0 43.333 14.333 65 43 65c-22 22 -42.667 33 -62 33c-20.667 -2.66699 -41.834 -12.334 -63.501 -29.001s-38.5 -35 -50.5 -55l-33 -64l-37 -84c-25.333 -60.667 -39 -94 -41 -100c-14 -48 -25 -104 -33 -168c-4.66699 -35.333 -11.334 -98 -20.001 -188l-12 -121
c-2 -6 -2 -30.667 0 -74l2 -35.5l1.5 -26c0.333008 -5.66699 0.5 -9.16699 0.5 -10.5c0 -17.333 0.666992 -28 2 -32c4 -46 17.667 -104.667 41 -176c25.333 -68.667 51.333 -103 78 -103c14 0 26 15 36 45c12.667 32.667 19 56 19 70c-2 16.667 -13 47.334 -33 92.001
c-19.333 50 -29.666 81.333 -30.999 94c0 2.66699 0.333008 8 1 16s1 13 1 15c0 0.666992 -0.5 2.83398 -1.5 6.50098l-3.5 12.5c-1.33301 4.66699 -2.33301 8 -3 10c0 20 13 30 39 30c9.33301 0 26.333 -25 51 -75c24.667 -50.667 39.667 -76 45 -76
c18 0 44.667 54.667 80 164c52 185.333 78 347.666 78 486.999c0 62.667 -13.667 122 -41 178z" />
    <glyph glyph-name="R" unicode="R" horiz-adv-x="1087" 
d="M1102 -16c-25.333 -33.333 -62.332 -49.999 -110.999 -49.999c-40 0 -81 14.833 -123 44.5s-80.667 69.5 -116 119.5c-24 35.333 -53.333 83.333 -88 144c-24 42 -48.667 87.667 -74 137c-22 44.667 -36.333 72.667 -43 84c-3.33301 6 -10.333 20.167 -21 42.5l-29 59
c-8.66699 17 -14 25.5 -16 25.5c-12 0 -18 -8.33301 -18 -25c0 -30 3.33301 -116.667 10 -260c8 -128.667 12 -212.667 12 -252c0 -122.667 -12 -184 -36 -184c-20 0 -40 9 -60 27s-32.333 43.667 -37 77l-8 39c-5.33301 22 -8 37 -8 45c-8 28.667 -12 58 -12 88
c0 58 2 149.667 6 275c4 124.667 6 216 6 274c0 3.33301 -0.333008 10.333 -1 21s-1 17.334 -1 20.001c0 8 1 26.5 3 55.5s3 48.167 3 57.5c0 3.33301 -0.333008 11.5 -1 24.5s-1 21.167 -1 24.5c0 120.667 9 225 27 313l1 10c0.666992 6.66699 1 11 1 13
c-8.66699 2 -28.667 -14.333 -60 -49s-61.333 -76.667 -90 -126s-42.334 -90 -41.001 -122c-28.667 2 -54.667 23.667 -78 65s-35 77 -35 107c24 43.333 68 87.666 132 132.999c73.333 53.333 133.333 91.666 180 114.999l88 47c37.333 16 67.333 26.333 90 31
c40 8 71.333 14.667 94 20c54 12.667 94.333 19 121 19c54 0 101.333 -17 142 -51s61 -76.667 61 -128c0 -70 -15 -138 -45 -204c-32 -70.667 -75.667 -144.667 -131 -222l-103 -151c-40.667 -48.667 -61 -80 -61 -94c0 -13.333 17 -53 51 -119
c40 -89.333 96 -186.333 168 -291c72 -104 128.667 -156 170 -156c7.33301 0 25.666 28 54.999 84c34.667 88 62 153 82 195c30.667 66.667 48.334 100 53.001 100c12.667 0 19 -18.333 19 -55c0 -36 -15 -102.333 -45 -199c-32.667 -104 -60 -170 -82 -198z
M467.001 676.001l0.00195312 -8.00293l-2 -6v-3c28 8.66699 60.667 38.334 98 89.001l41 57c18.667 26.667 32.334 47 41.001 61l13.5 21.5l9 14.5c1.66699 2.66699 2.5 4.33398 2.5 5.00098c96.667 155.333 145 282.333 145 381c0 34.667 -9.5 57.667 -28.5 69
s-51.833 17 -98.5 17c-64.667 0 -127.334 -22.333 -188.001 -67c2.66699 -0.666992 3 -19.167 1 -55.5s-3 -54.833 -3 -55.5c0 -17.333 -2 -46.666 -6 -87.999c-0.666992 -9.33301 -1.33398 -21 -2.00098 -35s-1.33398 -25.667 -2.00098 -35s-1 -17.333 -1 -24
c0 -18 -3.33301 -74.667 -10 -170s-10 -151.333 -10 -168z" />
    <glyph glyph-name="S" unicode="S" horiz-adv-x="741" 
d="M532 197c15.333 60 22.999 103.663 22.999 130.996c0 16 -22 37.667 -66 65c-43.333 27.333 -97 56.666 -161 87.999c-34 16.667 -74.333 38 -121 64c-52 28.667 -86.333 51 -103 67c-47.333 42.667 -71 102.334 -71 179.001c0 110.667 37.333 237.334 112 380.001
c33.333 66.667 79.333 130.334 138 191.001c57.333 57.333 96 86 116 86c18 0 42 -6.83301 72 -20.5s46.333 -20.5 49 -20.5c10 0 15 18.333 15 55c0 37.333 6 56 18 56c28.667 0 56 -10.833 82 -32.5s39 -43.167 39 -64.5c0 -54 -26.667 -200.667 -80 -440
c-6 -31.333 -19.667 -47 -41 -47c-4 9.33301 -8.16699 22.666 -12.5 39.999s-7.16602 28 -8.49902 32c0 3.33301 -0.333008 12 -1 26s-1 22.333 -1 25v71c0 44 -1.33301 92 -4 144c-1.33301 13.333 -2 25 -2 35c0 3.33301 -4.83301 10.666 -14.5 21.999s-16.5 17 -20.5 17
c-21.333 0 -54 -31 -98 -93c-40 -54.667 -78.333 -112.667 -115 -174c-68 -119.333 -102 -219 -102 -299c0 -43.333 10.333 -78 31 -104c23.333 -25.333 67.666 -56.666 132.999 -93.999c31.333 -18 70.333 -38.667 117 -62c65.333 -33.333 105.333 -54.333 120 -63
c31.333 -17.333 59 -39.666 83 -66.999s36 -54.333 36 -81c0 -88 -20.833 -169.167 -62.5 -243.5s-104.167 -152.166 -187.5 -233.499c-24 -20.667 -54.667 -31 -92 -31c-29.333 0 -66.666 13 -111.999 39c-46.667 24.667 -74.667 48 -84 70
c-7.33301 17.333 -11 36.333 -11 57c0 70 23.333 148.667 70 236c8.66699 15.333 23 37 43 65c20 24.667 33.667 37 41 37c10.667 0 16 -5.33301 16 -16c-35.333 -156 -53 -255 -53 -297c0 -28.667 4 -54 12 -76s19.667 -33 35 -33c32.667 0 75.667 43 129 129
c52 84.667 83.333 146.334 94 185.001z" />
    <glyph glyph-name="T" unicode="T" horiz-adv-x="909" 
d="M639 432c0 -84.667 9.66602 -172.001 28.999 -262.001c18 -84.667 51.333 -127 100 -127c16 0 35.667 4.66699 59 14c24.667 10 39.667 15 45 15c11.333 0 17 -4.33301 17 -13c0 -21.333 -25.333 -46.333 -76 -75c-49.333 -30 -84.666 -45 -105.999 -45
c-62 0 -111.333 18.333 -148 55c-20.667 14.667 -35 53 -43 115c-13.333 87.333 -20 187 -20 299c0 394.667 25 688.667 75 882c-22.667 -11.333 -63.334 -34.333 -122.001 -69c-68 -40 -121 -68.5 -159 -85.5s-70.333 -25.5 -97 -25.5
c-18.667 -1.33301 -40.667 7.5 -66 26.5s-46 38.333 -62 58s-22.667 29.834 -20 30.501c0 14.667 7.66699 22 23 22c2 0 7 -0.333008 15 -1s13 -1 15 -1c62 0 159 30.667 291 92c130.667 59.333 229 99 295 119c74.667 24.667 154 37 238 37
c34.667 0 68.667 -6.66699 102 -20c34.667 -14 53 -27.667 55 -41c0 -5.33301 -6 -9 -18 -11l-154 -20c-27.333 -4.66699 -58.666 -12 -93.999 -22s-64.833 -19 -88.5 -27s-35.834 -13 -36.501 -15c4 -10 6 -16 6 -18c0 -12.667 -4.66699 -38 -14 -76
c-9.33301 -47.333 -14.666 -80 -15.999 -98c-16.667 -185.333 -25 -423 -25 -713z" />
    <glyph glyph-name="U" unicode="U" horiz-adv-x="1064" 
d="M487 178c74 189.333 172.334 501.332 295.001 935.999c28.667 98.667 43 172.334 43 221.001c0 20.667 -0.666992 33.667 -2 39c20.667 20.667 52.334 31 95.001 31c50 0 75 -7 75 -21c0 -10.667 -5.33301 -47.334 -16 -110.001
c-2.66699 -16.667 -5.5 -32.834 -8.5 -48.501s-5 -26.667 -6 -33s-1.5 -9.83301 -1.5 -10.5c-13.333 -67.333 -24.333 -154 -33 -260l-17 -183c-9.33301 -70.667 -14 -156 -14 -256c0 -136 4.66699 -242.333 14 -319c0 -18.667 2.33301 -35 7 -49
c42.667 36.667 97.667 109 165 217c40.667 69.333 72.334 104 95.001 104c7.33301 0 9.33301 -6.66699 6 -20c-1.33301 -6 -4 -14.333 -8 -25c-4 -11.333 -8.83301 -24.166 -14.5 -38.499l-13.5 -34c-3.33301 -8.33301 -5 -12.833 -5 -13.5
c-78.667 -166.667 -140.334 -276.667 -185.001 -330c-9.33301 -9.33301 -28.333 -14 -57 -14c-18 0 -42.667 13.667 -74 41c-28 28 -43 53.333 -45 76c0 15.333 -6 53.666 -18 114.999c-4 36.667 -6 74.667 -6 114c0 31.333 2 74.333 6 129c5.33301 48.667 8 89.667 8 123
c23.333 174.667 35 288 35 340c0 15.333 -3.33301 26.333 -10 33c-18 -45.333 -74 -246.666 -168 -603.999l-29 -107l-25 -92c-12 -49.333 -18 -99 -18 -149c0 -38.667 -32 -58 -96 -58c-32 0 -65.667 17.667 -101 53c-33.333 33.333 -53 72.333 -59 117v41
c0 92.667 30 311 90 655c61.333 340 92 545.667 92 617c-28 -12.667 -63.833 -38.5 -107.5 -77.5s-84.167 -84.167 -121.5 -135.5c-22.667 -30.667 -43.834 -63.667 -63.501 -99s-34.334 -59.833 -44.001 -73.5s-19.5 -20.5 -29.5 -20.5c-11.333 0 -27 11.667 -47 35
c-19.333 26.667 -29 46 -29 58s12.333 32.333 37 61c53.333 60.667 85.333 96.334 96 107.001c142 156.667 258 235 348 235c20.667 0 43 -9.16699 67 -27.5s36 -35.833 36 -52.5c0 -15.333 -5 -43.333 -15 -84c-6 -32 -10.667 -62 -14 -90c0 -2 -0.333008 -6.5 -1 -13.5
s-2 -19.167 -4 -36.5s-3.66699 -34 -5 -50c-6 -64 -11 -104.333 -15 -121c-1.33301 -4 -10 -52.667 -26 -146c-66 -342 -99 -591 -99 -747c0 -22.667 1 -39 3 -49z" />
    <glyph glyph-name="V" unicode="V" horiz-adv-x="737" 
d="M438 700c0 -124 10.998 -257.671 32.998 -401.004c14 124.667 38.667 271.334 74 440.001c38.667 182 76.667 326 114 432l15 39l14 43l17 41c13.333 34.667 24.666 62 33.999 82c6.66699 13.333 15 27.833 25 43.5s16.667 26.5 20 32.5c22 34.667 51.333 64 88 88l43 16
l48 19c64.667 -2 110.334 -18.333 137.001 -49c-5.33301 -2 -12.666 -5.33301 -21.999 -10s-17 -8 -23 -10s-11.667 -3 -17 -3c-82.667 -35.333 -135.667 -64.666 -159 -87.999c-39.333 -39.333 -72.333 -91 -99 -155l-37 -99c-15.333 -48.667 -25.333 -78.667 -30 -90
c-48.667 -130 -86.334 -281 -113.001 -453c-28.667 -180 -43 -373 -43 -579c0 -61.333 -27.333 -92 -82 -92c-28.667 0 -53.167 8.66699 -73.5 26s-32.5 38.666 -36.5 63.999c-0.666992 4 -1.66699 11.333 -3 22s-2.5 21.834 -3.5 33.501s-1.83301 23.167 -2.5 34.5
c-1.33301 26 -2 50 -2 72l-14 166c-9.33301 108.667 -14.666 188.334 -15.999 239.001l-25 504c-4 66 -6 108.333 -6 127c0 50 -2.66699 87 -8 111c-59.333 -55.333 -112.666 -133.333 -159.999 -234c-15.333 -34 -23 -78.333 -23 -133c-32 0 -56.667 8.66699 -74 26
s-26 38.666 -26 63.999c0 24 8.83301 52.5 26.5 85.5s37.5 61.167 59.5 84.5l78 84l61 66c23.333 27.333 55 45 95 53c30 0 56.167 -7.66699 78.5 -23s33.5 -31.666 33.5 -48.999c0 -11.333 -1.33301 -53.666 -4 -126.999c-1.33301 -35.333 -2 -76.333 -2 -123
c6.66699 -86.667 10 -226.667 10 -420z" />
    <glyph glyph-name="W" unicode="W" horiz-adv-x="1290" 
d="M1108 61c-14 -70.667 -45.335 -106.001 -94.002 -106.001c-109.333 0 -177.666 71.667 -204.999 215c-31.333 176 -47 405.333 -47 688c-12 -42 -24.333 -89.667 -37 -143l-39 -183l-22 -116c-38 -167.333 -58.667 -262.333 -62 -285
c-3.33301 -21.333 -7 -39.5 -11 -54.5s-10.167 -31 -18.5 -48s-20 -29.833 -35 -38.5s-33.167 -13 -54.5 -13c-62 0 -96 16 -102 48c-18 104 -27 221.333 -27 352c0 86 5 225.333 15 418c9.33301 180 14 324 14 432c0 42 -0.666992 66.333 -2 73
c-28.667 -33.333 -62.667 -78.333 -102 -135c-36 -52 -64 -102.333 -84 -151c-6.66699 -14.667 -13.167 -32 -19.5 -52l-14.5 -46.5c-3.33301 -11 -8.5 -20.667 -15.5 -29s-15.167 -12.5 -24.5 -12.5c-19.333 0 -37.833 8.83301 -55.5 26.5s-26.5 36.167 -26.5 55.5
c0 15.333 9 34.666 27 57.999l61 92c26.667 40.667 76.334 105.334 149.001 194.001c75.333 89.333 124.666 134 147.999 134c20.667 0 41.667 -5.16699 63 -15.5s32.333 -21.833 33 -34.5c4 -26.667 6 -58.667 6 -96c0 -31.333 -4.66699 -122.666 -14 -273.999
c-10 -160 -16 -298.667 -18 -416l-9 -248c-4 -98 -6 -154 -6 -168c0 -13.333 2.66699 -22.666 8 -27.999c36.667 110 90 292.667 160 548c68 250.667 113.667 424.334 137 521.001c14 68.667 26 110.667 36 126c5.33301 8.66699 11.333 13 18 13
c26 0 49.5 -6.33301 70.5 -19s31.5 -27 31.5 -43c0 -1.33301 -2 -12 -6 -32s-9 -47.833 -15 -83.5s-11.833 -76.334 -17.5 -122.001s-10.5 -101 -14.5 -166s-6 -131.167 -6 -198.5c0 -93.333 4.66699 -176.333 14 -249c10.667 -79.333 21.667 -148.333 33 -207l20 -103
c2 -26 13.667 -51.333 35 -76c41.333 78 80.333 232.333 117 463c40 235.333 66.667 447.666 80 636.999c-32 32 -59.333 75 -82 129c-23.333 58 -35 108 -35 150c0 21.333 9.16699 40.666 27.5 57.999s39.166 26 62.499 26c34 0 64.667 -41 92 -123
c15.333 -53.333 23 -123.666 23 -210.999c60.667 6 111 39.333 151 100c5.33301 12 10.833 20.667 16.5 26s10.667 7.83301 15 7.5s8.5 -2.16602 12.5 -5.49902s7 -6.33301 9 -9s3.66699 -5.33398 5 -8.00098c0 -43.333 -25.333 -82.333 -76 -117
c-49.333 -35.333 -93.666 -53 -132.999 -53c-31.333 -356 -84.666 -713.333 -159.999 -1072z" />
    <glyph glyph-name="X" unicode="X" horiz-adv-x="999" 
d="M674 711l14.0029 -101.001l31 -139c12 -50 35 -125.667 69 -227c38.667 -108 64.667 -162 78 -162c21.333 0 63.666 58.667 126.999 176s103 176 119 176c6.66699 0 10 -6 10 -18c0 -12.667 -7.33301 -42.667 -22 -90c-7.33301 -23.333 -26.666 -76.666 -57.999 -159.999
l-38 -103c-12 -35.333 -25.833 -59.5 -41.5 -72.5s-36.834 -19.5 -63.501 -19.5c-60.667 0 -107.5 10 -140.5 30s-57.167 53 -72.5 99c-9.33301 28 -28.333 100.333 -57 217c-22 96 -39 179.333 -51 250c-46.667 -112.667 -73.334 -183 -80.001 -211l-17 -63l-16 -64
l-14 -55c-14 -70 -21 -133.333 -21 -190c0 -39.333 11.667 -81.666 35 -126.999c23.333 -48 35 -73.333 35 -76c0 -12.667 -7.66699 -19 -23 -19c-46.667 0 -88.667 19.667 -126 59s-56 87.333 -56 144c0 37.333 6.66699 82.333 20 135c14.667 58.667 27.667 106 39 142
l68 188l61 170c20.667 60.667 31 99.667 31 117c0 24 -8.33301 67.667 -25 131c-13.333 51.333 -35 125.666 -65 222.999c-18.667 60 -36.334 123 -53.001 189c-12 40.667 -27 61 -45 61c-13.333 0 -35.333 -29.333 -66 -88c-18.667 -34 -46.667 -93.333 -84 -178
c-0.666992 -1.33301 -2.33398 -6.33301 -5.00098 -15l-7 -22l-7.5 -23.5c-3 -9.66699 -5.83301 -17.667 -8.5 -24l-8 -19c-2.66699 -6.33301 -5.16699 -10.833 -7.5 -13.5s-4.16602 -3.33398 -5.49902 -2.00098c-15.333 0 -29 6 -41 18
c1.33301 1.33301 0.666016 5 -2.00098 11l-12 9c-8 6.66699 -16.167 14.5 -24.5 23.5s-12.5 17.167 -12.5 24.5c0 28.667 26.667 83.334 80 164.001c56.667 82 101 137.333 133 166c60.667 58.667 101 88 121 88c30.667 0 61 -8.66699 91 -26s46.667 -34.666 50 -51.999
l111 -524c28.667 94 73.667 223 135 387c62.667 166 100.667 257.333 114 274c3.33301 3.33301 9.33301 14.166 18 32.499s13 30.833 13 37.5c14.667 0 36.167 -8.66699 64.5 -26s42.5 -38 42.5 -62c2 -2.66699 -6 -17 -24 -43s-41 -61.833 -69 -107.5
s-49.667 -89.167 -65 -130.5c-7.33301 -22 -17.666 -41.667 -30.999 -59c-12 -14 -20.667 -34.667 -26 -62c-2 -8 -7 -24.333 -15 -49c-61.333 -146 -96 -252.333 -104 -319z" />
    <glyph glyph-name="Y" unicode="Y" horiz-adv-x="937" 
d="M655 152c90.667 415.333 140.67 721.666 150.003 918.999c0 9.33301 1.66699 41.333 5 96s5 85.667 5 93c-4.66699 -19.333 -12 -41.333 -22 -66l-45 -125l-37 -104c-32 -89.333 -75.667 -232 -131 -428c-38.667 -132.667 -76.334 -199 -113.001 -199
c-2.66699 0 -28 3.33301 -76 10c-42 8 -65 15 -69 21c-16.667 24 -25 51.333 -25 82c0 90 28 273.333 84 550c57.333 273.333 86 410.666 86 411.999c0 19.333 -0.666992 31.666 -2 36.999c-62 -53.333 -122 -136.666 -180 -249.999c-58.667 -112.667 -88 -206.667 -88 -282
c0 -3.33301 1 -9.66602 3 -18.999s3 -15.333 3 -18c-6.66699 -15.333 -11 -23 -13 -23c-14 0 -38.333 14.333 -73 43c-36 32 -54 60 -54 84c0 24.667 9.66699 54.667 29 90c8.66699 20 23 43.333 43 70c34 63.333 84 134.333 150 213l44 50.5l42.5 47
c11.667 12.333 18.167 19.5 19.5 21.5c2.66699 4 9.83398 11.167 21.501 21.5s19.5 17.5 23.5 21.5l13 10c9.33301 9.33301 29.666 14 60.999 14s56.5 -6.5 75.5 -19.5s28.5 -29.5 28.5 -49.5c0 -3.33301 -3.16699 -15.5 -9.5 -36.5l-23 -74.5
c-9 -28.667 -15.167 -49 -18.5 -61c-22.667 -105.333 -51.334 -264 -86.001 -476c-30 -184 -45 -314.333 -45 -391c94.667 212 218.334 526.667 371.001 944c8.66699 28 19.5 47 32.5 57s32.167 15 57.5 15c4.66699 0 14 -0.333008 28 -1s22.333 -1 25 -1
c0 -5.33301 1.33301 -18.833 4 -40.5s4 -35.5 4 -41.5c0 -160.667 -43.667 -487 -131 -979c-37.333 -220 -79 -401 -125 -543c-13.333 -40 -34.333 -76.833 -63 -110.5s-55.334 -50.5 -80.001 -50.5c-44.667 0 -102 21 -172 63c-71.333 42.667 -107 86.334 -107 131.001
c0 39.333 16.667 93.333 50 162c36 70 70.667 127.333 104 172c36 48 58.667 72 68 72c4 0 8.33301 -2.33301 13 -7s7 -8.66699 7 -12l-49 -141c-32.667 -93.333 -49 -165.666 -49 -216.999c0 -20.667 10.333 -39.834 31 -57.501s41.667 -26.5 63 -26.5
c23.333 0 48.666 38.333 75.999 115c30 78 51.667 149 65 213z" />
    <glyph glyph-name="Z" unicode="Z" horiz-adv-x="780" 
d="M764 446c8 0 11.9971 -10.0029 11.9971 -30.0029c0 -12.667 -4 -42.667 -12 -90l-29 -166l-22 -140c-14 -92.667 -38 -139 -72 -139c-27.333 0 -60.666 20.667 -99.999 62c-32.667 34 -60 59 -82 75c-1.33301 1.33301 -6.33301 2 -15 2c-32.667 0 -68 -19 -106 -57
c-39.333 -39.333 -62.666 -70.666 -69.999 -93.999l-30 -72c-1.33301 -3.33301 -3.66602 -10.5 -6.99902 -21.5s-6.66602 -19.833 -9.99902 -26.5s-9.66602 -13 -18.999 -19s-21.333 -9 -36 -9c-24.667 0 -52 13 -82 39c-28.667 24.667 -43 51.334 -43 80.001
c0 86 58.667 251.333 176 496c86 178 213 426.333 381 745c-6.66699 4 -29.334 25.333 -68.001 64c-32.667 36.667 -56.334 55 -71.001 55c-36 0 -73.667 -19.667 -113 -59c-40 -40 -64.667 -76.333 -74 -109c-12.667 -36 -21.334 -75.667 -26.001 -119
c0 -2 -1.33301 -5.66699 -4 -11s-4 -9 -4 -11c0 -0.666992 0.333008 -3.5 1 -8.5s1 -7.83301 1 -8.5c0 -8.66699 -6.5 -20 -19.5 -34s-25.167 -21 -36.5 -21c-23.333 0 -42.5 9.16699 -57.5 27.5s-22.5 39.833 -22.5 64.5c0 14.667 3.66699 48.334 11 101.001
c6 31.333 10.667 62.666 14 93.999c2 30 10.333 86.667 25 170c2 4 6 21.667 12 53c6.66699 36.667 10 61.334 10 74.001c0 0.666992 -0.333008 4 -1 10s-1 10 -1 12c0 29.333 7.33301 50.666 22 63.999s38.667 20 72 20c24 0 39.667 -3.16699 47 -9.5s11 -20.833 11 -43.5
c0 -3.33301 -3.66699 -20.333 -11 -51l-30 -135l-25 -123l55 67l50 60l13 8.5c6.66699 4.33301 11.667 7.5 15 9.5l15.5 9c7 4 12.833 7 17.5 9s10.167 4.16699 16.5 6.5s12.333 4 18 5s11.167 1.5 16.5 1.5c25.333 0 49.666 -12.5 72.999 -37.5s40 -52.833 50 -83.5
c2 -24.667 16.333 -37 43 -37c3.33301 -1.33301 7.5 2.16699 12.5 10.5s10.667 19.833 17 34.5l19.5 45.5c6.66699 15.667 14 31.667 22 48s15.667 28.833 23 37.5c2.66699 4 5.33398 7.33301 8.00098 10s5.83398 4.83398 9.50098 6.50098l9 4c2.33301 1 6.5 1.66699 12.5 2
s10.167 0.5 12.5 0.5h15.5h17c34 0 51 -16.333 51 -49c0 -14.667 -12 -38.667 -36 -72c-12 -15.333 -31.333 -46 -58 -92c-15.333 -20.667 -24.666 -33 -27.999 -37c-6 -8 -17.667 -26.5 -35 -55.5s-29 -47.167 -35 -54.5c-30 -35.333 -85.333 -133 -166 -293
c-74 -150 -136 -289.333 -186 -418c-75.333 -193.333 -113 -302 -113 -326c0 -8 4 -12 12 -12c3.33301 0 30 24 80 72c49.333 49.333 78.666 75 87.999 77c20 6 42 9 66 9c38.667 -4 77.667 -32.667 117 -86l77 184c2.66699 2.66699 11 26.667 25 72
c38.667 108.667 66.667 163 84 163z" />
    <glyph glyph-name="bracketleft" unicode="[" horiz-adv-x="577" 
d="M377 1464l9.99707 0.00292969c84.667 -27.333 127 -56 127 -86c0 -15.333 -15 -29.666 -45 -42.999c-27.333 -13.333 -54.666 -20 -81.999 -20c-3.33301 0 -15.666 2.33301 -36.999 7s-40.333 7 -57 7c-15.333 0 -23 -10.333 -23 -31c0 -24.667 3 -45 9 -61
c10.667 -104.667 16 -229.667 16 -375c0 -62.667 -4 -198.334 -12 -407.001c-7.33301 -255.333 -11 -394 -11 -416v-111c1.33301 -34 2 -72.667 2 -116c0 -2 -0.666992 -9.83301 -2 -23.5s-2 -23.167 -2 -28.5c0 -20 5.16699 -32.667 15.5 -38s25.333 -6.83301 45 -4.5
s43.167 1.5 70.5 -2.5c2 0 8.83301 -3.33301 20.5 -10s18.5 -10 20.5 -10l12 1c8 0 17.333 0.166992 28 0.5s19.334 0.5 26.001 0.5c50 0 76 -9 78 -27c2 -4.66699 1.83301 -8.83398 -0.5 -12.501s-6.5 -6.83398 -12.5 -9.50098s-11.5 -5 -16.5 -7s-11.167 -4 -18.5 -6
s-12 -3.33301 -14 -4c-4 -0.666992 -10.667 -3.33398 -20 -8.00098s-17.666 -9.16699 -24.999 -13.5s-11.333 -6.5 -12 -6.5c-2 0 -10 0.666992 -24 2s-23.667 2 -29 2c-4 0 -9.66699 -2.16699 -17 -6.5s-12 -6.5 -14 -6.5c-182.667 27.333 -274 78 -274 152
c0 4.66699 2.33301 11.5 7 20.5s9.5 17.333 14.5 25s7.83301 12.167 8.5 13.5c12 41.333 19 99.666 21 174.999c2 72.667 4 114 6 124c9.33301 78.667 14 220.667 14 426c0 12 2.83301 38.667 8.5 80s8.5 70.666 8.5 87.999c0 8 -1.5 27 -4.5 57s-4.5 49.333 -4.5 58v123
c1.33301 44 2 84.333 2 121c0 16 -1.33301 72 -4 168c0 2.66699 -1.33301 10.334 -4 23.001s-4 20.667 -4 24c0 2 1.33301 7.66699 4 17s4 15.333 4 18c-4 24.667 -6 46.334 -6 65.001c0 41.333 9.66699 62 29 62h53c12.667 0 32.667 4.66699 60 14
c33.333 10.667 51.666 16 54.999 16z" />
    <glyph glyph-name="backslash" unicode="\" horiz-adv-x="598" 
d="M154 1384c9.33301 4.66699 16.6689 6.99707 22.002 6.99707c68.667 0 111 -95 127 -285c6 -71.333 22.333 -169 49 -293c28.667 -135.333 45.667 -229.666 51 -282.999c6 -54.667 22.667 -133 50 -235l45 -156c60 -203.333 90 -317.333 90 -342
c0 -4.66699 0.333008 -11 1 -19s1 -14.333 1 -19s-0.333008 -9.66699 -1 -15s-2.66699 -9.33301 -6 -12s-8 -4 -14 -4c-16.667 0 -38.334 36 -65.001 108c-16 46 -41.333 130.667 -76 254c-28 107.333 -43 163.333 -45 168c-30 110 -47.667 176.333 -53 199
c-2 8.66699 -9.83301 45.334 -23.5 110.001l-34.5 166l-45 225c-46 170 -69 276 -69 318c0 5.33301 0.333008 15 1 29s1 22 1 24c0 5.33301 -1.33301 11.333 -4 18s-5.33398 12.334 -8.00098 17.001l-5 8c0 3.33301 3.66699 7.33301 11 12z" />
    <glyph glyph-name="bracketright" unicode="]" horiz-adv-x="573" 
d="M59 -332c-1.33301 8 6.00098 15.501 22.001 22.501s34 10.5 54 10.5c120 0 180 6.66699 180 20c0 128.667 4.33301 238.667 13 330c2.66699 30.667 4 60 4 88c0 20.667 -0.666992 42 -2 64c-2 30 -1.33301 51 2 63c0 2 2.66699 8 8 18s8 16.333 8 19l-8 55
c-5.33301 32.667 -6.66602 58 -3.99902 76c0 0.666992 2.66699 4.83398 8 12.501s8 11.834 8 12.501c0 3.33301 -2 25.666 -6 66.999c-4 43.333 -6 68.666 -6 75.999c-2.66699 41.333 -4 87 -4 137v105c-2 22 -3.16699 62.667 -3.5 122s-1.83301 102 -4.5 128
c-2 14 -2 37.667 0 71c6 62.667 6 102.334 0 119.001c-6.66699 2.66699 -12.167 4 -16.5 4s-12.5 -1.16699 -24.5 -3.5s-20.333 -3.83301 -25 -4.5c-6.66699 0 -20.334 -0.5 -41.001 -1.5s-35.167 -1 -43.5 0s-19.333 3 -33 6s-24.334 8.66699 -32.001 17
s-13.834 19.5 -18.501 33.5l78 11c40 5.33301 75.667 12.666 107 21.999l15.5 7.5c9 4.33301 18.5 8.5 28.5 12.5s18.333 5.66699 25 5c17.333 -2.66699 42 -10.334 74 -23.001c36 -14.667 55 -26.334 57 -35.001c0.666992 -6 -1.16602 -23.167 -5.49902 -51.5
s-6.5 -44.5 -6.5 -48.5c4 -4 6 -11.5 6 -22.5s-2 -19.167 -6 -24.5c0 -22.667 -4 -72 -12 -148c-8 -74 -11 -126.333 -9 -157c4 -78 2 -224.333 -6 -439c-2 -55.333 0 -170 6 -344c6 -183.333 8.33301 -298.666 7 -345.999c-0.666992 -4 0.166016 -12.833 2.49902 -26.5
s3.5 -21.167 3.5 -22.5c0 -58.667 -1.33301 -90.667 -4 -96c-28 -20.667 -54 -31 -78 -31c-39.333 0 -79.666 3.33301 -120.999 10c-2 0 -6 2 -12 6s-10.333 6.33301 -13 7c-5.33301 -2.66699 -42 -4 -110 -4c-14 4 -27.833 13.833 -41.5 29.5s-20.5 29.5 -20.5 41.5z" />
    <glyph glyph-name="asciicircum" unicode="^" horiz-adv-x="702" 
d="M635 999c0 -14.667 -20.001 -22 -60.001 -22c-20 0 -52.667 19.667 -98 59l-57 60l-49 51c-55.333 49.333 -83.333 74 -84 74c-5.33301 2 -12.833 -4.33301 -22.5 -19s-21.167 -34 -34.5 -58s-28.166 -48.5 -44.499 -73.5s-36.333 -48.667 -60 -71
s-47.834 -37.5 -72.501 -45.5c-1.33301 4 -2 12.333 -2 25c-2.66699 22.667 3.83301 48.834 19.5 78.501s34.334 58.167 56.001 85.5s33.5 43.666 35.5 48.999c4 8.66699 12.667 23.167 26 43.5s21 32.5 23 36.5c33.333 64 55 100 65 108c8 6 16.333 9 25 9
c22 0 65 -39.667 129 -119l41 -47l111 -113c4 -4 12.5 -11 25.5 -21s22.833 -19.167 29.5 -27.5s10 -17.5 10 -27.5c0 -15.333 -4 -27 -12 -35z" />
    <glyph glyph-name="underscore" unicode="_" horiz-adv-x="849" 
d="M827 -125c-13.333 -8.66699 -48 -17 -104 -25l-256 -18c-155.333 -10 -238.666 -16 -249.999 -18c-16 -2 -31 -4.16699 -45 -6.5l-29.5 -5c-5.66699 -1 -8.83398 -1.5 -9.50098 -1.5c-1.33301 -0.666992 -4.83301 -2 -10.5 -4s-11.5 -3.83301 -17.5 -5.5
s-11 -2.5 -15 -2.5c-27.333 2 -41 26 -41 72c34.667 0 147.334 11.667 338.001 35c174.667 21.333 286 32 334 32c21.333 0 43.166 -5.5 65.499 -16.5s35.833 -23.167 40.5 -36.5z" />
    <glyph glyph-name="grave" unicode="`" horiz-adv-x="323" 
d="M141 1174c36.667 0 62.001 -31 76.001 -93c15.333 -66.667 23 -124.667 23 -174c0 -26 -6.33301 -39 -19 -39c-4.66699 -2 -10.667 2.66699 -18 14s-15.333 27 -24 47l-26.5 62.5c-9 21.667 -19.333 43.5 -31 65.5s-22.834 39 -33.501 51l-6 4
c-3.33301 2 -6.5 4.5 -9.5 7.5s-4.5 5.83301 -4.5 8.5c0 14 7.66699 25.167 23 33.5s32 12.5 50 12.5z" />
    <glyph glyph-name="a" unicode="a" horiz-adv-x="518" 
d="M541 350c43.333 86 73.3311 129.001 89.998 129.001c6.66699 0 10 -6 10 -18c0 -4.66699 -13 -35.334 -39 -92.001c-61.333 -144 -113.333 -256 -156 -336c-17.333 -34 -47.333 -51 -90 -51c-19.333 0 -35.333 9.5 -48 28.5s-19.667 43.5 -21 73.5
c-1.33301 25.333 -0.666016 61.666 2.00098 108.999l22 241c-38.667 -110 -69.334 -185.667 -92.001 -227c-27.333 -48 -58.666 -72 -93.999 -72c-26.667 0 -48 13.833 -64 41.5s-24 63.167 -24 106.5c0 42.667 11 95.667 33 159c24.667 72 49.667 124.667 75 158
c8.66699 14 23 28.5 43 43.5s39.333 22.5 58 22.5c37.333 0 70 -30.333 98 -91c0.666992 0.666992 3.33398 4.5 8.00098 11.5s9.5 13 14.5 18s9.83301 7.5 14.5 7.5c26 0 43.667 -6.66699 53 -20c0 0.666992 -2 -9.83301 -6 -31.5l-12 -67.5
c-4 -23.333 -6 -36.666 -6 -39.999c-18 -146.667 -27 -254.667 -27 -324c0 -1.33301 2 -8 6 -20c21.333 10.667 72 91 152 241zM304.998 541.001c0 7.33301 -3.66699 13.832 -11 19.499s-15.333 8.5 -24 8.5c-30 0 -58.667 -28 -86 -84c-24.667 -54 -37 -112 -37 -174
c0 -0.666992 0.5 -3.33398 1.5 -8.00098s1.5 -8 1.5 -10s-1 -4 -3 -6v-4c0 -19.333 3.66699 -29 11 -29c9.33301 0 20.5 8.83301 33.5 26.5s22.167 34.834 27.5 51.501c57.333 100.667 86 170.334 86 209.001z" />
    <glyph glyph-name="b" unicode="b" horiz-adv-x="466" 
d="M332 510c24 -30.667 39.002 -69.0029 45.002 -115.003l8 -41c2 -6 4 -21.667 6 -47l2 -19.5l1.5 -14.5c0.333008 -3.33301 0.5 -5.66602 0.5 -6.99902c33.333 12 60 32.667 80 62c56.667 86 91.667 129 105 129c8 0 12 -6.33301 12 -19
c0 -7.33301 -26.667 -58.333 -80 -153c-26 -44.667 -64.333 -77 -115 -97c2.66699 -36 4 -66.667 4 -92c0 -9.33301 -6 -25.666 -18 -48.999s-18 -37.666 -18 -42.999c0 -2.66699 0.333008 -5.5 1 -8.5s1 -4.83301 1 -5.5c-0.666992 -14.667 -8 -28.667 -22 -42
s-25.333 -20 -34 -20c-8 0 -20 -6.5 -36 -19.5s-26.333 -19.5 -31 -19.5c-58 0 -104.333 43.5 -139 130.5s-52 201.167 -52 342.5c0 188.667 24.667 380 74 574c1.33301 5.33301 13 39.333 35 102c21.333 54.667 33 94.334 35 119.001c0 2 1.33301 6 4 12l4 9
c36.667 58.667 55 94 55 106c0 0.666992 11 15 33 43c17.333 22 31 33 41 33l8 -2c5.33301 -1.33301 9.33301 -2 12 -2c3.33301 0 11.166 2 23.499 6s20.166 6 23.499 6c37.333 0 66.166 -15.667 86.499 -47s30.5 -69 30.5 -113c0 -6.66699 -2 -22.334 -6 -47.001v2
c-9.33301 -63.333 -45.666 -164.333 -108.999 -303c-31.333 -65.333 -88 -169 -170 -311l-16 -29l-24 -43c-12.667 -29.333 -19 -56 -19 -80c0 -120.667 4 -204.667 12 -252c12 -66 23.167 -112.167 33.5 -138.5s23.833 -39.5 40.5 -39.5c23.333 0 35 52 35 156
c0 33.333 -2.66699 67.333 -8 102c-45.333 53.333 -68 111.333 -68 174c0 34 8.66699 62.667 26 86s39.333 35 66 35c7.33301 0 14.333 -3.33301 21 -10zM201.002 771.997c-8 -41.333 -13.668 -89.6689 -17.001 -145.002c0 -1.33301 0.666992 -2 2 -2
c13.333 0 35.333 31.333 66 94c38 76.667 63.333 133.334 76 170.001c24 65.333 41.667 132.333 53 201c13.333 68.667 20 120.334 20 155.001c0 27.333 -3.33301 41 -10 41c-11.333 4 -27.833 -14.5 -49.5 -55.5s-45.667 -103 -72 -186s-49.166 -173.833 -68.499 -272.5z
" />
    <glyph glyph-name="c" unicode="c" horiz-adv-x="403" 
d="M403 309c66.667 97.333 104.335 146.001 113.002 146.001c8 0 12 -6.33301 12 -19c0 -7.33301 -36.667 -77 -110 -209c-58 -107.333 -118.667 -161 -182 -161c-50.667 0 -95.167 21.833 -133.5 65.5s-57.5 96.167 -57.5 157.5c0 67.333 15.333 140.666 46 219.999
s70 146 118 200c10.667 10.667 23 16 37 16c24 0 43 -11.667 57 -35c8 53.333 23 80 45 80c12.667 0 24 -3.16699 34 -9.5s15 -14.833 15 -25.5c0 -51.333 -10.667 -114 -32 -188c-22.667 -79.333 -43.334 -119 -62.001 -119c-8 0 -12 73 -12 219
c-34.667 -38.667 -64.834 -89.5 -90.501 -152.5s-38.5 -130.833 -38.5 -203.5c0 -34 8 -63 24 -87s34.667 -36 56 -36c41.333 0 95 47 161 141z" />
    <glyph glyph-name="d" unicode="d" horiz-adv-x="569" 
d="M442 25c16 24 61.3379 110.668 136.005 260.001c8.66699 12 23 40.667 43 86c28.667 56 47.667 84 57 84c6.66699 0 11.334 -4.33301 14.001 -13v-6c2 -2.66699 -1 -14 -9 -34l-31.5 -76.5l-28.5 -69.5c-37.333 -96 -68.333 -172.333 -93 -229
c-27.333 -56 -54.333 -84 -81 -84c-27.333 0 -52.833 5.66699 -76.5 17s-37.834 26.666 -42.501 45.999c-14 46.667 -21 117 -21 211c0 40 3.33301 115.667 10 227c-7.33301 -12 -17.333 -35 -30 -69c-4 -9.33301 -7.83301 -19.166 -11.5 -29.499
s-6.33398 -17.5 -8.00098 -21.5s-2.83398 -6.33301 -3.50098 -7c-4 -7.33301 -12.667 -31 -26 -71c-24.667 -78 -51.334 -121 -80.001 -129c-79.333 0 -119 58.667 -119 176c0 40.667 13.667 102.667 41 186c13.333 38.667 33.666 78.334 60.999 119.001c32 44 62 66 90 66
c2.66699 0 8.5 -0.833008 17.5 -2.5s14.833 -2.5 17.5 -2.5c20 0 42.667 -15.667 68 -47c11.333 56 21.666 156.333 30.999 301l22 256c9.33301 86 21.333 144.833 36 176.5s38.334 47.5 71.001 47.5c39.333 0 59 -10.333 59 -31c0 -6.66699 -2.5 -22.834 -7.5 -48.501
l-17 -86c-6.33301 -31.667 -10.5 -53.167 -12.5 -64.5c-15.333 -106.667 -33 -243 -53 -409c-6.66699 -52.667 -14.334 -140 -23.001 -262c-10.667 -152.667 -16 -250.334 -16 -293.001c0 -78.667 5.33301 -136.667 16 -174zM143.005 248.001
c0 -18 1.33203 -27.001 3.99902 -27.001c3.33301 0 11 8 23 24s20.333 30 25 42l32 80c45.333 108.667 68 172.667 68 192c0 8 -4.66699 12 -14 12c-19.333 0 -40.666 -19.667 -63.999 -59c-50.667 -99.333 -76 -178.666 -76 -237.999c0 -2.66699 0.333008 -7.16699 1 -13.5
s1 -10.5 1 -12.5z" />
    <glyph glyph-name="e" unicode="e" horiz-adv-x="397" 
d="M356 264c18 18 44.668 50.002 80.001 96.002c6 6 14.333 17 25 33l10 14.5c4 5.66699 7.16699 10 9.5 13l8 10.5l7 9.5c1.66699 2.33301 3.5 4.5 5.5 6.5s3.66699 3.5 5 4.5s2.66602 1.5 3.99902 1.5c6.66699 0 10 -5.66699 10 -17
c0 -8.66699 -12.333 -33.334 -37 -74.001c-58 -102 -105.667 -170.667 -143 -206c-35.333 -33.333 -73.666 -50 -114.999 -50c-50 0 -93.167 21.833 -129.5 65.5s-54.5 97.834 -54.5 162.501l31 184c18 40.667 44 85.667 78 135c30.667 46.667 60 70 88 70
c27.333 0 50.166 -6.66699 68.499 -20s27.5 -32 27.5 -56c0 -0.666992 3 -4.83398 9 -12.501s12.167 -17.667 18.5 -30s9.5 -24.833 9.5 -37.5c0 -28 -16.333 -67.333 -49 -118c-32 -52 -60.667 -89 -86 -111c-21.333 -21.333 -43.333 -37 -66 -47
c0 -24.667 7 -45.834 21 -63.501s31.667 -26.5 53 -26.5c32.667 0 70 21 112 63zM207.001 555.002v-2.00293c-32.667 -69.333 -49 -135.666 -49 -198.999c0 -5.33301 0.666992 -8 2 -8c4 0.666992 16 18.334 36 53.001c0 0.666992 0.333008 1.33398 1 2.00098
c20.667 36 41 77.667 61 125c20.667 48.667 31 85.667 31 111c0 9.33301 -2.66699 14 -8 14c-14 0 -38.667 -32 -74 -96z" />
    <glyph glyph-name="f" unicode="f" horiz-adv-x="489" 
d="M356 145c4.66699 -14 9.66504 -46 14.998 -96c0 -24.667 -7.66699 -60.667 -23 -108c-14 -42.667 -33 -64 -57 -64c-0.666992 0 -2.66699 0.333008 -6 1s-5.33301 1 -6 1l-9 -4c-24 0 -45 25.333 -63 76c-18 51.333 -27 105.333 -27 162v88
c1.33301 31.333 2 67.333 2 108c-36.667 6.66699 -68.667 16.334 -96 29.001c-35.333 18 -53 48 -53 90c0 16.667 4.66699 30 14 40s21.666 15 36.999 15c11.333 0 27.833 -5.33301 49.5 -16s34.5 -16 38.5 -16c6.66699 -1.33301 11.5 -0.333008 14.5 3s4.5 8.33301 4.5 15
s-0.333008 14.167 -1 22.5s-1.5 16.5 -2.5 24.5s-0.833008 15 0.5 21c0 2 0.333008 6.16699 1 12.5s1.5 16.666 2.5 30.999s2.16699 27.833 3.5 40.5c5.33301 43.333 8 78 8 104c0 2 -0.333008 5.33301 -1 10s-1 7.33398 -1 8.00098c0.666992 18 5.33398 46.5 14.001 85.5
s13.334 61.167 14.001 66.5c12.667 110 52.334 283.333 119.001 520c23.333 80.667 58.333 125 105 133c29.333 0 54.333 -12.833 75 -38.5s31 -61.834 31 -108.501c0 -136.667 -41.667 -315.667 -125 -537c-4 -12.667 -19.667 -46.667 -47 -102
c-58.667 -117.333 -88 -203.333 -88 -258c0 -33.333 2.66699 -62 8 -86c28.667 -10 62.334 -15 101.001 -15s78.667 6.33301 120 19c6 0 19 4.5 39 13.5s31 13.5 33 13.5c8 0 12 -6.33301 12 -19c0 -28.667 -38 -56.667 -114 -84c-74.667 -26.667 -142.334 -41 -203.001 -43
c0.666992 -2.66699 2.16699 -7 4.5 -13l10 -26l12.5 -33c18 -41.333 29.333 -70 34 -86zM312.998 786c0 -5.33301 -0.667969 -8.66699 -2.00098 -10c0 -2 0.333008 -6.33301 1 -13s1 -11 1 -13c11.333 0 41.333 92 90 276c50.667 184.667 76 298 76 340
c0 22.667 -3.33301 41.667 -10 57c-9.33301 -2 -23.666 -30 -42.999 -84c-22.667 -60 -44.667 -138.333 -66 -235c-23.333 -106.667 -39 -212.667 -47 -318zM278.997 153.999c-3.33301 -10 -4.99902 -23.667 -4.99902 -41c0 -64.667 8.33301 -97 25 -97
c10.667 0 16 10.333 16 31c0 18.667 -3.83301 40.167 -11.5 64.5s-15.834 38.5 -24.501 42.5z" />
    <glyph glyph-name="g" unicode="g" horiz-adv-x="501" 
d="M293 473c13.333 52.667 20 81.332 20 85.999c0 22 -7 39.833 -21 53.5s-30 20.5 -48 20.5c-29.333 0 -52 -32.667 -68 -98c-14.667 -69.333 -22 -136.333 -22 -201c2.66699 -8 4 -17 4 -27c0 -46 4.66699 -72.667 14 -80l25.5 37c14.333 20.667 23.5 34.334 27.5 41.001
c31.333 53.333 54 109.333 68 168zM565 415.998c20 27.333 35.666 41.002 46.999 41.002c8.66699 0 13 -7 13 -21c0 -2 -21.333 -38.667 -64 -110c-90.667 -148.667 -140.334 -232 -149.001 -250c0 -22 -2.16699 -58.167 -6.5 -108.5s-6.5 -85.833 -6.5 -106.5
c0 -82.667 -11.667 -149.5 -35 -200.5s-54.666 -76.5 -93.999 -76.5l-30 10c-76.667 45.333 -115 100 -115 164c0 87.333 61.333 211.666 184 372.999l15 115c8 54.667 12 94.334 12 119.001c0 16 -0.666992 26 -2 30c-5.33301 -8 -19 -37.333 -41 -88
c-28 -64.667 -52 -114.334 -72 -149.001c-24.667 -44.667 -47 -68 -67 -70c-23.333 4 -42.333 14.667 -57 32s-26 43 -34 77c-9.33301 47.333 -16.666 119 -21.999 215c14 133.333 22.333 204.333 25 213c10 26.667 27.667 54.667 53 84c27.333 31.333 55.333 47 84 47
c15.333 2.66699 30.333 -0.5 45 -9.5s30.5 -21.833 47.5 -38.5s28.5 -27.334 34.5 -32.001c6 76.667 29.667 115 71 115c45.333 0 68 -13.667 68 -41c0 -10.667 -3 -35 -9 -73s-9 -63 -9 -75c-30 -196.667 -45 -301.667 -45 -315v-37c-2 -25.333 -3 -40.333 -3 -45v-8
l80 108c50 68 77.333 105 82 111zM308.999 -143c5.33301 24 7.99805 58.667 7.99805 104c0 12.667 -1.33301 19 -4 19c-20 -20 -37 -48.667 -51 -86l-14 -29c-22 -48 -33 -84.333 -33 -109c0 -9.33301 5.5 -18.833 16.5 -28.5s22.5 -14.5 34.5 -14.5
c8.66699 0 16.334 7.66699 23.001 23c6 14 10 36.333 12 67c4.66699 34 7.33398 52 8.00098 54z" />
    <glyph glyph-name="h" unicode="h" horiz-adv-x="540" 
d="M618 428c15.333 19.333 26.335 28.9971 33.002 28.9971c10 0 15 -7 15 -21s-54.667 -109.333 -164 -286l-18 -31l-20.5 -35.5c-5.66699 -9.66699 -12.334 -19.834 -20.001 -30.501s-15.167 -18.834 -22.5 -24.501s-14.666 -8.5 -21.999 -8.5c-26.667 0 -49 14.5 -67 43.5
s-27 68.5 -27 118.5c0 30.667 0.5 64.834 1.5 102.501s2.16699 72.334 3.5 104.001s2.66602 61 3.99902 88s2.66602 48.833 3.99902 65.5l1 25c0 5.33301 -2 8 -6 8c-10 0 -32.333 -36 -67 -108c-36 -74 -58.667 -127.333 -68 -160c-10.667 -46 -16 -90.333 -16 -133
c0 -45.333 2 -91.666 6 -138.999c5.33301 -40 8 -66 8 -78c0 -19.333 -11 -29 -33 -29c-31.333 0 -55 30.667 -71 92c-16.667 70.667 -25 128.334 -25 173.001c0 6.66699 0.166992 16.667 0.5 30l1.5 57.5c0.666992 25 1.33398 48.167 2.00098 69.5
c2.66699 109.333 4 170 4 182c0 174 18.667 406 56 696l6 42c0 2.66699 -0.666992 11.334 -2 26.001s-2 24.334 -2 29.001c0 18 16.333 27 49 27c56.667 0 90 -23.333 100 -70c-74 -410 -110 -704.333 -108 -883c84 229.333 152 344 204 344
c20.667 0 40.167 -6.83301 58.5 -20.5s27.5 -28.5 27.5 -44.5c0 -0.666992 -1.33301 -10.167 -4 -28.5l-10 -71.5l-12.5 -95c-4.33301 -34 -7.83301 -70.5 -10.5 -109.5s-4 -74.167 -4 -105.5c0 -36.667 3.66699 -77.667 11 -123c27.333 32.667 47.666 58.667 60.999 78
c28 37.333 54 73.666 78 108.999l40.5 60.5z" />
    <glyph glyph-name="i" unicode="i" horiz-adv-x="290" 
d="M354 410c36.667 44 56.6641 54.002 59.9971 30.002c0 -1.33301 -3.66699 -10.666 -11 -27.999c-2 -4 -8.83301 -16.833 -20.5 -38.5l-35.5 -65c-12 -21.667 -22.667 -39.834 -32 -54.501c-27.333 -47.333 -55.666 -87.666 -84.999 -120.999s-54.666 -48.333 -75.999 -45
c-33.333 0 -60 14.333 -80 43c-19.333 31.333 -29 80.666 -29 147.999c0 68.667 7 149 21 241c14 92.667 34.333 139 61 139c16.667 0 32.834 -6.33301 48.501 -19s23.5 -25.334 23.5 -38.001c0 -4.66699 -1.33301 -16.334 -4 -35.001c-26 -150 -39 -263.333 -39 -340
c0 -27.333 7.33301 -41 22 -41c13.333 0 29 12.333 47 37c19.333 24 44 58.333 74 103zM239.997 899.002c0 -8.66699 -2.5 -23.999 -7.5 -45.999s-7.5 -34 -7.5 -36c-4.66699 -14.667 -13 -26.834 -25 -36.501s-24 -14.5 -36 -14.5c-11.333 0 -23.333 14.333 -36 43
s-19 56.667 -19 84c0 35.333 20.333 53 61 53s64 -15.667 70 -47z" />
    <glyph glyph-name="j" unicode="j" horiz-adv-x="243" 
d="M176 274l56.999 65.9971c2.66699 2 14.167 14.333 34.5 37s39.5 42.334 57.5 59.001s29 23.667 33 21c6 0 9 -4.33301 9 -13c0 -2 -5.66699 -12 -17 -30c-5.33301 -9.33301 -13.666 -22.5 -24.999 -39.5l-39.5 -59l-33.5 -49.5c-43.333 -69.333 -70 -116.333 -80 -141
c-5.33301 -62 -8 -157 -8 -285c0 -9.33301 -1.33301 -27.166 -4 -53.499s-4 -41.833 -4 -46.5c-2.66699 -11.333 -5.66699 -27.333 -9 -48s-6.33301 -38.334 -9 -53.001s-6.5 -29.667 -11.5 -45s-11.833 -27 -20.5 -35s-19.334 -12 -32.001 -12
c-12.667 -2.66699 -27.5 1.33301 -44.5 12s-34.833 24.834 -53.5 42.501s-30.334 28.167 -35.001 31.5c-37.333 37.333 -56 74.333 -56 111l11 57c8.66699 34.667 24.334 80.834 47.001 138.501s48.334 111.167 77.001 160.5c3.33301 6.66699 10.5 17.334 21.5 32.001
s19.667 28.167 26 40.5s8.5 23.166 6.5 32.499c0 47.333 -4.33301 123 -13 227c-6.66699 108.667 -10 183.667 -10 225c0 15.333 7.83301 28.166 23.5 38.499s32.5 15.5 50.5 15.5c17.333 0 33 -6.16699 47 -18.5s21 -26.833 21 -43.5s-2.33301 -61.667 -7 -135
c-4 -62.667 -6 -110.334 -6 -143.001c0 -2 -0.5 -10.167 -1.5 -24.5s-1.83301 -28.666 -2.5 -42.999s-0.666992 -24.166 0 -29.499zM28.999 -309.003c10.667 10.667 20 57.6689 28 141.002c10 84 15 153 15 207v27c-4 -4 -8.33301 -11.667 -13 -23l-8 -18
c-47.333 -120.667 -71 -208.334 -71 -263.001c0 -12.667 5 -28.334 15 -47.001s18.333 -28 25 -28c3.33301 0 6.33301 1.33301 9 4zM60.999 880.999c-2 10 -3 19.666 -3 28.999s-1 18 -3 26c11.333 34 38.666 51 81.999 51c6.66699 0 13.667 0.333008 21 1s12 1 14 1
c12 0 18 -13 18 -39c0 -37.333 -6.66699 -72.666 -20 -105.999c-13.333 -34 -29.666 -51 -48.999 -51c-15.333 0 -28.333 8.16699 -39 24.5s-17.667 37.5 -21 63.5z" />
    <glyph glyph-name="k" unicode="k" horiz-adv-x="608" 
d="M471 160l11.999 9.99707c27.333 17.333 76.666 76.666 147.999 177.999c8.66699 10.667 19.334 25.834 32.001 45.501s23.334 35.167 32.001 46.5s16 17 22 17c9.33301 0 14 -5.66699 14 -17c0 -8 -10.333 -31 -31 -69l-12 -23
c-7.33301 -15.333 -17.5 -34.666 -30.5 -57.999s-25.167 -43.666 -36.5 -60.999c-84 -137.333 -149.667 -206 -197 -206c-46.667 0 -89.667 28.667 -129 86c-83.333 122.667 -129.666 202.334 -138.999 239.001c0 -24 6 -125 18 -303c0.666992 -12 4.66699 -34.833 12 -68.5
s11 -53.167 11 -58.5c0 -28.667 -10.333 -43 -31 -43c-79.333 0 -119 98.333 -119 295c0 42 2.66699 93.333 8 154c29.333 414.667 58 695.667 86 843c14 73.333 37.333 141 70 203c35.333 64 77 96 125 96c34.667 0 65.834 -14.5 93.501 -43.5s41.5 -64.167 41.5 -105.5
c0 -52.667 -4 -99.667 -12 -141c-8 -38.667 -21 -81.667 -39 -129c-18.667 -48.667 -28.334 -73.334 -29.001 -74.001c-12 -39.333 -51 -115.333 -117 -228c-25.333 -41.333 -50.333 -99.333 -75 -174c82 104 151.667 156 209 156c18.667 0 37.667 -13.667 57 -41
s29 -58 29 -92c0 -59.333 -42.333 -126.333 -127 -201l-29 -20c-21.333 -14 -34.333 -24.333 -39 -31c4 -23.333 21.667 -63.666 53 -120.999s56.666 -86 75.999 -86c14 0 28.333 8.33301 43 25zM224.999 1008c-7.33301 -53.333 -12.668 -100.667 -16.001 -142l-8 -102
c42.667 88 74 160.333 94 217c20 55.333 37 111.333 51 168c20.667 76.667 31 130 31 160c0 51.333 -10.333 77 -31 77c-37.333 0 -77.666 -126 -120.999 -378zM202.997 450.996c0 -7.33301 1.33203 -11 3.99902 -11s6.5 0.666992 11.5 2s8.5 2 10.5 2
c3.33301 0 10.333 -6 21 -18l16 -18c0.666992 -4 9.66699 2.5 27 19.5s34.5 40.667 51.5 71s25.167 59.5 24.5 87.5c0 26 -9 39 -27 39c-11.333 0 -36.666 -20.667 -75.999 -62c-37.333 -37.333 -59 -72 -65 -104c0 -4 0.666992 -6.66699 2 -8z" />
    <glyph glyph-name="l" unicode="l" horiz-adv-x="403" 
d="M211 41l200.999 285.001l34 51c36.667 53.333 59.334 80 68.001 80c8 0 12 -7.66699 12 -23c0 -7.33301 -10.667 -29 -32 -65l-74 -127c-24 -40.667 -40.333 -70.667 -49 -90c0 -0.666992 -26 -48 -78 -142c-22.667 -42 -59.667 -63 -111 -63
c-94 0 -141 119.333 -141 358c0 115.333 3.33301 228.666 10 339.999c13.333 211.333 40.666 399.666 81.999 564.999c40.667 157.333 84.334 236 131.001 236c22.667 0 45.334 -14.333 68.001 -43c23.333 -27.333 37 -52.666 41 -75.999c9.33301 -49.333 14 -106 14 -170
c0 -142 -28.667 -294.333 -86 -457c-38.667 -108.667 -85 -211.667 -139 -309c0 -63.333 4 -131 12 -203c9.33301 -68.667 21.666 -117.667 36.999 -147zM177.999 909.001c-10.667 -72.667 -16 -142.333 -16 -209l-8 -157v-2v-19c68 193.333 111 361.333 129 504
c8 90 12 146 12 168c0 83.333 -6.33301 125 -19 125c-22 0 -54.667 -136.667 -98 -410z" />
    <glyph glyph-name="m" unicode="m" horiz-adv-x="759" 
d="M197 827l6.00195 -6c6.66699 -15.333 10 -31.666 10 -48.999c0 -42.667 -4.66699 -130.667 -14 -264c47.333 162.667 88.333 244 123 244c25.333 0 49.666 -6.66699 72.999 -20s35 -28 35 -44c0 -17.333 -0.666992 -35 -2 -53s-2 -35 -2 -51l-2 -103v-2
c28.667 88.667 54 150.334 76 185.001c17.333 30 33.666 45 48.999 45c21.333 0 45 -7.33301 71 -22s39 -29.334 39 -44.001s-6.66699 -58.334 -20 -131.001c-21.333 -121.333 -33 -220.333 -35 -297c0 -46.667 10.333 -70 31 -70c18 0 73.333 75.333 166 226
c35.333 57.333 59 86 71 86c10 0 15 -5 15 -15c0 -21.333 -33 -84 -99 -188l-28 -47c-26 -42 -43 -68.667 -51 -80c-16.667 -23.333 -32.5 -40.5 -47.5 -51.5s-32.167 -16.5 -51.5 -16.5c-68 0 -102 54 -102 162c0 35.333 6 96 18 182c12.667 90.667 19 140 19 148
c0 22 -5.66699 33 -17 33c-1.33301 2 -4.66602 -2 -9.99902 -12c-23.333 -44.667 -47.333 -108.334 -72 -191.001c-14.667 -49.333 -22 -85 -22 -107c-2 -8 -4 -25.667 -6 -53c-3.33301 -27.333 -7.33301 -46.5 -12 -57.5s-12.334 -16.5 -23.001 -16.5
c-22 0 -41.5 8.16699 -58.5 24.5s-25.5 31.5 -25.5 45.5c0 19.333 3.33301 73.333 10 162c8.66699 86.667 13 150 13 190c0 36 -5.66699 54 -17 54c-8.66699 0 -24.334 -33.667 -47.001 -101c-21.333 -73.333 -35.666 -136 -42.999 -188
c-9.33301 -70.667 -14 -167.667 -14 -291c0 -11.333 -4 -20.666 -12 -27.999s-16.333 -11 -25 -11c-28.667 0 -50 33.333 -64 100c-10.667 60.667 -16 142 -16 244c0 8 1.33301 56 4 144c2.66699 90.667 4 139 4 145c0 10.667 -1 35.167 -3 73.5s-3 63.5 -3 75.5
c0 37.333 22 56 66 56c16.667 0 31.667 -5 45 -15z" />
    <glyph glyph-name="n" unicode="n" horiz-adv-x="448" 
d="M391 666c2.66699 -2.66699 3.99805 -7.66602 3.99805 -14.999c0 -36.667 -8.66699 -97.334 -26 -182.001c-16.667 -92 -25 -165.667 -25 -221c0 -22 2 -42 6 -60c20.667 23.333 44.667 55.666 72 96.999l1 1v1l1 1l1 1v1l1 1l1 1v1l1 1l1 1l1 1v1
c67.333 98 107.333 150.667 120 158c2 1.33301 3.66699 2 5 2c5.33301 0 9.33301 -3.33301 12 -10s2.66699 -12.334 0 -17.001l-41 -72c-49.333 -92 -86.666 -158.667 -111.999 -200c-27.333 -45.333 -49.333 -68 -66 -68c-62.667 0 -94 59.333 -94 178
c0 30 2.66699 70.333 8 121c5.33301 52.667 8 93 8 121c0 2.66699 -1.33301 4 -4 4c-18 0 -42.333 -45.667 -73 -137c-28.667 -90.667 -43 -172.667 -43 -246c0 -2.66699 0.333008 -17.167 1 -43.5s1 -42.5 1 -48.5c0 -48 -9 -72 -27 -72c-26.667 0 -46 17.833 -58 53.5
s-20 91.5 -24 167.5c-2 25.333 -2 58.333 0 99c2.66699 54.667 4 82.667 4 84c0 6 -1 21.667 -3 47s-3 41 -3 47c0 32.667 0.666992 61.334 2 86.001c1.33301 26 2 54.667 2 86c-2.66699 38.667 -4 82.334 -4 131.001c0 36.667 9.66699 55 29 55
c41.333 0 70.333 -6.33301 87 -19s25 -33.667 25 -63c0 -27.333 -4.66699 -78.333 -14 -153c-9.33301 -96 -14.666 -153.333 -15.999 -172c18.667 66 42.334 128 71.001 186c31.333 60 54 90 68 90c51.333 0 84.666 -8.66699 99.999 -26z" />
    <glyph glyph-name="o" unicode="o" horiz-adv-x="444" 
d="M473 365c12.667 10.667 24.998 23.8311 36.998 39.498s21.333 28.334 28 38.001s11.667 14.5 15 14.5c9.33301 0 14 -7.66699 14 -23c0 -16.667 -17.667 -48.667 -53 -96c-34.667 -46.667 -70 -70 -106 -70c-31.333 0 -60 23.333 -86 70l-9 14
c-8 -30 -16 -54.333 -24 -73c-21.333 -57.333 -39.333 -96 -54 -116s-31.667 -30 -51 -30c-95.333 0 -143 72.333 -143 217c0 50 7.33301 108 22 174c14.667 54.667 33.334 101.334 56.001 140.001c30.667 46 58.667 69 84 69c24 0 43.667 -8.5 59 -25.5s23 -38.5 23 -64.5
c54.667 0 82 -22.667 82 -68c0 -7.33301 -1.83301 -26.333 -5.5 -57s-5.5 -52.334 -5.5 -65.001c0 -27.333 6.83301 -53.666 20.5 -78.999s26.834 -38 39.501 -38c13.333 0 32.333 9.66699 57 29zM253.998 364.997c6.66699 18 10 34.9971 10 50.9971
c0 1.33301 -1.83301 5.33301 -5.5 12s-7.33398 15 -11.001 25s-5.5 20 -5.5 30c0 9.33301 0.666992 25.5 2 48.5s2 35.5 2 37.5c0 15.333 -3.33301 23 -10 23c-2 1.33301 -5.83301 -1.66699 -11.5 -9s-12.167 -18.166 -19.5 -32.499s-14.333 -30.333 -21 -48
s-12.167 -37.667 -16.5 -60s-6.16602 -43.5 -5.49902 -63.5c0 -4.66699 -0.333008 -15.167 -1 -31.5s-1 -27.166 -1 -32.499c0 -27.333 7.33301 -59.333 22 -96c32 46.667 56 95.334 72 146.001z" />
    <glyph glyph-name="p" unicode="p" horiz-adv-x="520" 
d="M383 119c-22 -15.333 -52 -23 -90 -23c-15.333 0 -29.5 6.16699 -42.5 18.5s-19.5 24.833 -19.5 37.5c0 32 3 69.333 9 112c6 44.667 12 68 18 70c1.33301 1.33301 3.33301 -2 6 -10c2 -7.33301 5.33301 -24 10 -50c13.333 -74 25 -117.667 35 -131
c23.333 26.667 41.833 71.167 55.5 133.5s20.5 128.5 20.5 198.5c0 97.333 -9 146 -27 146c-17.333 0 -44.666 -42.333 -81.999 -127c-36.667 -87.333 -61.667 -168 -75 -242c-24 -118.667 -39 -301.667 -45 -549c0 -3.33301 1.33301 -13 4 -29l4 -24
c0 -10.667 -4.33301 -19.167 -13 -25.5s-18 -9.5 -28 -9.5c-44 23.333 -66 72.333 -66 147c0 136.667 7 351.334 21 644.001c16 317.333 24 515.666 24 594.999c0 33.333 -1.83301 60.166 -5.5 80.499s-7.33398 34.5 -11.001 42.5s-5.5 13.667 -5.5 17
c0 16 9.66699 24 29 24c27.333 0 53.833 -11 79.5 -33s38.5 -51.333 38.5 -88c0 -45.333 -2 -93.666 -6 -144.999c-1.33301 -26 -6 -82.667 -14 -170l-12 -129l-5.5 -79.5c-1.66699 -25 -3 -43.333 -4 -55s-1.5 -18.167 -1.5 -19.5c0 -9.33301 2 -14 6 -14
c21.333 96 48.166 172.167 80.499 228.5s64.5 84.5 96.5 84.5c30.667 0 61.334 -14.333 92.001 -43c32.667 -26.667 49 -54.667 49 -84c0 -110 -12.333 -214.333 -37 -313c-22.667 -98 -52 -160 -88 -186z" />
    <glyph glyph-name="q" unicode="q" horiz-adv-x="483" 
d="M434 248l58.002 86.001c54.667 82 88.667 123 102 123c8 0 12 -6.33301 12 -19c0 -7.33301 -8 -23.666 -24 -48.999l-50 -88c-16 -30.667 -36.333 -66 -61 -106c-33.333 -58 -52.333 -92.333 -57 -103l-15 -26c-11.333 -22.667 -19.333 -39.334 -24 -50.001
c-14 -36 -21 -68 -21 -96c0 -4 2 -24.333 6 -61c0 -8.66699 -3.5 -17 -10.5 -25s-14.167 -12 -21.5 -12c-26 0 -51.333 12.5 -76 37.5s-37 51.5 -37 79.5c0 46.667 12.333 95 37 145l14 117c8 71.333 13 125 15 161c0 -0.666992 -1.5 -4.33398 -4.5 -11.001
s-6.5 -15.834 -10.5 -27.501s-8 -24.5 -12 -38.5c-34.667 -101.333 -64 -152 -88 -152c-36 0 -65.833 15.833 -89.5 47.5s-35.5 69.834 -35.5 114.501c0 91.333 22.667 193 68 305c44.667 110.667 89 166 133 166c8.66699 0 23 -5.83301 43 -17.5s30.667 -17.5 32 -17.5
s10.166 3.83301 26.499 11.5s28.833 11.5 37.5 11.5c26.667 0 41 -12.333 43 -37c0 -11.333 -2.66699 -29 -8 -53c-18.667 -132 -39.334 -309.667 -62.001 -533zM268.002 467.001c6 14 13.001 41.334 21.001 82.001c9.33301 38 14 69.333 14 94
c0 14.667 -2.66699 23.667 -8 27c-30 -6 -62.667 -57.333 -98 -154c-33.333 -94.667 -50 -175.334 -50 -242.001c0 -32.667 4.33301 -49 13 -49c8 0 23.667 26.667 47 80c21.333 50.667 41.666 104.667 60.999 162z" />
    <glyph glyph-name="r" unicode="r" horiz-adv-x="405" 
d="M512 457c10.667 0 16.002 -6.33594 16.002 -19.0029c0 -9.33301 -33.333 -69.333 -100 -180l-53 -88c-16 -22 -34.833 -42.5 -56.5 -61.5s-41.834 -28.5 -60.501 -28.5c-26 0 -49.167 11.833 -69.5 35.5s-30.5 52.167 -30.5 85.5c0 74.667 13 156.334 39 245.001
c-36.667 -16 -67.667 -24 -93 -24c-17.333 0 -32.833 7.83301 -46.5 23.5s-20.5 35.834 -20.5 60.501c4 58.667 14.333 116.667 31 174c18 57.333 39 88 63 92c14 0 30.167 -6.33301 48.5 -19s27.5 -25.334 27.5 -38.001c-4 -16.667 -14.333 -51 -31 -103
c-16 -49.333 -24 -81.333 -24 -96c0 -12 4 -18 12 -18c12 0 22.333 2.66699 31 8c23.333 39.333 43.666 59 60.999 59c9.33301 0 21.166 -5 35.499 -15s21.5 -19.333 21.5 -28c0 -12.667 -8.66699 -55.667 -26 -129c-18 -74 -29 -128.667 -33 -164c0 -30 4.66699 -45 14 -45
c11.333 0 28.333 10.333 51 31s44.667 45.334 66 74.001c12 15.333 28.833 38.833 50.5 70.5s38.834 55.834 51.501 72.501s21 25 25 25z" />
    <glyph glyph-name="s" unicode="s" horiz-adv-x="385" 
d="M455 420c31.333 39.333 48.665 48.332 51.998 26.999c0.666992 -2 1 -4.33301 1 -7c0 -16 -41 -76 -123 -180c-35.333 -45.333 -60 -74 -74 -86c20.667 -38 31 -73.333 31 -106c0 -56 -17.667 -106.667 -53 -152c-34.667 -46.667 -75 -70 -121 -70
c-27.333 0 -53.666 12.333 -78.999 37s-38 53.334 -38 86.001c0 58.667 50.667 134.667 152 228c-58 107.333 -89.333 172.666 -94 195.999c-35.333 -47.333 -56 -71 -62 -71c-12 0 -18 4.66699 -18 14c0 6.66699 21 44.334 63 113.001c-2.66699 30.667 -4 47 -4 49
c0 39.333 6.33301 78 19 116s26.834 67 42.501 87s28.5 28.667 38.5 26c1.33301 0 6.83301 -4.16699 16.5 -12.5s17.167 -12.5 22.5 -12.5c8 0 15.833 -4.33301 23.5 -13s11.5 -20 11.5 -34c0 -50.667 -24 -110.667 -72 -180c4 -54 35.667 -132.333 95 -235
c19.333 14 38.333 31 57 51c37.333 33.333 75 76.333 113 129zM249.999 36.999c0 40.667 -6.33398 75.334 -19.001 104.001c-58.667 -62.667 -88 -119.334 -88 -170.001c0 -27.333 9.66699 -41 29 -41c14.667 0 31.334 11.833 50.001 35.5s28 47.5 28 71.5z" />
    <glyph glyph-name="t" unicode="t" horiz-adv-x="327" 
d="M227 168l158.003 233.005c25.333 37.333 43 56 53 56s15 -7 15 -21c0 -24.667 -61.667 -132.334 -185 -323.001c-54.667 -87.333 -93.334 -131 -116.001 -131c-30 0 -54.667 17.333 -74 52s-29 82.667 -29 144c0 66 4 135.667 12 209c14 101.333 25.667 200.333 35 297
l8 64l11 67c-38.667 -6.66699 -75 -10 -109 -10c-19.333 0 -37.5 7.16699 -54.5 21.5s-25.5 29.5 -25.5 45.5c0 10 2.66699 15 8 15c2.66699 0 14.667 -2.5 36 -7.5s35.333 -7.5 42 -7.5c35.333 0 73 4.33301 113 13c4 16 8 47.333 12 94
c11.333 106.667 25.666 160 42.999 160c20.667 0 40.667 -13 60 -39c20 -26.667 30 -49.334 30 -68.001c0 -4.66699 -3.33301 -24.334 -10 -59.001c-2 -9.33301 -3.66699 -18.333 -5 -27s-2.33301 -16.334 -3 -23.001s-1.33398 -11.334 -2.00098 -14.001
c102 16.667 156.667 25 164 25c30 0 54.5 -6.33301 73.5 -19s28.5 -27.667 28.5 -45c0 -10.667 -9.66699 -16 -29 -16c-25.333 4 -48.333 6 -69 6c-41.333 0 -102 -8 -182 -24c-19.333 -121.333 -29 -222.666 -29 -303.999c0 -1.33301 -4.83301 -27.833 -14.5 -79.5
s-14.5 -80.834 -14.5 -87.501c1.33301 -4 2 -13 2 -27c-10.667 -81.333 -16 -136 -16 -164c0 -22 4.66699 -39.667 14 -53c16.667 7.33301 33 23 49 47z" />
    <glyph glyph-name="u" unicode="u" horiz-adv-x="481" 
d="M535 399c23.333 37.333 41.667 55.9951 55 55.9951c9.33301 0 14 -5.66699 14 -17c0 -5.33301 -5.33301 -17.666 -16 -36.999c-6 -12 -19.167 -35 -39.5 -69s-33.166 -56 -38.499 -66c0 -0.666992 -2.66699 -5.66699 -8 -15l-18.5 -32.5
c-7 -12.333 -11.833 -21.833 -14.5 -28.5c-11.333 -21.333 -24.666 -41.5 -39.999 -60.5s-26.666 -26.833 -33.999 -23.5c-12 0 -27 7 -45 21c-36 26 -57 56.667 -63 92c-6 38.667 -6 117.334 0 236.001c-22.667 -104 -36.334 -162 -41.001 -174
c-38.667 -112 -70 -168 -94 -168c-22.667 0 -44.667 7.83301 -66 23.5s-33.666 32.167 -36.999 49.5c-7.33301 52.667 -8 129.334 -2 230.001c8 170.667 25.667 256 53 256c14.667 0 30.334 -6.16699 47.001 -18.5s25.667 -23.166 27 -32.499c0 -2 -6 -50 -18 -144
c-10.667 -100 -14.334 -163.333 -11.001 -190c1.33301 -17.333 4.33301 -35.333 9 -54c21.333 19.333 57.333 117 108 293c1.33301 5.33301 4.66602 23.333 9.99902 54c17.333 92 29.666 138.333 36.999 139c14.667 0 32.5 -6 53.5 -18s31.833 -24.333 32.5 -37
c2.66699 -21.333 -2 -96 -14 -224c-10.667 -135.333 -13.334 -220.666 -8.00098 -255.999c38 34 92 105.667 162 215z" />
    <glyph glyph-name="v" unicode="v" horiz-adv-x="520" 
d="M465 731c0 -47.333 -3.99902 -87.668 -11.999 -121.001c-0.666992 -8.66699 -5.16699 -28.167 -13.5 -58.5s-12.833 -47.5 -13.5 -51.5c10 -31.333 25.5 -59.666 46.5 -84.999s42.5 -38 64.5 -38c13.333 0 31 13 53 39c23.333 27.333 36.333 41 39 41
c9.33301 0 14 -6.33301 14 -19c0 -14 -11.667 -37.667 -35 -71s-47 -50 -71 -50c-53.333 0 -100 32.333 -140 97c-2.66699 -8 -6.33398 -22.333 -11.001 -43l-18.5 -80l-17.5 -76c-38 -162.667 -77 -244 -117 -244c-18 0 -36.167 7.16699 -54.5 21.5
s-27.833 29.833 -28.5 46.5c-4 52 -17.667 158.333 -41 319l-27 156c-6.66699 38.667 -10 75.667 -10 111c0 40 38.667 65 116 75c32 -10 48 -53.667 48 -131c0 -11.333 -0.833008 -23.5 -2.5 -36.5s-3.66699 -24.833 -6 -35.5l-6.5 -30l-5 -23l-3 -8
c0 -52 15.667 -155.667 47 -311c34 100 59.333 220.667 76 362c-8 205.333 16 308 72 308c16 0 29.5 -6.16699 40.5 -18.5s16.5 -27.5 16.5 -45.5z" />
    <glyph glyph-name="w" unicode="w" horiz-adv-x="716" 
d="M633 311c10 -27.333 23.665 -40.999 40.998 -40.999c14.667 0 40.667 28.667 78 86c38.667 58.667 63.667 88 75 88c8.66699 0 13 -5.33301 13 -16c-1.33301 -8 -35.666 -69.333 -102.999 -184c-18 -31.333 -44 -47 -78 -47c-18 0 -37.667 10.667 -59 32
c-22 -66.667 -42.5 -113.334 -61.5 -140.001s-42.833 -40 -71.5 -40c-45.333 0 -80.333 19 -105 57c-23.333 39.333 -41 120 -53 242c-44.667 -169.333 -87.667 -254 -129 -254c-26.667 0 -49 16.333 -67 49c-19.333 35.333 -29 67.666 -29 96.999c4 18 6 35.667 6 53
c0 40.667 -6 91.667 -18 153c-12.667 64.667 -19 112.667 -19 144c0 16.667 6 31 18 43s26.667 18 44 18c30 0 51.833 -5.5 65.5 -16.5s20.5 -29.833 20.5 -56.5c0 -19.333 -3.66699 -51.666 -11 -96.999c-6.66699 -41.333 -10 -63.666 -10 -66.999
c0 -85.333 7 -149.666 21 -192.999c56 81.333 84 162.666 84 243.999c0 10.667 -0.333008 27.167 -1 49.5s-1 34.5 -1 36.5c0 20 8.33301 35.5 25 46.5s36.334 16.5 59.001 16.5c22 0 37.667 -5.33301 47 -16s14 -29.667 14 -57c0 -18 -4.16699 -43.333 -12.5 -76
s-12.5 -50.334 -12.5 -53.001c0 -63.333 6.5 -119.666 19.5 -168.999s28.5 -82.666 46.5 -99.999c17.333 17.333 33.5 43.166 48.5 77.499s22.833 65.166 23.5 92.499c-12.667 90.667 -19 155 -19 193c0 52.667 8.16699 98.5 24.5 137.5s34.833 58.5 55.5 58.5
c18.667 0 38 -6.33301 58 -19s30 -26.667 30 -42c0 -86.667 -19 -196.667 -57 -330z" />
    <glyph glyph-name="x" unicode="x" horiz-adv-x="563" 
d="M154 748c12 0 24.998 -19.333 38.998 -58c16.667 -46 31 -93.667 43 -143l34 -115c90.667 174.667 169.334 262 236.001 262c6.66699 0 10 -7.33301 10 -22l-29 -37c-66 -96.667 -123.333 -197 -172 -301c44 -93.333 85 -154 123 -182c25.333 17.333 51.333 44.333 78 81
l47 72c58 91.333 93.667 137 107 137c10.667 0 16 -5.33301 16 -16c0 -24 -34 -92.333 -102 -205c-67.333 -112 -122 -168 -164 -168c-48 0 -103.333 50 -166 150c-80 -174.667 -127 -262 -141 -262c-16.667 0 -32.834 10.333 -48.501 31s-23.5 40.334 -23.5 59.001
c20.667 0 45.334 27.333 74.001 82l39 77c6 10.667 22.333 45.667 49 105c-88.667 181.333 -133 298.666 -133 351.999c0 22.667 8.83301 45.167 26.5 67.5s36.834 33.5 57.501 33.5z" />
    <glyph glyph-name="y" unicode="y" horiz-adv-x="559" 
d="M668 457c9.33301 0 14.001 -5.66797 14.001 -17.001c0 -5.33301 -32.667 -66 -98 -182c-12 -20.667 -30.667 -49.5 -56 -86.5l-72.5 -105l-39.5 -56.5c-5.33301 -30 -9.66602 -70.333 -12.999 -121c-6 -84.667 -20.333 -157.667 -43 -219
c-23.333 -64 -57.333 -96 -102 -96c-42 0 -79.5 15.333 -112.5 46s-49.5 66.667 -49.5 108c0 76 69.667 183.667 209 323c19.333 165.333 29 317 29 455c-12.667 -54.667 -36.667 -134 -72 -238c-32.667 -99.333 -63.334 -149 -92.001 -149c-30 0 -58 13.667 -84 41
s-39 60 -39 98c0 90.667 7 201.334 21 332.001c6 60 19.667 90 41 90c17.333 0 36.666 -6.33301 57.999 -19s32 -25.334 32 -38.001l-9 -59c-6.66699 -38.667 -13 -89.834 -19 -153.501s-9 -126.167 -9 -187.5c18 30.667 37.667 73.667 59 129
c64 168.667 96 279.334 96 332.001l-2 28c-1.33301 18.667 -2 29 -2 31c0 14.667 11 23 33 25s44.167 -2.16699 66.5 -12.5s33.5 -23.166 33.5 -38.499c0 -24 -1.33301 -78 -4 -162c-6 -144 -16 -283.333 -30 -418l61 72c35.333 42 56 67.333 62 76l40 61
c48.667 74 79.667 111 93 111zM217.001 -332.001c40.667 0 70 94.333 88 283c-74.667 -104 -112 -183.333 -112 -238c0 -30 8 -45 24 -45z" />
    <glyph glyph-name="z" unicode="z" horiz-adv-x="550" 
d="M78 502c0 58 8.66211 115.331 25.9951 171.998c18 58.667 40.667 88 68 88c22.667 0 42 -8 58 -24s24 -32.667 24 -50c0 -22.667 -7 -54 -21 -94c-3.33301 -9.33301 -10.166 -26.5 -20.499 -51.5s-16.833 -39.833 -19.5 -44.5c0 -23.333 8 -35 24 -35
c14 0 34 10.167 60 30.5s47 42.833 63 67.5c0 0.666992 6.33301 14 19 40s24.667 46.167 36 60.5s22.333 19.833 33 16.5c18.667 0 35.667 -7.16699 51 -21.5s23 -28.5 23 -42.5c0 -16.667 -4 -33.667 -12 -51s-17 -31 -27 -41c-5.33301 -5.33301 -18.333 -17 -39 -35
s-33.667 -30 -39 -36c-93.333 -97.333 -154.666 -178 -183.999 -242c32.667 32.667 65.334 49 98.001 49c13.333 0 35.333 -12.333 66 -37c31.333 -23.333 50.333 -35 57 -35c8 0 27 15 57 45l23 25c14.667 14.667 34.834 39 60.501 73l64.5 84.5
c17.333 22.333 27.333 31.833 30 28.5c12.667 0 19 -6 19 -18c0 -13.333 -41 -83.666 -123 -210.999l-21 -31c-8 -16 -19.333 -34.333 -34 -55c-21.333 -35.333 -48 -53 -80 -53c-20.667 0 -46.667 17.667 -78 53s-54.666 53 -69.999 53c-16 0 -43.333 -34.667 -82 -104
c-37.333 -68.667 -67.333 -103 -90 -103s-41.334 8.33301 -56.001 25s-22 36.334 -22 59.001c0 28.667 11 56 33 82c13.333 16.667 49 59 107 127c48 54 92.333 116.333 133 187c-45.333 -45.333 -83 -68 -113 -68c-27.333 0 -51.166 10 -71.499 30s-30.5 49 -30.5 87z" />
    <glyph glyph-name="braceleft" unicode="{" horiz-adv-x="616" 
d="M276 473c10.667 -10.667 27.3301 -22.3242 49.9971 -34.9912c26.667 -16.667 46.167 -32.667 58.5 -48s18.5 -33.333 18.5 -54c0 -6 -4 -16.5 -12 -31.5l-26.5 -48.5c-9.66699 -17.333 -18.5 -41.333 -26.5 -72s-12 -62.667 -12 -96c0 -82 13.5 -150 40.5 -204
s57.833 -81 92.5 -81c23.333 0 55.333 9 96 27c3.33301 1.33301 14.5 8.66602 33.5 21.999s31.167 20.333 36.5 21c12 0 21.833 -2.5 29.5 -7.5s11.5 -10.167 11.5 -15.5c0 -7.33301 -0.833008 -13.666 -2.5 -18.999s-3.66699 -9 -6 -11s-4.83301 -3.33301 -7.5 -4
s-4.66699 -1.33398 -6 -2.00098h-3c-4.66699 -2.66699 -9.66699 -8 -15 -16s-10 -16 -14 -24l-6 -12c-26.667 -22.667 -61.334 -34 -104.001 -34c-90 0 -161.667 44.333 -215 133c-52 90 -78 190.333 -78 301c0 60 10.333 117.333 31 172c0 0.666992 3.66699 8.66699 11 24
s11 25.666 11 30.999c1.33301 9.33301 -6 18.333 -22 27s-35.167 17 -57.5 25s-35.5 13.333 -39.5 16l-8 10l-10 12c-38 28 -57 50 -57 66c0 40.667 38.667 61 116 61c13.333 0 25.666 3.33301 36.999 10s18.333 10.334 21 11.001c6 3.33301 16.833 7.16602 32.5 11.499
s28.834 9.16602 39.501 14.499s17.334 11.666 20.001 18.999c15.333 19.333 15.333 48 0 86c-4 15.333 -12 36.666 -24 63.999s-18.333 42 -19 44c0 4 -11 37.667 -33 101c-18.667 64 -35.667 111.667 -51 143c-19.333 37.333 -29 83 -29 137c2 38.667 9 64 21 76
c0.666992 2.66699 5.33398 7.16699 14.001 13.5s14.667 10.166 18 11.499c2 2 10.667 7.83301 26 17.5s24.666 15.834 27.999 18.501c2 1.33301 6.83301 4.83301 14.5 10.5s15.334 10.5 23.001 14.5s14.834 6 21.501 6c25.333 0 58.666 -15.667 99.999 -47
c42.667 -30.667 64 -54 64 -70c-2 -14.667 -9 -22 -21 -22c-5.33301 0 -16.666 6.16699 -33.999 18.5s-28.333 18.5 -33 18.5l-5 -1c-3.33301 -0.666992 -6.33301 -1 -9 -1c-4 0 -8.66699 1 -14 3s-9.66602 4 -12.999 6s-5.33301 3 -6 3c-20.667 0 -46.667 -13.667 -78 -41
s-47 -44.333 -47 -51c0 -22.667 6.66699 -52.667 20 -90c15.333 -40.667 23 -61.334 23 -62.001c0 -39.333 27.333 -115 82 -227s82 -202 82 -270c0 -18 -10.5 -36.667 -31.5 -56s-42.833 -33 -65.5 -41c-2 -0.666992 -8.83301 -1.33398 -20.5 -2.00098
s-23.5 -1.83398 -35.5 -3.50098s-20.667 -3.83398 -26 -6.50098z" />
    <glyph glyph-name="bar" unicode="|" horiz-adv-x="430" 
d="M256 -287c-4 -2 -9.66895 -7.16895 -17.002 -15.502s-14.666 -12.5 -21.999 -12.5c-19.333 65.333 -29 112.333 -29 141v100c-8 31.333 -12 84.666 -12 159.999l-6 328c-2.66699 186.667 -4 281.334 -4 284.001c-5.33301 118 -8 218.333 -8 301
c0 10.667 0.666992 33.167 2 67.5s2 56.5 2 66.5c0 8.66699 -0.333008 25.667 -1 51s-1 42.333 -1 51c0 6 1.66699 19 5 39s5 33 5 39c0 2.66699 -0.333008 9.66699 -1 21s-1 18.666 -1 21.999c0 18.667 2.66699 41.667 8 69s8 44.666 8 51.999
c3.33301 36 9.33301 68.5 18 97.5s17 43.5 25 43.5c45.333 0 68 -41 68 -123c0 -87.333 -7 -185.666 -21 -294.999c0.666992 -6 0.833984 -14.167 0.500977 -24.5s-0.833008 -23 -1.5 -38s-1 -24.167 -1 -27.5c-6.66699 -125.333 -10 -296.666 -10 -513.999
c0 -30 -0.666992 -49 -2 -57c-4.66699 -11.333 -4 -36.666 2 -75.999l5.5 -32l3.5 -21c0.666992 -4 1 -6.33301 1 -7c0 -5.33301 -1.33301 -20.5 -4 -45.5s-4 -41.833 -4 -50.5c0 -7.33301 1.33301 -20.666 4 -39.999s4 -32.666 4 -39.999v-75c-2 -10 -2 -65.333 0 -166
c1.33301 -66.667 2 -121.334 2 -164.001c0 -8 -3 -26 -9 -54s-9 -46.333 -9 -55z" />
    <glyph glyph-name="braceright" unicode="}" horiz-adv-x="563" 
d="M336 1413l14 -0.00488281c8.66699 0 28.667 -9.66699 60 -29c30.667 -18 49 -37 55 -57c5.33301 -16 8 -37.667 8 -65c0 -50.667 -15.667 -124.667 -47 -222c-1.33301 -5.33301 -9.66602 -25 -24.999 -59c-5.33301 -12 -11.166 -26 -17.499 -42
s-9.83301 -24.667 -10.5 -26c-30 -92.667 -43.667 -167 -41 -223c0 -85.333 17 -144 51 -176c7.33301 -6 21.333 -14.667 42 -26s38.667 -22 54 -32s23 -18.667 23 -26c0 -2 -7.5 -9.33301 -22.5 -22s-30 -28.834 -45 -48.501s-22.5 -39.834 -22.5 -60.501
c0 -12.667 6.66699 -48 20 -106c15.333 -64.667 23 -116 23 -154c0 -32.667 -11.667 -84.667 -35 -156l-6 -35c-8.66699 -23.333 -34 -49.666 -76 -78.999c-39.333 -27.333 -77.666 -41 -114.999 -41c-2.66699 0 -18.334 5.33301 -47.001 16
c-8 2.66699 -20.333 5.83398 -37 9.50098s-31.5 8.16699 -44.5 13.5s-26.167 13.333 -39.5 24c-2 0.666992 -4.33301 2.83398 -7 6.50098s-4.33398 5.5 -5.00098 5.5c-2.66699 1.33301 -9 2.83301 -19 4.5s-18.167 4 -24.5 7s-9.5 7.5 -9.5 13.5l6 8c4 6 6 13 6 21
c0 11.333 15.667 27 47 47s54.666 30 69.999 30c12 0 18 -4.66699 18 -14c0 -2.66699 -0.666992 -6.66699 -2 -12l-2 -8c0 -16.667 24.667 -25 74 -25c19.333 0 36.5 7.5 51.5 22.5s26.667 32.5 35 52.5s15.333 41.333 21 64s9.33398 40.5 11.001 53.5s2.5 21.167 2.5 24.5
c0 44.667 -5 90.334 -15 137.001c-0.666992 5.33301 -5.83398 25.333 -15.501 60s-14.5 60 -14.5 76c0 9.33301 3 26 9 50s9 38 9 42c0 10.667 -7.33301 26.334 -22 47.001s-23 34.334 -25 41.001c-18 37.333 -27 90.666 -27 159.999c0 100.667 25.333 209 76 325
c52.667 122.667 82.667 206.667 90 252c0 2.66699 1.66699 10.334 5 23.001s5 20.667 5 24c0 11.333 -4 21.333 -12 30s-17.667 13 -29 13c-10.667 -0.666992 -24.334 -11.667 -41.001 -33s-26.667 -32.666 -30 -33.999l-29 -7c-15.333 -8.66699 -40 -36.667 -74 -84
l-12 -14c-3.33301 -5.33301 -6.66602 -12.5 -9.99902 -21.5s-6.5 -15.5 -9.5 -19.5s-7.5 -6 -13.5 -6c-21.333 0 -38.833 8.83301 -52.5 26.5s-20.5 38.834 -20.5 63.501c0 19.333 8.16699 40.5 24.5 63.5s31.166 34.5 44.499 34.5c2 0 5.66699 -0.333008 11 -1l8 -1
c16 3.33301 44.667 15.666 86 36.999c38.667 22.667 69.334 35 92.001 37z" />
    <glyph glyph-name="asciitilde" unicode="~" horiz-adv-x="899" 
d="M514 1282c112.667 50 182.338 81.3311 209.005 93.998c0.666992 0 9.5 5.83301 26.5 17.5s29.167 17.5 36.5 17.5c6 0 9 -6 9 -18c0 -10 -3.83301 -19.833 -11.5 -29.5s-18.834 -20.334 -33.501 -32.001s-23.667 -19.167 -27 -22.5c-2 -2 -6.33301 -8.66699 -13 -20
s-11.334 -18.333 -14.001 -21c-3.33301 -3.33301 -13.5 -11.166 -30.5 -23.499s-27.167 -20.166 -30.5 -23.499c-10 -8.66699 -25 -24.167 -45 -46.5s-37.5 -39.333 -52.5 -51s-28.167 -16.167 -39.5 -13.5c-24 0 -47.5 12 -70.5 36s-34.5 48.333 -34.5 73
c0 9.33301 0.333008 28.833 1 58.5s1 48.167 1 55.5c-22.667 -6.66699 -41.5 -15 -56.5 -25s-31.5 -24.667 -49.5 -44c-15.333 -15.333 -24.333 -25 -27 -29l-29 -35l-24 -31c-37.333 4.66699 -63.333 10.334 -78 17.001s-24.334 21 -29.001 43
c0 26.667 40.333 65.667 121 117c81.333 52.667 143.666 82 186.999 88c2.66699 0 7.16699 0.333008 13.5 1s10.5 1 12.5 1c31.333 0 52.166 -12 62.499 -36s15.5 -63.333 15.5 -118z" />
    <glyph glyph-name="exclamdown" unicode="&#xa1;" horiz-adv-x="471" 
d="M127 -293c1.33301 0 2.66504 -0.666016 3.99805 -1.99902h4c10 0 15 5.33301 15 16c0 3.33301 -1.66699 5 -5 5c-0.666992 0 -2.66699 -1.16699 -6 -3.5s-5.33301 -3.5 -6 -3.5c-1.33301 1.33301 -2 4.33301 -2 9c0 23.333 2.33301 44.666 7 63.999
s10.5 37.166 17.5 53.499s10.5 24.833 10.5 25.5l-2 2c-2.66699 0 -4 -0.666992 -4 -2c0 7.33301 4.66699 21.666 14 42.999c10.667 24.667 16 37.667 16 39c0 2 -1 5.33301 -3 10s-3 7.33398 -3 8.00098l17 41c12 27.333 18 43.666 18 48.999c0 2 -0.666992 5.66699 -2 11
l-2 8c0.666992 2.66699 2.33398 6.66699 5.00098 12s5.16699 10 7.5 14s3.5 6.33301 3.5 7s-1.33301 2.66699 -4 6s-4 6 -4 8c0 6.66699 3.66699 15.667 11 27s13.333 19.333 18 24c-5.33301 2 -8 9.66699 -8 23c0.666992 3.33301 3.83398 14.333 9.50098 33
s8.5 30.667 8.5 36c0 1.33301 -1.33301 7.5 -4 18.5s-4 19.167 -4 24.5c0 20.667 15.667 78.667 47 174c6.66699 -6.66699 10 -16.667 10 -30c0 -14 -0.666992 -23 -2 -27l-2 -35v-6c0 -5.33301 1.33301 -15.333 4 -30s4 -24.334 4 -29.001c0 -6 -3.33301 -13.333 -10 -22
s-10 -13.667 -10 -15c0 -6.66699 1.33301 -10 4 -10c0.666992 0 2.66699 0.666992 6 2s5.33301 2 6 2c4 0 6 -5.66699 6 -17c-2 -20 -10.667 -30 -26 -30c2 -15.333 13 -23 33 -23c-6 -30 -12.333 -45 -19 -45c-4 0 -6 3.33301 -6 10
c-5.33301 -3.33301 -8 -8.66602 -8 -15.999c0 -8 6 -12 18 -12l-16 -217c-4.66699 -93.333 -11 -183.666 -19 -270.999c0 -2.66699 -1 -6.16699 -3 -10.5s-2.33301 -8.83301 -1 -13.5c2.66699 -5.33301 4 -10.333 4 -15c0 -2 -1.33301 -14.167 -4 -36.5
s-4 -38.166 -4 -47.499c0 -22.667 0.666992 -43.667 2 -63c1.33301 -20.667 2 -40 2 -58c0 -24 -18.333 -36 -55 -36c-60 0 -90 84 -90 252c0 36.667 0.666992 59.667 2 69zM339.999 635.001c-21.333 0 -39.666 5.33301 -54.999 16s-23 23 -23 37
c0 0.666992 1 3.33398 3 8.00098s4.16699 10 6.5 16s3.83301 10.333 4.5 13c2.66699 8.66699 5 23 7 43c3.33301 25.333 7.16602 42.166 11.499 50.499s12.5 12.5 24.5 12.5c22.667 0 43 -10.5 61 -31.5s28.667 -44.5 32 -70.5c0 -2 -1.5 -8.83301 -4.5 -20.5
s-4.5 -18.5 -4.5 -20.5c0 -35.333 -21 -53 -63 -53z" />
    <glyph glyph-name="cent" unicode="&#xa2;" horiz-adv-x="532" 
d="M250 1044c42 -34 62.9971 -100.667 62.9971 -200v-49c1.33301 1.33301 6.33301 2 15 2c10.667 0 23 -11.667 37 -35c8 53.333 23 80 45 80c12.667 0 27.334 -5.16699 44.001 -15.5s25 -20.833 25 -31.5c0 -43.333 -11.667 -103.666 -35 -180.999
c-22.667 -76 -43.667 -114 -63 -114c-14 0 -21 70.333 -21 211c-17.333 -10 -34.333 -22.333 -51 -37c-5.33301 -67.333 -8 -115.333 -8 -144c0 -206.667 5.33301 -326.667 16 -360c24 0 55.667 22.667 95 68c40.667 44.667 61.667 67 63 67c8 0 12 -6 12 -18
c0 -26.667 -19 -65 -57 -115c-37.333 -51.333 -75.666 -82 -114.999 -92c1.33301 -18 2 -57 2 -117c0 -30.667 -4 -59.5 -12 -86.5s-18.333 -40.5 -31 -40.5c-17.333 50.667 -28 125 -32 223h-6c-53.333 0 -99.166 24.333 -137.499 73s-57.5 109.667 -57.5 183
c0 70.667 19 144 57 220c37.333 74.667 86 142 146 202v97c0 9.33301 -0.333008 28.666 -1 57.999s-1 48 -1 56c0 38 2.66699 70 8 96zM167.997 338c0 -109.333 24 -170.001 72 -182.001v84v184c1.33301 50.667 2 107.334 2 170.001c-49.333 -76.667 -74 -162 -74 -256z" />
    <glyph glyph-name="sterling" unicode="&#xa3;" horiz-adv-x="1120" 
d="M762 928c-11.333 6.66699 -17.0059 17.666 -17.0059 32.999c0 16 1 47.333 3 94c1.33301 31.333 2 71 2 119c0 106 -16.667 185.667 -50 239c-18 -28 -35 -66.333 -51 -115c-11.333 -43.333 -23 -84 -35 -122c-6.66699 -19.333 -13.834 -49.5 -21.501 -90.5
s-11.834 -62.167 -12.501 -63.5c-18 -117.333 -27 -208 -27 -272c16.667 -3.33301 29 -5 37 -5c14.667 0 39.334 1 74.001 3c49.333 2.66699 75.666 4 78.999 4c42.667 0 64 -5 64 -15c0 -11.333 -4 -19.666 -12 -24.999s-18.667 -8.83301 -32 -10.5s-22 -3.5 -26 -5.5
c-5.33301 -0.666992 -16.166 -4.83398 -32.499 -12.501s-25.833 -12.167 -28.5 -13.5l-74 -19c-38.667 -8 -66 -16 -82 -24c-5.33301 -12.667 -10.666 -37.334 -15.999 -74.001c-6 -36.667 -14.333 -64.667 -25 -84c-2 -2.66699 -4.5 -9.5 -7.5 -20.5s-5.66699 -22 -8 -33
s-3.83301 -17.167 -4.5 -18.5c0 -1.33301 -0.833008 -7.33301 -2.5 -18l-5 -30.5c-1.66699 -9.66699 -3.5 -16.5 -5.5 -20.5c-20 -59.333 -30 -93 -30 -101c0 -4.66699 11 -21 33 -49c10 -10 26 -24.667 48 -44s34.667 -30.666 38 -33.999
c100.667 -92.667 196.667 -139 288 -139c37.333 0 71 28 101 84c12.667 23.333 20.667 46 24 68c10 26.667 15 44.334 15 53.001c4 14 9.83301 36.833 17.5 68.5s14.334 58 20.001 79s10.834 37.167 15.501 48.5c24 0 43 -40.667 57 -122
c-8.66699 -98.667 -20.5 -176.334 -35.5 -233.001s-39.833 -108 -74.5 -154c-63.333 -19.333 -116.666 -29 -159.999 -29c-93.333 0 -204 62 -332 186c-52 52 -89 78 -111 78c-8 -0.666992 -17.167 -7.66699 -27.5 -21s-20 -27.666 -29 -42.999s-21.167 -29.333 -36.5 -42
s-31.333 -19 -48 -19c-20 0 -41 7.66699 -63 23c-14.667 8.66699 -23.667 14.667 -27 18l-53 53c4.66699 30.667 7.33398 53.334 8.00098 68.001l8 59l-14.5 8l-10.5 5.5c-2 1 -4 2.83301 -6 5.5s-3.16699 6.16699 -3.5 10.5s-0.5 10.833 -0.5 19.5
c0 17.333 15 34.666 45 51.999c32 18.667 58 28 78 28c26.667 0 58.667 -8.66699 96 -26c40.667 -16.667 61.334 -25 62.001 -25c45.333 163.333 68 261.666 68 294.999c0 9.33301 -4.33301 14 -13 14c-10 0 -32.667 -1.66699 -68 -5s-58.333 -5 -69 -5
c-29.333 0 -58.666 30.667 -87.999 92c24 16.667 72.333 31.667 145 45c73.333 13.333 114.333 24.333 123 33c1.33301 2.66699 7 41.667 17 117c13.333 92 22 159 26 201c6.66699 58 13 101.667 19 131c40.667 218 117 327 229 327c51.333 0 88 -21.667 110 -65
s33 -109.666 33 -198.999c0 -68 -10.5 -131 -31.5 -189s-46.5 -100 -76.5 -126zM126.994 187.999c0 -15.333 5.33203 -41.668 15.999 -79.001c10 -34.667 21.667 -52 35 -52c20 0 42.667 8.33301 68 25c3.33301 2.66699 7.83301 8.33398 13.5 17.001s9.16699 14.667 10.5 18
c2.66699 2 7.33398 9.33301 14.001 22l9 19c-2.66699 15.333 -17 30.333 -43 45s-50.667 22 -74 22c-28.667 0 -45 -12.333 -49 -37z" />
    <glyph glyph-name="currency" unicode="&#xa4;" horiz-adv-x="1394" 
d="M1292 1202c-14 -24.667 -33.668 -50.667 -59.001 -78c-30 -32 -49 -62.667 -57 -92c-54.667 -64 -110.667 -123.333 -168 -178c-42.667 -38.667 -64 -66 -64 -82c0 -0.666992 0.833008 -4.33398 2.5 -11.001l9 -35.5l13.5 -53.5c18.667 -85.333 28 -151.666 28 -198.999
l-14 -86c-5.33301 -47.333 -12 -81.333 -20 -102c-2 -8 -11.667 -21.667 -29 -41c-16.667 -18.667 -25.667 -30.334 -27 -35.001c0 -9.33301 15 -29 45 -59c14.667 -28 31 -65 49 -111c21.333 -54.667 36.666 -90.334 45.999 -107.001l36 -59c25.333 -38 41 -70 47 -96
c-2.66699 -1.33301 -8.66699 -2 -18 -2c-27.333 0 -52.666 10.667 -75.999 32c-25.333 25.333 -54.666 62.333 -87.999 111l-57 86c-3.33301 16 -12.333 40 -27 72l-22 57c-8.66699 -4 -24.334 -16.333 -47.001 -37s-36.334 -32.334 -41.001 -35.001
c-76.667 -43.333 -144.334 -65 -203.001 -65c-8.66699 0 -29.334 3 -62.001 9s-53 9 -61 9c-22 0 -46.667 -25.667 -74 -77c-25.333 -49.333 -45.666 -100 -60.999 -152c-3.33301 -4.66699 -9.33301 -16 -18 -34s-17.667 -32.5 -27 -43.5s-20.333 -16.5 -33 -16.5
c-44 0 -77.333 21 -100 63c8 18 25.667 44.667 53 80c26.667 30.667 46.334 54.667 59.001 72c0.666992 2 1.33398 8.66699 2.00098 20s1.33398 18.333 2.00098 21c16 6 33.333 23 52 51c17.333 26 29.333 42.333 36 49c-65.333 65.333 -113.666 140.333 -144.999 225l10 58
c6 33.333 9 58.666 9 75.999c0 2 -1.16699 7.83301 -3.5 17.5s-3.5 15.834 -3.5 18.501c2.66699 20.667 17.667 60.334 45 119.001l45 115c24 16.667 40 41.334 48 74.001c-6 28 -19.667 48.333 -41 61c-19.333 27.333 -44 69 -74 125c-30.667 60 -56.667 102.333 -78 127
c-2.66699 4 -6.5 7.66699 -11.5 11s-9.16699 7.33301 -12.5 12s-5 11.334 -5 20.001c40 0 75 -13 105 -39c2.66699 -2 7.83398 -9.33301 15.501 -22s12.834 -20.334 15.501 -23.001c10.667 -9.33301 18.167 -16.833 22.5 -22.5s8.5 -13 12.5 -22s7.33301 -16.167 10 -21.5
c51.333 -96.667 77.666 -145 78.999 -145c6 0 13.5 5.66699 22.5 17s19 26.333 30 45s17.5 29.334 19.5 32.001c27.333 33.333 57.333 59.333 90 78c30.667 18 54.834 29.333 72.501 34s42.167 7.66699 73.5 9c20.667 0 43 -4.83301 67 -14.5s42 -19.167 54 -28.5
c4 -2.66699 23 -19.667 57 -51l47 -45c16.667 13.333 40 42 70 86c31.333 46.667 55.666 76 72.999 88c17.333 36.667 51.666 75.667 102.999 117c49.333 39.333 91.666 59 126.999 59c14 0 22 -11.667 24 -35zM808.999 780c0 27.333 -16.667 51.3301 -50 71.9971
s-71.333 31 -114 31c-22 0 -57.333 -17.333 -106 -52c-49.333 -33.333 -83 -69.333 -101 -108c-2.66699 -3.33301 -5 -11.333 -7 -24l-3 -19c-46 -86 -76 -181.667 -90 -287c0 -108 19 -181 57 -219c2.66699 0 4.66699 -0.666992 6 -2c0.666992 0 3.66699 1 9 3
s9.33301 3 12 3c24.667 -50.667 82.667 -76 174 -76c28.667 0 43 6.33301 43 19c0 2.66699 -0.333008 8.33398 -1 17.001s-1 14 -1 16c0 4.66699 2.5 8.16699 7.5 10.5s11.5 4.5 19.5 6.5s14 4.33301 18 7c12.667 8 27.667 26.333 45 55
c16.667 26.667 28.334 43.334 35.001 50.001c76.667 76.667 115 150.334 115 221.001c0 22 -9.66699 86.667 -29 194c-0.666992 0 -9 -3.33301 -25 -10s-26.667 -10 -32 -10c-14.667 0 -25 13 -31 39c1.33301 4.66699 9.66602 14 24.999 28s23.333 25.667 24 35z" />
    <glyph glyph-name="yen" unicode="&#xa5;" horiz-adv-x="999" 
d="M987 254c-14 -8 -45.9971 -15 -95.9971 -21l-115 -12c-26.667 -174 -52.667 -299 -78 -375c-13.333 -40 -34.333 -76.833 -63 -110.5s-55.334 -50.5 -80.001 -50.5c-43.333 0 -94.666 17.667 -153.999 53c-57.333 35.333 -86 75.666 -86 120.999
c-0.666992 23.333 3.66602 48.833 12.999 76.5s21 53 35 76s28.5 43.833 43.5 62.5s28.667 33 41 43s20.833 14 25.5 12c4 0 8.5 -2.16699 13.5 -6.5s7.5 -8.16602 7.5 -11.499s-7 -31.333 -21 -84c-12 -50.667 -18 -95 -18 -133c0 -40 18.333 -60 55 -60
c36 0 77.667 106 125 318l12 55l-37 -6c-8 -2 -26.333 -2 -55 0c-18 1.33301 -33 2 -45 2c-36.667 2 -57 15 -61 39c58.667 17.333 129.667 29.666 213 36.999l14 81l-86 -12l-38 -3c-24.667 -2 -42 -4.33301 -52 -7l-45 -14c-6.66699 -1.33301 -14.167 -3 -22.5 -5
s-14.333 -3.5 -18 -4.5s-6.5 -1.5 -8.5 -1.5c-34.667 2 -57.334 23.333 -68.001 64c74.667 26.667 192 47 352 61c42.667 252.667 68.667 463.667 78 633c0 9.33301 1.66699 41.333 5 96s5 85.667 5 93c-37.333 -175.333 -59.666 -273.666 -66.999 -294.999
c-58.667 -168.667 -88.667 -257 -90 -265c-38.667 -132 -76.334 -198 -113.001 -198c-2.66699 0 -28 3.33301 -76 10c-43.333 8 -66.666 14.667 -69.999 20c-16 22.667 -24 50 -24 82c0 100.667 21 257 63 469l35.5 177.5l24 118.5c4.33301 22 6.5 33.333 6.5 34
c0 19.333 -0.666992 31.666 -2 36.999c-62 -53.333 -122 -136.666 -180 -249.999c-58.667 -112.667 -88 -206.667 -88 -282c0 -3.33301 1 -9.66602 3 -18.999s3 -15.333 3 -18c-6.66699 -15.333 -11 -23 -13 -23c-14 0 -38.333 14.333 -73 43c-36 32 -54 60 -54 84
c0 24.667 9.66699 54.667 29 90c8.66699 20 23 43.333 43 70c34 63.333 84 134.333 150 213l44 50.5l42.5 47c11.667 12.333 18.167 19.5 19.5 21.5c2.66699 4 9.83398 11.167 21.501 21.5s19.5 17.5 23.5 21.5l13 10c9.33301 9.33301 29.666 14 60.999 14
s56.5 -6.5 75.5 -19.5s28.5 -29.5 28.5 -49.5c0 -3.33301 -3.16699 -15.5 -9.5 -36.5l-23 -74.5c-9 -28.667 -15.167 -49 -18.5 -61c-22 -108.667 -42.333 -232.334 -61 -371.001c-19.333 -158 -29 -268.667 -29 -332c22 48 54 127.333 96 238
c54.667 144 94.334 251.667 119.001 323c49.333 136.667 75.333 209.667 78 219c8.66699 28 19.5 47 32.5 57s32.167 15 57.5 15c5.33301 0 14.666 -0.333008 27.999 -1s21.666 -1 24.999 -1c0 -5.33301 1.5 -18.833 4.5 -40.5s4.5 -35.5 4.5 -41.5
c0 -85.333 -11 -217 -33 -395c-18.667 -172 -42.667 -347.667 -72 -527c70 -2 113.667 -14 131 -36c-9.33301 -6 -41.333 -13 -96 -21l-47 -8l-15 -92c9.33301 1.33301 30.666 2 63.999 2c75.333 0 121 -12.333 137 -37z" />
    </font>
</defs>
</svg>
